<svg width="130" height="100" viewBox="0 0 130 100" fill="none" xmlns="http://www.w3.org/2000/svg">
<g clip-path="url(#clip0)">
<path d="M31.0875 6.6C23.2875 6.6 16.9875 12.9 16.9875 20.7C16.9875 28.5 23.2875 34.8 31.0875 34.8C38.8875 34.8 45.1875 28.5 45.1875 20.7C45.1875 13 38.8875 6.6 31.0875 6.6ZM31.0875 32.5C24.5875 32.5 19.2875 27.2 19.2875 20.8C19.2875 14.4 24.5875 9 31.0875 9C37.5875 9 42.8875 14.3 42.8875 20.7C42.8875 27.1 37.5875 32.5 31.0875 32.5ZM101.488 79.2C99.0875 79.2 97.0875 81.2 97.0875 83.6C97.0875 86 99.0875 88 101.488 88C103.888 88 105.888 86 105.888 83.6C105.988 81.2 103.988 79.2 101.488 79.2ZM101.488 85.8C100.288 85.8 99.2875 84.8 99.2875 83.6C99.2875 82.4 100.288 81.4 101.488 81.4C102.688 81.4 103.688 82.4 103.688 83.6C103.688 84.8 102.788 85.8 101.488 85.8ZM91.4875 66.8C89.0875 66.8 87.0875 68.8 87.0875 71.2C87.0875 73.6 89.0875 75.6 91.4875 75.6C93.8875 75.6 95.8875 73.6 95.8875 71.2C95.8875 68.8 93.8875 66.8 91.4875 66.8ZM91.4875 73.4C90.2875 73.4 89.2875 72.4 89.2875 71.2C89.2875 70 90.2875 69 91.4875 69C92.6875 69 93.6875 70 93.6875 71.2C93.6875 72.4 92.6875 73.4 91.4875 73.4ZM106.388 67.5C105.888 67 105.188 67 104.688 67.5L86.5875 85.6C86.3875 85.8 86.2875 86.1 86.2875 86.4C86.2875 86.7 86.3875 87 86.5875 87.2C87.0875 87.7 87.7875 87.7 88.2875 87.2L106.388 69.1C106.888 68.7 106.888 68 106.388 67.5ZM106.388 67.5C105.888 67 105.188 67 104.688 67.5L86.5875 85.6C86.3875 85.8 86.2875 86.1 86.2875 86.4C86.2875 86.7 86.3875 87 86.5875 87.2C87.0875 87.7 87.7875 87.7 88.2875 87.2L106.388 69.1C106.888 68.7 106.888 68 106.388 67.5ZM101.488 79.2C99.0875 79.2 97.0875 81.2 97.0875 83.6C97.0875 86 99.0875 88 101.488 88C103.888 88 105.888 86 105.888 83.6C105.988 81.2 103.988 79.2 101.488 79.2ZM101.488 85.8C100.288 85.8 99.2875 84.8 99.2875 83.6C99.2875 82.4 100.288 81.4 101.488 81.4C102.688 81.4 103.688 82.4 103.688 83.6C103.688 84.8 102.788 85.8 101.488 85.8ZM91.4875 66.8C89.0875 66.8 87.0875 68.8 87.0875 71.2C87.0875 73.6 89.0875 75.6 91.4875 75.6C93.8875 75.6 95.8875 73.6 95.8875 71.2C95.8875 68.8 93.8875 66.8 91.4875 66.8ZM91.4875 73.4C90.2875 73.4 89.2875 72.4 89.2875 71.2C89.2875 70 90.2875 69 91.4875 69C92.6875 69 93.6875 70 93.6875 71.2C93.6875 72.4 92.6875 73.4 91.4875 73.4ZM91.4875 66.8C89.0875 66.8 87.0875 68.8 87.0875 71.2C87.0875 73.6 89.0875 75.6 91.4875 75.6C93.8875 75.6 95.8875 73.6 95.8875 71.2C95.8875 68.8 93.8875 66.8 91.4875 66.8ZM91.4875 73.4C90.2875 73.4 89.2875 72.4 89.2875 71.2C89.2875 70 90.2875 69 91.4875 69C92.6875 69 93.6875 70 93.6875 71.2C93.6875 72.4 92.6875 73.4 91.4875 73.4ZM101.488 79.2C99.0875 79.2 97.0875 81.2 97.0875 83.6C97.0875 86 99.0875 88 101.488 88C103.888 88 105.888 86 105.888 83.6C105.988 81.2 103.988 79.2 101.488 79.2ZM101.488 85.8C100.288 85.8 99.2875 84.8 99.2875 83.6C99.2875 82.4 100.288 81.4 101.488 81.4C102.688 81.4 103.688 82.4 103.688 83.6C103.688 84.8 102.788 85.8 101.488 85.8ZM106.388 67.5C105.888 67 105.188 67 104.688 67.5L86.5875 85.6C86.3875 85.8 86.2875 86.1 86.2875 86.4C86.2875 86.7 86.3875 87 86.5875 87.2C87.0875 87.7 87.7875 87.7 88.2875 87.2L106.388 69.1C106.888 68.7 106.888 68 106.388 67.5ZM106.388 67.5C105.888 67 105.188 67 104.688 67.5L86.5875 85.6C86.3875 85.8 86.2875 86.1 86.2875 86.4C86.2875 86.7 86.3875 87 86.5875 87.2C87.0875 87.7 87.7875 87.7 88.2875 87.2L106.388 69.1C106.888 68.7 106.888 68 106.388 67.5ZM101.488 79.2C99.0875 79.2 97.0875 81.2 97.0875 83.6C97.0875 86 99.0875 88 101.488 88C103.888 88 105.888 86 105.888 83.6C105.988 81.2 103.988 79.2 101.488 79.2ZM101.488 85.8C100.288 85.8 99.2875 84.8 99.2875 83.6C99.2875 82.4 100.288 81.4 101.488 81.4C102.688 81.4 103.688 82.4 103.688 83.6C103.688 84.8 102.788 85.8 101.488 85.8ZM91.4875 66.8C89.0875 66.8 87.0875 68.8 87.0875 71.2C87.0875 73.6 89.0875 75.6 91.4875 75.6C93.8875 75.6 95.8875 73.6 95.8875 71.2C95.8875 68.8 93.8875 66.8 91.4875 66.8ZM91.4875 73.4C90.2875 73.4 89.2875 72.4 89.2875 71.2C89.2875 70 90.2875 69 91.4875 69C92.6875 69 93.6875 70 93.6875 71.2C93.6875 72.4 92.6875 73.4 91.4875 73.4ZM91.4875 66.8C89.0875 66.8 87.0875 68.8 87.0875 71.2C87.0875 73.6 89.0875 75.6 91.4875 75.6C93.8875 75.6 95.8875 73.6 95.8875 71.2C95.8875 68.8 93.8875 66.8 91.4875 66.8ZM91.4875 73.4C90.2875 73.4 89.2875 72.4 89.2875 71.2C89.2875 70 90.2875 69 91.4875 69C92.6875 69 93.6875 70 93.6875 71.2C93.6875 72.4 92.6875 73.4 91.4875 73.4ZM101.488 79.2C99.0875 79.2 97.0875 81.2 97.0875 83.6C97.0875 86 99.0875 88 101.488 88C103.888 88 105.888 86 105.888 83.6C105.988 81.2 103.988 79.2 101.488 79.2ZM101.488 85.8C100.288 85.8 99.2875 84.8 99.2875 83.6C99.2875 82.4 100.288 81.4 101.488 81.4C102.688 81.4 103.688 82.4 103.688 83.6C103.688 84.8 102.788 85.8 101.488 85.8ZM106.388 67.5C105.888 67 105.188 67 104.688 67.5L86.5875 85.6C86.3875 85.8 86.2875 86.1 86.2875 86.4C86.2875 86.7 86.3875 87 86.5875 87.2C87.0875 87.7 87.7875 87.7 88.2875 87.2L106.388 69.1C106.888 68.7 106.888 68 106.388 67.5ZM106.388 67.5C105.888 67 105.188 67 104.688 67.5L86.5875 85.6C86.3875 85.8 86.2875 86.1 86.2875 86.4C86.2875 86.7 86.3875 87 86.5875 87.2C87.0875 87.7 87.7875 87.7 88.2875 87.2L106.388 69.1C106.888 68.7 106.888 68 106.388 67.5ZM101.488 79.2C99.0875 79.2 97.0875 81.2 97.0875 83.6C97.0875 86 99.0875 88 101.488 88C103.888 88 105.888 86 105.888 83.6C105.988 81.2 103.988 79.2 101.488 79.2ZM101.488 85.8C100.288 85.8 99.2875 84.8 99.2875 83.6C99.2875 82.4 100.288 81.4 101.488 81.4C102.688 81.4 103.688 82.4 103.688 83.6C103.688 84.8 102.788 85.8 101.488 85.8ZM91.4875 66.8C89.0875 66.8 87.0875 68.8 87.0875 71.2C87.0875 73.6 89.0875 75.6 91.4875 75.6C93.8875 75.6 95.8875 73.6 95.8875 71.2C95.8875 68.8 93.8875 66.8 91.4875 66.8ZM91.4875 73.4C90.2875 73.4 89.2875 72.4 89.2875 71.2C89.2875 70 90.2875 69 91.4875 69C92.6875 69 93.6875 70 93.6875 71.2C93.6875 72.4 92.6875 73.4 91.4875 73.4ZM91.4875 66.8C89.0875 66.8 87.0875 68.8 87.0875 71.2C87.0875 73.6 89.0875 75.6 91.4875 75.6C93.8875 75.6 95.8875 73.6 95.8875 71.2C95.8875 68.8 93.8875 66.8 91.4875 66.8ZM91.4875 73.4C90.2875 73.4 89.2875 72.4 89.2875 71.2C89.2875 70 90.2875 69 91.4875 69C92.6875 69 93.6875 70 93.6875 71.2C93.6875 72.4 92.6875 73.4 91.4875 73.4ZM101.488 79.2C99.0875 79.2 97.0875 81.2 97.0875 83.6C97.0875 86 99.0875 88 101.488 88C103.888 88 105.888 86 105.888 83.6C105.988 81.2 103.988 79.2 101.488 79.2ZM101.488 85.8C100.288 85.8 99.2875 84.8 99.2875 83.6C99.2875 82.4 100.288 81.4 101.488 81.4C102.688 81.4 103.688 82.4 103.688 83.6C103.688 84.8 102.788 85.8 101.488 85.8ZM106.388 67.5C105.888 67 105.188 67 104.688 67.5L86.5875 85.6C86.3875 85.8 86.2875 86.1 86.2875 86.4C86.2875 86.7 86.3875 87 86.5875 87.2C87.0875 87.7 87.7875 87.7 88.2875 87.2L106.388 69.1C106.888 68.7 106.888 68 106.388 67.5ZM106.388 67.5C105.888 67 105.188 67 104.688 67.5L86.5875 85.6C86.3875 85.8 86.2875 86.1 86.2875 86.4C86.2875 86.7 86.3875 87 86.5875 87.2C87.0875 87.7 87.7875 87.7 88.2875 87.2L106.388 69.1C106.888 68.7 106.888 68 106.388 67.5ZM101.488 79.2C99.0875 79.2 97.0875 81.2 97.0875 83.6C97.0875 86 99.0875 88 101.488 88C103.888 88 105.888 86 105.888 83.6C105.988 81.2 103.988 79.2 101.488 79.2ZM101.488 85.8C100.288 85.8 99.2875 84.8 99.2875 83.6C99.2875 82.4 100.288 81.4 101.488 81.4C102.688 81.4 103.688 82.4 103.688 83.6C103.688 84.8 102.788 85.8 101.488 85.8ZM91.4875 75.6C93.8875 75.6 95.8875 73.6 95.8875 71.2C95.8875 68.8 93.8875 66.8 91.4875 66.8C89.0875 66.8 87.0875 68.8 87.0875 71.2C86.9875 73.7 88.9875 75.6 91.4875 75.6ZM91.4875 69C92.6875 69 93.6875 70 93.6875 71.2C93.6875 72.4 92.6875 73.4 91.4875 73.4C90.2875 73.4 89.2875 72.4 89.2875 71.2C89.1875 70 90.1875 69 91.4875 69ZM97.8875 54.9V0H53.9875V5.3H48.6875V31.5C46.8875 32.2 44.6875 33.6 42.3875 36.2L22.3875 55.7L21.4875 54.8C20.5875 53.9 19.1875 53.9 18.2875 54.8L11.4875 61.5C10.5875 62.4 10.5875 63.8 11.4875 64.7L35.9875 89.5C36.3875 89.9 36.9875 90.2 37.5875 90.2C38.1875 90.2 38.6875 90 39.1875 89.6L45.9875 82.9C46.8875 82 46.8875 80.6 45.9875 79.7L44.6875 78.4L47.7875 75.3C48.0875 75.3 48.3875 75.3 48.6875 75.3V86.1H75.4875C78.9875 94.3 87.0875 100 96.4875 100C108.988 100 119.188 89.9 119.188 77.4C119.188 65.4 109.788 55.6 97.8875 54.9ZM57.1875 3.2H94.7875V54.9C94.0875 54.9 93.3875 55 92.6875 55.2V5.3H57.1875V3.2ZM89.4875 8.4V19.6C83.6875 18.9 78.9875 14.2 78.3875 8.4H89.4875ZM51.8875 8.4H62.9875C62.7875 10 62.2875 11.6 61.4875 13.1C59.4875 16.7 55.9875 19.1 51.8875 19.6V8.4ZM44.8875 80.8L44.4875 81.3L37.5875 88L12.9875 62.9L19.8875 56.2L44.4875 81.1L44.8875 80.8ZM42.8875 64.6C43.0875 64.8 43.2875 64.9 43.4875 65C43.4875 65 44.1875 65.2 45.1875 65.2C46.0875 65.2 47.3875 65.1 48.6875 64.6V72.6C48.2875 72.6 47.8875 72.6 47.4875 72.5L46.7875 72.4L42.6875 76.4L24.3875 57.7L44.4875 38.1C46.0875 36.3 47.4875 35.2 48.7875 34.6V43.2H47.5875C47.1875 43.2 46.8875 43.4 46.5875 43.6C46.0875 44.1 46.0875 45 46.5875 45.6C46.8875 45.9 47.1875 46 47.5875 46L69.5875 45.7C70.6875 45.7 72.0875 45.7 72.3875 45.9C72.6875 46 72.7875 46.3 72.7875 46.5C72.2875 52.9 65.7875 53.5 65.7875 53.5L54.7875 54L54.4875 54.8C50.7875 63.6 44.5875 62.2 44.2875 62.2C43.4875 62 42.7875 62.5 42.5875 63.2C42.3875 63.7 42.4875 64.2 42.8875 64.6ZM51.8875 83V71.8C57.6875 72.6 62.3875 77.2 62.9875 83H51.8875ZM74.5875 83H65.5875C64.8875 75.8 59.1875 70 51.8875 69.2V62.8C53.4875 61.6 55.1875 59.7 56.4875 56.9L56.5875 56.6H57.6875L65.8875 56.3C65.8875 56.3 70.4875 55.8 73.3875 52.4C73.6875 52 73.9875 51.6 74.2875 51.1C75.0875 49.8 75.4875 48.3 75.6875 46.7C75.6875 46.6 75.4875 44.3 73.9875 43.5C73.6875 43.4 73.3875 43.2 72.9875 43.1C72.4875 43 72.0875 43 71.5875 43C71.0875 43 70.3875 43 69.3875 43L51.8875 43.2V22.2C57.9875 21.6 63.0875 17.4 64.8875 11.6C65.1875 10.5 65.3875 9.5 65.4875 8.5H75.6875C76.3875 15.7 82.1875 21.5 89.3875 22.3V56C80.2875 59 73.6875 67.5 73.6875 77.5C73.7875 79.3 74.0875 81.2 74.5875 83ZM96.4875 97.2C85.4875 97.2 76.5875 88.3 76.5875 77.4C76.5875 66.5 85.4875 57.6 96.4875 57.6C107.488 57.6 116.388 66.5 116.388 77.4C116.388 88.3 107.488 97.2 96.4875 97.2ZM104.688 67.5L86.5875 85.6C86.3875 85.8 86.2875 86.1 86.2875 86.4C86.2875 86.7 86.3875 87 86.5875 87.2C87.0875 87.7 87.7875 87.7 88.2875 87.2L106.388 69.1C106.888 68.6 106.888 67.9 106.388 67.4C105.888 67.1 105.188 67.1 104.688 67.5ZM101.488 79.2C99.0875 79.2 97.0875 81.2 97.0875 83.6C97.0875 86 99.0875 88 101.488 88C103.888 88 105.888 86 105.888 83.6C105.988 81.2 103.988 79.2 101.488 79.2ZM101.488 85.8C100.288 85.8 99.2875 84.8 99.2875 83.6C99.2875 82.4 100.288 81.4 101.488 81.4C102.688 81.4 103.688 82.4 103.688 83.6C103.688 84.8 102.788 85.8 101.488 85.8ZM91.4875 75.6C93.8875 75.6 95.8875 73.6 95.8875 71.2C95.8875 68.8 93.8875 66.8 91.4875 66.8C89.0875 66.8 87.0875 68.8 87.0875 71.2C86.9875 73.7 88.9875 75.6 91.4875 75.6ZM91.4875 69C92.6875 69 93.6875 70 93.6875 71.2C93.6875 72.4 92.6875 73.4 91.4875 73.4C90.2875 73.4 89.2875 72.4 89.2875 71.2C89.1875 70 90.1875 69 91.4875 69ZM91.4875 66.8C89.0875 66.8 87.0875 68.8 87.0875 71.2C87.0875 73.6 89.0875 75.6 91.4875 75.6C93.8875 75.6 95.8875 73.6 95.8875 71.2C95.8875 68.8 93.8875 66.8 91.4875 66.8ZM91.4875 73.4C90.2875 73.4 89.2875 72.4 89.2875 71.2C89.2875 70 90.2875 69 91.4875 69C92.6875 69 93.6875 70 93.6875 71.2C93.6875 72.4 92.6875 73.4 91.4875 73.4ZM101.488 79.2C99.0875 79.2 97.0875 81.2 97.0875 83.6C97.0875 86 99.0875 88 101.488 88C103.888 88 105.888 86 105.888 83.6C105.988 81.2 103.988 79.2 101.488 79.2ZM101.488 85.8C100.288 85.8 99.2875 84.8 99.2875 83.6C99.2875 82.4 100.288 81.4 101.488 81.4C102.688 81.4 103.688 82.4 103.688 83.6C103.688 84.8 102.788 85.8 101.488 85.8ZM106.388 67.5C105.888 67 105.188 67 104.688 67.5L86.5875 85.6C86.3875 85.8 86.2875 86.1 86.2875 86.4C86.2875 86.7 86.3875 87 86.5875 87.2C87.0875 87.7 87.7875 87.7 88.2875 87.2L106.388 69.1C106.888 68.7 106.888 68 106.388 67.5ZM106.388 67.5C105.888 67 105.188 67 104.688 67.5L86.5875 85.6C86.3875 85.8 86.2875 86.1 86.2875 86.4C86.2875 86.7 86.3875 87 86.5875 87.2C87.0875 87.7 87.7875 87.7 88.2875 87.2L106.388 69.1C106.888 68.7 106.888 68 106.388 67.5ZM101.488 79.2C99.0875 79.2 97.0875 81.2 97.0875 83.6C97.0875 86 99.0875 88 101.488 88C103.888 88 105.888 86 105.888 83.6C105.988 81.2 103.988 79.2 101.488 79.2ZM101.488 85.8C100.288 85.8 99.2875 84.8 99.2875 83.6C99.2875 82.4 100.288 81.4 101.488 81.4C102.688 81.4 103.688 82.4 103.688 83.6C103.688 84.8 102.788 85.8 101.488 85.8ZM91.4875 66.8C89.0875 66.8 87.0875 68.8 87.0875 71.2C87.0875 73.6 89.0875 75.6 91.4875 75.6C93.8875 75.6 95.8875 73.6 95.8875 71.2C95.8875 68.8 93.8875 66.8 91.4875 66.8ZM91.4875 73.4C90.2875 73.4 89.2875 72.4 89.2875 71.2C89.2875 70 90.2875 69 91.4875 69C92.6875 69 93.6875 70 93.6875 71.2C93.6875 72.4 92.6875 73.4 91.4875 73.4ZM91.4875 66.8C89.0875 66.8 87.0875 68.8 87.0875 71.2C87.0875 73.6 89.0875 75.6 91.4875 75.6C93.8875 75.6 95.8875 73.6 95.8875 71.2C95.8875 68.8 93.8875 66.8 91.4875 66.8ZM91.4875 73.4C90.2875 73.4 89.2875 72.4 89.2875 71.2C89.2875 70 90.2875 69 91.4875 69C92.6875 69 93.6875 70 93.6875 71.2C93.6875 72.4 92.6875 73.4 91.4875 73.4ZM101.488 79.2C99.0875 79.2 97.0875 81.2 97.0875 83.6C97.0875 86 99.0875 88 101.488 88C103.888 88 105.888 86 105.888 83.6C105.988 81.2 103.988 79.2 101.488 79.2ZM101.488 85.8C100.288 85.8 99.2875 84.8 99.2875 83.6C99.2875 82.4 100.288 81.4 101.488 81.4C102.688 81.4 103.688 82.4 103.688 83.6C103.688 84.8 102.788 85.8 101.488 85.8ZM106.388 67.5C105.888 67 105.188 67 104.688 67.5L86.5875 85.6C86.3875 85.8 86.2875 86.1 86.2875 86.4C86.2875 86.7 86.3875 87 86.5875 87.2C87.0875 87.7 87.7875 87.7 88.2875 87.2L106.388 69.1C106.888 68.7 106.888 68 106.388 67.5ZM106.388 67.5C105.888 67 105.188 67 104.688 67.5L86.5875 85.6C86.3875 85.8 86.2875 86.1 86.2875 86.4C86.2875 86.7 86.3875 87 86.5875 87.2C87.0875 87.7 87.7875 87.7 88.2875 87.2L106.388 69.1C106.888 68.7 106.888 68 106.388 67.5ZM101.488 79.2C99.0875 79.2 97.0875 81.2 97.0875 83.6C97.0875 86 99.0875 88 101.488 88C103.888 88 105.888 86 105.888 83.6C105.988 81.2 103.988 79.2 101.488 79.2ZM101.488 85.8C100.288 85.8 99.2875 84.8 99.2875 83.6C99.2875 82.4 100.288 81.4 101.488 81.4C102.688 81.4 103.688 82.4 103.688 83.6C103.688 84.8 102.788 85.8 101.488 85.8ZM91.4875 66.8C89.0875 66.8 87.0875 68.8 87.0875 71.2C87.0875 73.6 89.0875 75.6 91.4875 75.6C93.8875 75.6 95.8875 73.6 95.8875 71.2C95.8875 68.8 93.8875 66.8 91.4875 66.8ZM91.4875 73.4C90.2875 73.4 89.2875 72.4 89.2875 71.2C89.2875 70 90.2875 69 91.4875 69C92.6875 69 93.6875 70 93.6875 71.2C93.6875 72.4 92.6875 73.4 91.4875 73.4ZM91.4875 66.8C89.0875 66.8 87.0875 68.8 87.0875 71.2C87.0875 73.6 89.0875 75.6 91.4875 75.6C93.8875 75.6 95.8875 73.6 95.8875 71.2C95.8875 68.8 93.8875 66.8 91.4875 66.8ZM91.4875 73.4C90.2875 73.4 89.2875 72.4 89.2875 71.2C89.2875 70 90.2875 69 91.4875 69C92.6875 69 93.6875 70 93.6875 71.2C93.6875 72.4 92.6875 73.4 91.4875 73.4ZM101.488 79.2C99.0875 79.2 97.0875 81.2 97.0875 83.6C97.0875 86 99.0875 88 101.488 88C103.888 88 105.888 86 105.888 83.6C105.988 81.2 103.988 79.2 101.488 79.2ZM101.488 85.8C100.288 85.8 99.2875 84.8 99.2875 83.6C99.2875 82.4 100.288 81.4 101.488 81.4C102.688 81.4 103.688 82.4 103.688 83.6C103.688 84.8 102.788 85.8 101.488 85.8ZM106.388 67.5C105.888 67 105.188 67 104.688 67.5L86.5875 85.6C86.3875 85.8 86.2875 86.1 86.2875 86.4C86.2875 86.7 86.3875 87 86.5875 87.2C87.0875 87.7 87.7875 87.7 88.2875 87.2L106.388 69.1C106.888 68.7 106.888 68 106.388 67.5ZM106.388 67.5C105.888 67 105.188 67 104.688 67.5L86.5875 85.6C86.3875 85.8 86.2875 86.1 86.2875 86.4C86.2875 86.7 86.3875 87 86.5875 87.2C87.0875 87.7 87.7875 87.7 88.2875 87.2L106.388 69.1C106.888 68.7 106.888 68 106.388 67.5ZM101.488 79.2C99.0875 79.2 97.0875 81.2 97.0875 83.6C97.0875 86 99.0875 88 101.488 88C103.888 88 105.888 86 105.888 83.6C105.988 81.2 103.988 79.2 101.488 79.2ZM101.488 85.8C100.288 85.8 99.2875 84.8 99.2875 83.6C99.2875 82.4 100.288 81.4 101.488 81.4C102.688 81.4 103.688 82.4 103.688 83.6C103.688 84.8 102.788 85.8 101.488 85.8ZM91.4875 66.8C89.0875 66.8 87.0875 68.8 87.0875 71.2C87.0875 73.6 89.0875 75.6 91.4875 75.6C93.8875 75.6 95.8875 73.6 95.8875 71.2C95.8875 68.8 93.8875 66.8 91.4875 66.8ZM91.4875 73.4C90.2875 73.4 89.2875 72.4 89.2875 71.2C89.2875 70 90.2875 69 91.4875 69C92.6875 69 93.6875 70 93.6875 71.2C93.6875 72.4 92.6875 73.4 91.4875 73.4Z" fill="black"/>
<path d="M34.9875 27.1C34.2875 27.9 33.2875 28.4 32.0875 28.6V30.3C32.0875 30.8 31.6875 31.2 31.1875 31.2C30.6875 31.2 30.2875 30.8 30.2875 30.3V28.6C29.0875 28.5 27.8875 28 26.6875 27.3C26.2875 27 26.0875 26.4 26.3875 26C26.6875 25.6 27.2875 25.4 27.6875 25.7C29.9875 27.2 32.6875 27 33.5875 25.9C34.1875 25.1 34.1875 23.8 33.5875 22.9C32.9875 22.1 32.0875 21.9 30.9875 21.7C29.6875 21.4 28.1875 21.2 27.2875 19.8C26.1875 18.3 26.1875 16.1 27.2875 14.6C27.8875 13.7 28.9875 13.2 30.1875 13V11.1C30.1875 10.6 30.5875 10.2 31.0875 10.2C31.5875 10.2 31.9875 10.6 31.9875 11.1V13C33.0875 13.2 34.2875 13.7 35.2875 14.4C35.6875 14.7 35.6875 15.3 35.3875 15.7C35.0875 16.1 34.4875 16.1 34.0875 15.8C33.1875 15.1 32.0875 14.7 31.0875 14.7C30.9875 14.7 30.7875 14.7 30.5875 14.7C29.7875 14.8 29.0875 15.1 28.6875 15.6C28.0875 16.4 28.0875 17.7 28.6875 18.6C29.2875 19.4 30.1875 19.6 31.2875 19.8C32.5875 20.1 34.0875 20.3 34.9875 21.7C36.1875 23.3 36.1875 25.7 34.9875 27.1Z" fill="black"/>
</g>
<defs>
<clipPath id="clip0">
<rect width="130" height="100" fill="white"/>
</clipPath>
</defs>
</svg>
