<svg width="130" height="100" viewBox="0 0 130 100" fill="none" xmlns="http://www.w3.org/2000/svg">
<g clip-path="url(#clip0)">
<path d="M118.3 32.1H110.8V24.4C110.8 21.4 109.6 18.6 107.4 16.4C105.2 14.3 102.2 13.1 99.1 13.1H11.7C5.2 13.2 0 18.2 0 24.4V69.8C0 76 5.2 81 11.7 81H19.2V88.6C19.2 91.6 20.4 94.5 22.6 96.6C24.8 98.7 27.8 99.9 30.9 100H118.4C124.8 100 130.1 95 130.1 88.8V43.3C130 37.2 124.8 32.1 118.3 32.1ZM19.2 43C19.2 43 19.2 43.2 19.2 43.3V77H11.7C7.6 77 4.2 73.8 4.2 69.8V43H19.2ZM106.6 32.1H30.9C26 32.1 21.6 35.1 19.9 39.5H4.2V29.3H106.6V32.1V32.1ZM23.4 43.3C23.4 39.3 26.7 36.1 30.9 36.1H118.4C120.4 36.1 122.3 36.9 123.7 38.2C125.1 39.5 125.9 41.4 125.9 43.3V88.6C125.9 92.6 122.6 95.8 118.4 95.8H30.9C26.8 95.8 23.4 92.6 23.4 88.6V43.3ZM11.7 17.2H99.2C103.3 17.2 106.7 20.4 106.7 24.4V25.8H4.2V24.4C4.2 20.4 7.5 17.2 11.7 17.2Z" fill="black"/>
<path d="M73.2 58.4C74.4 58.4 75.5001 58.1 76.5001 57.5L75.4001 55.3C74.7001 55.7 74 55.9 73.2 55.8C72.4 55.8 72.0001 55.4 72.0001 54.5V50.7H75.5001V48.1H72.0001V44L69.3001 45.4V54.4C69.2001 55.4 69.5001 56.4 70.3001 57.2C71.0001 58.1 72.1 58.5 73.2 58.4Z" fill="black"/>
<path d="M90.1001 50.6C90.5001 50.6 91.0001 50.6 91.4001 50.6C91.9001 50.6 92.4001 50.7 92.9001 50.8L93.7001 48.2C92.8001 48 91.9001 47.9 91.0001 47.9C89.7001 47.9 88.4001 48.1 87.1001 48.4V58H89.8001L90.1001 50.6Z" fill="black"/>
<path d="M81.4999 58.3C82.8999 58.3 84.2999 58.1 85.5999 57.8L84.7999 55.4C83.6999 55.7 82.5999 55.8 81.4999 55.8C79.9999 55.8 78.9999 55.1 78.9999 53.2C78.9999 51.3 79.6999 50.6 80.8999 50.6C82.0999 50.6 82.7999 50.9 82.7999 51.6L79.7999 53.1L80.9999 55.3L85.6999 53.1C85.6999 49.8 83.9999 48.1 80.8999 48.1C77.7999 48.1 76.0999 49.9 76.0999 53.2V53.4C75.9999 54.8 76.4999 56.1 77.5999 57C78.6999 58.1 80.0999 58.5 81.4999 58.3Z" fill="black"/>
<path d="M60.9001 50.6C61.4001 50.6 62.0001 50.6 62.5001 50.6C63.9001 50.6 64.5001 51.1 64.5001 52.3V58.3H67.2001V52.5C67.3001 51.3 66.9001 50.1 66.0001 49.3C65.1001 48.5 63.9001 48 62.6001 48.1C61.1001 48.1 59.5001 48.3 58.1001 48.6V58.2H60.8001L60.9001 50.6Z" fill="black"/>
<path d="M55.5001 48.2H52.6001V58.1H55.5001V48.2Z" fill="black"/>
<path d="M106.1 91.5C107.4 91.5 108.6 91.2 109.7 90.6C110.8 91.2 112 91.5 113.3 91.5C117.3 91.5 120.5 88.4 120.5 84.6C120.5 80.8 117.3 77.7 113.3 77.7C112 77.7 110.8 78 109.7 78.6C108.6 78 107.4 77.7 106.1 77.7C102.1 77.7 98.8999 80.8 98.8999 84.6C98.8999 88.4 102.1 91.5 106.1 91.5ZM111.9 80.6C113.7 80.1 115.6 80.7 116.6 82.2C117.7 83.6 117.7 85.6 116.6 87C115.5 88.4 113.6 89.1 111.9 88.6C113.7 86.2 113.7 83 111.9 80.6ZM109 84.7C109 83.9 109.3 83 109.8 82.4C110.8 83.8 110.8 85.7 109.8 87.1C109.2 86.4 109 85.5 109 84.7ZM106.1 84.7C106.1 86.1 106.6 87.5 107.4 88.7C105.6 89.2 103.7 88.6 102.7 87.1C101.7 85.6 101.6 83.7 102.7 82.3C103.8 80.9 105.7 80.2 107.4 80.7C106.5 81.9 106 83.2 106 84.7H106.1Z" fill="black" stroke="white" stroke-width="0.2"/>
<path d="M31.4 74.9H37C37.9 74.9 38.6 74.2 38.6 73.4V68C38.6 67.2 37.9 66.5 37 66.5H31.4C30.5 66.5 29.8 67.2 29.8 68V73.3C29.8 73.7 30 74.1 30.3 74.4C30.6 74.7 31 74.9 31.4 74.9ZM31.9 72.9V68.5H36.5V72.9H31.9Z" fill="black" stroke="white" stroke-width="0.1"/>
</g>
<defs>
<clipPath id="clip0">
<rect width="130" height="100" fill="white"/>
</clipPath>
</defs>
</svg>
