<svg width="130" height="100" viewBox="0 0 130 100" fill="none" xmlns="http://www.w3.org/2000/svg">
<g clip-path="url(#clip0)">
<path d="M111.7 0H18.2999C12.7999 0 8.3999 4.4 8.3999 9.9V36C8.3999 41.5 12.7999 45.9 18.2999 45.9H31.1999V100H98.7999V45.9H111.7C117.2 45.9 121.6 41.5 121.6 36V9.9C121.6 4.4 117.2 0 111.7 0ZM111.7 41.7H98.7999V33.5H102.7C106.1 33.5 108.9 30.7 108.9 27.3C108.9 23.9 106.1 21.1 102.7 21.1H27.0999C23.6999 21.1 20.8999 23.9 20.8999 27.3C20.8999 30.7 23.6999 33.5 27.0999 33.5H31.1999V41.7H18.2999C15.1999 41.7 12.5999 39.2 12.5999 36V9.9C12.5999 6.8 15.0999 4.2 18.2999 4.2H111.8C114.9 4.2 117.5 6.7 117.5 9.9V36C117.4 39.2 114.9 41.7 111.7 41.7ZM102.7 30.5H98.7999V24.3H102.7C104.4 24.3 105.8 25.7 105.8 27.4C105.8 29.1 104.5 30.5 102.7 30.5ZM23.9999 27.3C23.9999 25.6 25.3999 24.2 27.0999 24.2H31.1999V30.4H27.0999C25.3999 30.5 23.9999 29.1 23.9999 27.3C23.9999 27.4 23.9999 27.4 23.9999 27.3ZM94.0999 77.7V95.2H77.2999C78.0999 86.2 84.9999 78.9 94.0999 77.7ZM65.0999 55.9C54.9999 55.9 46.6999 47.7 46.6999 37.5C46.6999 32.5 48.5999 27.8 52.1999 24.3H77.9999C81.4999 27.7 83.4999 32.5 83.4999 37.4C83.5999 47.5 75.2999 55.8 65.0999 55.9C65.0999 55.9 65.1999 55.9 65.0999 55.9ZM43.4999 37.5C43.4999 49.4 53.1999 59.1 65.1999 59.1C77.0999 59.1 86.7999 49.4 86.7999 37.4C86.7999 32.7 85.2999 28.2 82.3999 24.4H94.0999V73.9C82.9999 75.1 74.2999 84.1 73.4999 95.2H56.8999C55.8999 84 46.9999 75.1 35.7999 73.9V24.3H47.8999C44.9999 28.1 43.4999 32.6 43.4999 37.4V37.5ZM35.8999 95.2V77.7C44.9999 78.9 52.0999 86.1 53.1999 95.2H35.8999Z" fill="black"/>
<path d="M74.9999 31.8C76.1999 32.8 76.9999 34.4 77.2999 36.1H79.8999C80.6999 36.1 81.2999 36.7 81.2999 37.5C81.2999 38.3 80.6999 38.9 79.8999 38.9H77.2999C77.0999 40.7 76.3999 42.6 75.2999 44.3C74.8999 45 73.9999 45.1 73.2999 44.7C72.5999 44.3 72.4999 43.4 72.8999 42.7C75.1999 39.2 74.8999 35.2 73.1999 33.9C71.9999 32.9 69.9999 32.9 68.5999 34C67.3999 34.8 67.0999 36.3 66.7999 37.9C66.3999 39.9 65.9999 42.1 63.8999 43.5C61.5999 45.1 58.2999 45.1 56.0999 43.4C54.7999 42.4 53.9999 40.8 53.6999 39H50.7999C49.9999 39 49.3999 38.4 49.3999 37.6C49.3999 36.8 49.9999 36.2 50.7999 36.2H53.6999C53.9999 34.5 54.6999 32.7 55.8999 31.3C56.3999 30.7 57.2999 30.6 57.8999 31.1C58.4999 31.6 58.5999 32.5 58.0999 33.1C56.9999 34.4 56.3999 36.1 56.3999 37.6C56.3999 37.8 56.3999 38.1 56.4999 38.3C56.6999 39.5 57.1999 40.6 57.8999 41.2C59.0999 42.1 61.0999 42.1 62.3999 41.1C63.5999 40.3 63.8999 38.9 64.1999 37.2C64.5999 35.2 64.9999 33 67.0999 31.6C69.2999 30 72.8999 30 74.9999 31.8Z" fill="black"/>
</g>
<defs>
<clipPath id="clip0">
<rect width="130" height="100" fill="white"/>
</clipPath>
</defs>
</svg>
