<svg width="130" height="100" viewBox="0 0 130 100" fill="none" xmlns="http://www.w3.org/2000/svg">
<g clip-path="url(#clip0)">
<path d="M75.6999 67.2245C73.8999 69.4245 71.1999 70.8245 67.9999 71.2245V75.8245C67.9999 77.2245 66.8999 78.3245 65.4999 78.3245C64.0999 78.3245 62.9999 77.2245 62.9999 75.8245V71.2245C59.7999 70.8245 56.3999 69.6245 53.3999 67.6245C52.1999 66.8245 51.8999 65.3245 52.6999 64.1245C53.3999 62.9245 54.9999 62.6245 56.1999 63.4245C62.3999 67.5245 69.4999 66.9245 71.8999 63.9245C73.5999 61.8245 73.4999 58.1245 71.7999 55.7245C70.2999 53.6245 67.7999 53.1245 64.8999 52.6245C61.3999 51.9245 57.4999 51.2245 54.8999 47.5245C51.9999 43.4245 51.9999 37.4245 54.9999 33.6245C56.6999 31.3245 59.5999 29.8245 62.7999 29.3245V24.2245C62.7999 22.8245 63.8999 21.7245 65.2999 21.7245C66.6999 21.7245 67.7999 22.8245 67.7999 24.2245V29.3245C70.8999 29.8245 73.8999 31.1245 76.4999 33.2245C77.5999 34.1245 77.6999 35.6245 76.8999 36.7245C75.9999 37.8245 74.4999 37.9245 73.3999 37.1245C71.0999 35.2245 68.1999 34.1245 65.3999 34.1245C64.9999 34.1245 64.4999 34.1245 64.0999 34.2245C61.8999 34.5245 59.9999 35.4245 58.9999 36.7245C57.3999 38.8245 57.3999 42.4245 58.9999 44.7245C60.4999 46.8245 62.9999 47.3245 65.8999 47.8245C69.3999 48.5245 73.2999 49.2245 75.8999 52.9245C78.7999 57.1245 78.7999 63.4245 75.6999 67.2245Z" fill="black"/>
<path d="M57.9 9.92451C57.7 9.92451 35.8 13.9245 28.2 33.7245L39 29.5245C40.3 29.0245 41.7 29.6245 42.2 30.9245C42.7 32.2245 42.1 33.6245 40.8 34.1245L25 40.3245C24.7 40.4245 24.4 40.5245 24.1 40.5245C23.1 40.5245 22.2 39.9245 21.8 39.0245L15.2 22.7245C14.7 21.4245 15.3 20.0245 16.5 19.5245C17.8 19.0245 19.2 19.6245 19.7 20.9245L23.9 31.1245C32.9 9.22451 57 5.22451 57.3 5.12451C58.7 4.92451 59.9 5.92451 60 7.32451C60.2 8.52451 59.2 9.72451 57.9 9.92451Z" fill="black"/>
<path d="M24.8 56.9245C24.8 57.1245 28.8 79.2245 48.5 86.8245L44.3 75.9245C43.8 74.6245 44.4 73.2245 45.7 72.7245C47 72.2245 48.4 72.8245 48.9 74.1245L55 89.9245C55.1 90.2245 55.2 90.5245 55.2 90.8245C55.2 91.8245 54.6 92.7245 53.7 93.1245L37.5 99.8245C36.2 100.325 34.8 99.7245 34.3 98.4245C33.8 97.1245 34.4 95.7245 35.6 95.2245L45.7 91.0245C23.9 82.0245 19.9 57.7245 19.9 57.4245C19.7 56.0245 20.7 54.8245 22.1 54.7245C23.5 54.5245 24.7 55.5245 24.8 56.9245Z" fill="black"/>
<path d="M72.0999 90.1245C72.2999 90.1245 94.1999 86.1245 101.8 66.3245L90.9999 70.5245C89.6999 71.0245 88.2999 70.4245 87.7999 69.1245C87.2999 67.8245 87.8999 66.4245 89.1999 65.9245L105 59.8245C105.3 59.7245 105.6 59.6245 105.9 59.6245C106.9 59.6245 107.8 60.2245 108.2 61.1245L114.8 77.4245C115.3 78.7245 114.7 80.1245 113.5 80.6245C112.2 81.1245 110.8 80.5245 110.3 79.2245L106.1 69.0245C97.0999 90.9245 72.9999 94.9245 72.6999 95.0245C71.2999 95.2245 70.0999 94.2245 69.9999 92.8245C69.7999 91.5245 70.7999 90.3245 72.0999 90.1245Z" fill="black"/>
<path d="M104.4 43.1245C104.4 42.9245 100.4 20.8245 80.7 13.2245L84.9 24.1245C85.4 25.4245 84.8 26.8245 83.5 27.3245C82.2 27.8245 80.8 27.2245 80.3 25.9245L74.2 10.0245C74.1 9.72453 74 9.42453 74 9.12453C74 8.12453 74.6 7.22453 75.5 6.82453L91.7 0.124534C93 -0.375466 94.4 0.224534 94.9 1.52453C95.4 2.82453 94.8 4.22453 93.6 4.72453L83.5 9.02453C105.3 18.1245 109.3 42.3245 109.3 42.6245C109.5 44.0245 108.5 45.2245 107.1 45.3245C105.8 45.5245 104.6 44.5245 104.4 43.1245Z" fill="black"/>
</g>
<defs>
<clipPath id="clip0">
<rect width="130" height="100" fill="white"/>
</clipPath>
</defs>
</svg>
