<svg width="130" height="100" viewBox="0 0 130 100" fill="none" xmlns="http://www.w3.org/2000/svg">
<g clip-path="url(#clip0)">
<path d="M36.1313 65.1C35.4313 65.1 34.8313 65.7 34.8313 66.4V78.4C34.8313 78.9 35.0313 79.3 35.5313 79.5C35.9313 79.7 36.4313 79.7 36.8313 79.5C37.2313 79.3 37.5313 78.9 37.5313 78.4V66.4C37.3313 65.6 36.8313 65.1 36.1313 65.1Z" fill="black"/>
<path d="M48.7312 65.3C48.0312 65.3 47.4312 65.9 47.4312 66.6V78.6C47.4312 79.1 47.6311 79.5 48.1311 79.7C48.5311 79.9 49.0312 79.9 49.4312 79.7C49.8312 79.5 50.1311 79.1 50.1311 78.6V66.6C50.0311 65.8 49.4312 65.3 48.7312 65.3Z" fill="black"/>
<path d="M61.7312 65.3C61.0312 65.3 60.4312 65.9 60.4312 66.6V78.6C60.4312 79.3 61.0312 79.9 61.7312 79.9C62.4312 79.9 63.0312 79.3 63.0312 78.6V66.6C63.0312 65.8 62.4312 65.3 61.7312 65.3Z" fill="black"/>
<path d="M30.4313 65.3C29.7313 65.3 29.1313 65.9 29.1313 66.6V82.8C29.1313 83.5 29.7313 84.1 30.4313 84.1C31.1313 84.1 31.7313 83.5 31.7313 82.8V66.5C31.6313 65.8 31.1313 65.3 30.4313 65.3Z" fill="black"/>
<path d="M42.2312 65.3C41.5312 65.3 40.9312 65.9 40.9312 66.6V82.8C40.9312 83.5 41.5312 84.1 42.2312 84.1C42.9312 84.1 43.5312 83.5 43.5312 82.8V66.5C43.5312 65.8 42.9312 65.3 42.2312 65.3Z" fill="black"/>
<path d="M55.2312 65.3C54.9312 65.3 54.5312 65.4 54.3312 65.7C54.1312 65.9 53.9312 66.3 53.9312 66.6V82.8C53.9312 83.5 54.5312 84.1 55.2312 84.1C55.9312 84.1 56.5312 83.5 56.5312 82.8V66.5C56.5312 65.8 55.9312 65.3 55.2312 65.3Z" fill="black"/>
<path d="M24.9312 100H82.3312C87.7312 100 92.1312 95.8 92.1312 90.5V85.6C100.131 84.7 106.831 79.5 109.531 72.2C112.231 64.9 110.431 56.7 104.931 51.1C101.531 47.6 97.0312 45.4 92.1312 44.8V25L66.4312 0.3L66.1312 0H28.9312C23.5312 0 19.2312 4.2 19.2312 9.4V94.4C19.2312 97.5 21.8312 100 24.9312 100ZM71.0312 64.7C71.3312 54.9 79.5312 47.1 89.6312 47.1H90.1312C97.6312 47.3 104.331 51.8 107.031 58.7C109.731 65.5 107.931 73.3 102.531 78.3C97.0312 83.3 89.0312 84.7 82.1312 81.7C75.2312 78.7 70.8312 72 71.0312 64.7ZM88.1312 27.1V44.7C77.2312 45.4 68.7312 54.1 68.4312 64.7C68.4312 65.2 68.4312 65.7 68.4312 66.2C68.3312 65.6 67.8312 65.2 67.2312 65.2C66.9312 65.2 66.5312 65.3 66.3312 65.6C66.1312 65.8 65.9312 66.2 65.9312 66.5V82.7C65.9312 83.4 66.5312 84 67.2312 84C67.9312 84 68.5312 83.4 68.5312 82.7V67.1C68.7312 68.9 69.1312 70.7 69.7312 72.4V78.5C69.7312 79 69.9312 79.4 70.4312 79.6C70.8312 79.8 71.3312 79.8 71.7312 79.6C72.1312 79.4 72.4312 79 72.4312 78.5V77.1C73.0312 77.9 73.6312 78.6 74.3312 79.3C77.9312 83 82.9312 85.3 88.2312 85.6V90.5C88.2312 93.6 85.6312 96.1 82.5312 96.1H24.9312C24.0312 96.1 23.2312 95.4 23.2312 94.4V9.4C23.2312 7.9 23.8312 6.5 24.9312 5.5C26.0312 4.5 27.4312 3.9 28.9312 3.9H64.5312V21.7C64.5312 23.1 65.1312 24.5 66.1312 25.5C67.1312 26.5 68.5312 27.1 70.0312 27.1C70.0312 27.1 88.1312 27.1 88.1312 27.1ZM68.5312 21.7V7.6L84.5312 23.2H70.0312C69.2312 23.2 68.6312 22.5 68.5312 21.7C68.5312 21.7 68.6312 21.7 68.5312 21.7Z" fill="black"/>
<path d="M90.1313 78.7L101.631 67.6C102.231 67 102.231 65.9 101.631 65.3C100.931 64.7 99.8313 64.7 99.2313 65.3L91.9313 72.3V53.9C91.8313 53 91.1313 52.4 90.2313 52.4C89.3313 52.4 88.6313 53 88.5313 53.9V72.2L81.7313 65.3C81.4313 65 80.9313 64.8 80.5313 64.8C80.0313 64.8 79.6313 65 79.3313 65.3C79.0313 65.6 78.8313 66 78.8313 66.5C78.8313 66.9 79.0313 67.4 79.3313 67.7C79.2313 67.6 90.1313 78.7 90.1313 78.7Z" fill="black"/>
</g>
<defs>
<clipPath id="clip0">
<rect width="130" height="100" fill="white"/>
</clipPath>
</defs>
</svg>
