<svg width="130" height="100" viewBox="0 0 130 100" fill="none" xmlns="http://www.w3.org/2000/svg">
<g clip-path="url(#clip0)">
<path d="M127.131 53L116.231 58.7C116.131 58.7 116.031 58.8 116.031 58.8C115.931 58.8 115.831 58.8 115.831 58.8C115.731 58.8 115.731 58.7 115.631 58.7C115.531 58.6 115.531 58.6 115.531 58.5L100.931 28.4C100.931 28.2 100.831 28.1 100.731 27.9L100.131 26.6C100.031 26.4 100.031 26.3 100.131 26.1C100.231 25.9 100.331 25.8 100.431 25.7L111.331 20C111.431 20 111.531 19.9 111.631 19.9C111.831 19.9 112.031 20 112.231 20.3L127.631 52.1C127.731 52.3 127.731 52.4 127.631 52.6C127.431 52.8 127.331 52.9 127.131 53ZM105.131 68.5C105.031 68.4 104.831 68.3 104.731 68.2L63.6314 42.8C61.1314 40.9 59.1314 41.8 58.3314 42.6C52.4314 47.5 44.7314 46 44.6314 46C43.4314 45.8 42.0314 45.3 41.7314 44.3C41.4314 43.3 42.3314 41.9 42.7314 41.4L57.2314 29.2C60.5314 27.1 66.3314 25.4 66.3314 25.4C73.5314 23.6 77.1314 25.1 79.5314 26.7C82.9314 28.9 86.6314 30.9 87.0314 31.1C92.6314 33.2 96.7314 31.6 98.8314 30.3L112.531 58.5C110.231 60 105.831 63.3 105.131 68.5ZM105.631 76.9C105.431 77.2 102.731 80.5 97.5314 77L88.0314 71C87.9314 70.9 87.8314 70.9 87.7314 70.9C87.6314 70.9 87.5314 70.9 87.4314 70.9C87.3314 70.9 87.2314 71 87.1314 71C87.0314 71.1 86.9314 71.1 86.9314 71.2C86.8314 71.4 86.8314 71.6 86.8314 71.8C86.8314 72 87.0314 72.2 87.2314 72.3L95.5314 77.6C95.9314 78.7 96.0314 79.8 95.8314 81C95.6314 82.1 95.1314 83.2 94.4314 84.1C92.0314 86.6 88.7314 84.5 88.5314 84.4L78.4314 78.3C78.3314 78.2 78.2314 78.2 78.1314 78.2C78.0314 78.2 77.9314 78.2 77.8314 78.2C77.7314 78.2 77.6314 78.3 77.5314 78.3C77.4314 78.4 77.4314 78.4 77.3314 78.5C77.2314 78.7 77.2314 78.9 77.2314 79.1C77.3314 79.3 77.4314 79.5 77.6314 79.6L84.2314 83.6C85.9314 86.4 84.0314 89.8 83.7314 90.2C83.1314 91 82.2314 91.5 81.2314 91.7C80.2314 91.9 79.2314 91.7 78.3314 91.2L69.7314 85.8C69.8314 85.9 69.7314 85.9 69.6314 85.9C69.5314 85.9 69.4314 85.9 69.3314 85.9C69.2314 85.9 69.1314 86 69.0314 86C68.9314 86.1 68.8314 86.1 68.8314 86.2C68.7314 86.4 68.7314 86.6 68.7314 86.8C68.7314 87 68.9314 87.2 69.1314 87.3L73.6314 90.1C74.7314 91.4 75.3314 92.8 75.2314 94.1C75.1314 95.3 74.6314 96.4 73.7314 97.3C70.5314 100 64.4314 95.7 63.2314 94.8L65.7314 90.3C66.6314 88.8 66.8314 87 66.3314 85.3C65.9314 83.6 64.8314 82.2 63.3314 81.2C62.6314 80.8 61.8314 80.5 60.9314 80.4C60.1314 80.3 59.2314 80.3 58.4314 80.6C58.2314 80.6 58.1314 80.7 57.9314 80.8C58.6314 79.3 58.8314 77.7 58.4314 76C58.0314 74.3 56.9314 72.9 55.4314 72C54.5314 71.5 53.4314 71.1 52.4314 71.1C51.3314 71.1 50.3314 71.3 49.3314 71.8C49.6314 70.6 49.7314 69.4 49.4314 68.2C49.2314 67.4 48.8314 66.6 48.3314 65.9C47.8314 65.2 47.1314 64.6 46.4314 64.2C45.1314 63.4 43.6314 63.2 42.1314 63.4C40.6314 63.6 39.3314 64.4 38.3314 65.6C38.2314 64.6 37.9314 63.6 37.3314 62.7C36.8314 61.8 36.0314 61.1 35.1314 60.6C34.4314 60.2 33.6314 59.9 32.7314 59.8C31.9314 59.7 31.0314 59.7 30.2314 60C29.4314 60.2 28.6314 60.6 28.0314 61.1C27.3314 61.6 26.8314 62.3 26.4314 63L25.0314 65.4C23.8314 61.2 19.6314 59 17.4314 58.1L31.6314 29.1C32.7314 30.3 34.8314 31.7 38.7314 31.7C39.2314 31.7 39.7314 31.7 40.2314 31.6C40.3314 31.6 43.3314 31.2 48.2314 28.2C50.2314 27 52.5314 27.1 55.3314 28.6L41.7314 40.2L41.6314 40.3C41.4314 40.5 39.5314 42.7 40.2314 44.9C40.7314 46.3 42.0314 47.2 44.3314 47.6C44.6314 47.7 52.8314 49.2 59.3314 43.8L59.4314 43.7C59.5314 43.6 60.6314 42.5 62.7314 44.1L103.931 69.6C104.331 69.9 108.131 72.4 105.631 76.9ZM61.1314 95C60.8314 95.6 60.4314 96.1 59.9314 96.5C59.4314 96.9 58.8314 97.2 58.2314 97.4C57.6314 97.6 56.9314 97.6 56.3314 97.5C55.7314 97.4 55.1314 97.2 54.5314 96.9C53.4314 96.2 52.6314 95.1 52.2314 93.8C51.9314 92.5 52.0314 91.2 52.7314 90L55.7314 84.6C56.0314 84 56.4314 83.5 56.9314 83.1C57.4314 82.7 58.0314 82.4 58.6314 82.2C59.8314 81.9 61.2314 82 62.3314 82.7C63.4314 83.4 64.2314 84.5 64.6314 85.8C64.9314 87.1 64.8314 88.4 64.1314 89.6L61.1314 95ZM48.0314 92.2C47.4314 92.4 46.7314 92.4 46.1314 92.3C45.5314 92.2 44.9314 92 44.3314 91.7C43.2314 91 42.4314 89.9 42.0314 88.6C41.7314 87.3 41.8314 86 42.5314 84.8L47.8314 75.3C48.2314 74.5 48.8314 73.9 49.6314 73.5C50.3314 73.1 51.2314 72.8 52.0314 72.8C52.8314 72.8 53.7314 73 54.4314 73.5C55.5314 74.2 56.3314 75.3 56.7314 76.6C57.0314 77.9 56.9314 79.2 56.2314 80.4L51.0314 89.9C50.7314 90.5 50.3314 91 49.8314 91.4C49.2314 91.7 48.6314 92 48.0314 92.2ZM34.0314 86.1C32.9314 85.4 32.1314 84.3 31.7314 83C31.3314 81.7 31.5314 80.4 32.2314 79.2L38.8314 67.4C39.1314 66.8 39.5314 66.3 40.0314 65.9C40.5314 65.5 41.1314 65.2 41.7314 65C42.3314 64.8 43.0314 64.8 43.6314 64.9C44.2314 65 44.8314 65.2 45.4314 65.5C46.5314 66.2 47.3314 67.3 47.7314 68.5C48.0314 69.8 47.9314 71.1 47.2314 72.3L40.6314 84.1C40.3314 84.7 39.9314 85.2 39.4314 85.6C38.9314 86 38.3314 86.3 37.7314 86.5C37.1314 86.7 36.4314 86.7 35.8314 86.6C35.2314 86.7 34.6314 86.5 34.0314 86.1ZM24.1314 80.2C23.0314 79.5 22.2314 78.4 21.8314 77.1C21.5314 75.8 21.6314 74.5 22.3314 73.3L27.6314 63.8C27.9314 63.2 28.3314 62.7 28.8314 62.3C29.3314 61.9 29.9314 61.6 30.5314 61.4C31.1314 61.2 31.8314 61.2 32.4314 61.3C33.0314 61.4 33.6314 61.6 34.2314 61.9C35.3314 62.6 36.1314 63.7 36.5314 65C36.8314 66.3 36.7314 67.6 36.0314 68.8L30.7314 78.3C30.4314 78.9 30.0314 79.4 29.5314 79.8C29.0314 80.2 28.4314 80.5 27.8314 80.7C27.2314 80.9 26.5314 80.9 25.9314 80.8C25.3314 80.7 24.6314 80.5 24.1314 80.2ZM14.6314 58C14.6314 58.1 14.5314 58.1 14.5314 58.2C14.4314 58.3 14.4314 58.3 14.3314 58.3C14.2314 58.3 14.1314 58.3 14.1314 58.3C14.0314 58.3 13.9314 58.3 13.9314 58.2L2.93137 52.5C2.83137 52.4 2.63137 52.3 2.63137 52.1C2.53137 51.9 2.63137 51.8 2.63137 51.6L18.2314 19.9C18.3314 19.8 18.4314 19.6 18.6314 19.6C18.7314 19.6 18.8314 19.6 18.8314 19.6C18.9314 19.6 19.0314 19.6 19.0314 19.7L29.9314 25.4C30.0314 25.4 30.0314 25.5 30.1314 25.6C30.2314 25.7 30.2314 25.7 30.2314 25.8C30.3314 26 30.2314 26.1 30.2314 26.3L14.6314 58ZM129.731 51L114.331 19.2C114.131 18.8 113.931 18.5 113.631 18.2C113.331 17.9 112.931 17.7 112.531 17.6C112.131 17.5 111.731 17.4 111.331 17.4C110.931 17.4 110.531 17.5 110.131 17.7L99.2314 23.4C98.4314 23.8 97.9314 24.5 97.6314 25.3C97.3314 26.1 97.4314 27 97.8314 27.8L98.3314 28.9C96.5314 30 92.9314 31.5 87.8314 29.7C87.4314 29.5 83.9314 27.6 80.6314 25.5C78.0314 23.8 73.8314 21.9 66.0314 23.9C65.8314 24 60.3314 25.5 56.8314 27.6C53.3314 25.5 50.2314 25.3 47.6314 26.8C43.0314 29.5 40.2314 30 40.2314 30C35.0314 30.4 33.1314 28.4 32.5314 27.5V27.4C32.9314 26.6 32.9314 25.8 32.7314 24.9C32.4314 24.1 31.9314 23.4 31.1314 23L20.2314 17.3C19.8314 17.1 19.4314 17 19.0314 17C18.6314 17 18.2314 17 17.8314 17.2C17.4314 17.3 17.0314 17.5 16.7314 17.8C16.4314 18.1 16.1314 18.4 16.0314 18.8L0.331371 50.5C-0.0686291 51.3 -0.0686292 52.1 0.131371 53C0.431371 53.8 1.03137 54.5 1.73137 54.9L12.6314 60.6C13.3314 61 14.1314 61.1 14.8314 60.9C15.5314 60.7 16.2314 60.2 16.6314 59.6C18.7314 60.4 23.5314 62.9 23.7314 67.7L21.0314 72.6C20.1314 74.1 19.9314 75.9 20.4314 77.6C20.8314 79.3 21.9314 80.7 23.4314 81.7C24.4314 82.3 25.6314 82.6 26.8314 82.6C28.0314 82.6 29.2314 82.2 30.1314 81.5C30.0314 82.7 30.3314 83.9 30.8314 85C31.4314 86.1 32.2314 87 33.3314 87.6C34.3314 88.2 35.4314 88.5 36.5314 88.5C37.9314 88.5 39.3314 88 40.4314 87.1C40.3314 89.5 41.5314 91.8 43.6314 93.1C44.7314 93.7 45.9314 94.1 47.1314 94C48.3314 93.9 49.5314 93.5 50.5314 92.8C50.6314 95 51.7314 97.1 53.7314 98.3C54.7314 98.9 55.8314 99.2 56.9314 99.2C58.9314 99.2 60.9314 98.2 62.1314 96.4C63.3314 97.3 67.2314 100 70.9314 100C72.2314 100 73.5314 99.6 74.5314 98.7C75.7314 97.6 76.5314 96.1 76.6314 94.4C76.6314 93.6 76.5314 92.8 76.3314 92.1L77.6314 92.9C78.5314 93.4 79.5314 93.7 80.6314 93.7C82.0314 93.7 83.6314 93.2 85.0314 91.5L85.1314 91.4C85.2314 91.2 87.0314 88.3 86.4314 85.2L87.8314 86C88.6314 86.5 90.0314 87.1 91.6314 87.1C92.3314 87.1 93.1314 87 93.8314 86.7C94.5314 86.4 95.1314 86 95.6314 85.4C95.7314 85.3 98.0314 82.8 97.5314 79C99.2314 80 100.731 80.4 102.031 80.4C105.331 80.4 107.031 78 107.031 77.9V77.8C108.931 74.5 108.031 71.7 106.731 70C106.731 64.9 111.131 61.5 113.531 60C113.831 60.4 114.231 60.8 114.631 61C115.031 61.2 115.531 61.4 116.131 61.4C116.631 61.4 117.131 61.3 117.531 61L128.431 55.3C129.231 54.9 129.731 54.2 130.031 53.4C130.131 52.6 130.031 51.7 129.731 51Z" fill="black"/>
</g>
<defs>
<clipPath id="clip0">
<rect width="130" height="100" fill="white"/>
</clipPath>
</defs>
</svg>
