<svg width="130" height="100" viewBox="0 0 130 100" fill="none" xmlns="http://www.w3.org/2000/svg">
<g clip-path="url(#clip0)">
<path d="M111.77 61C110.77 59.4 109.17 58.3 107.37 57.8C106.77 57.7 106.17 57.6 105.57 57.6C104.27 57.6 103.07 57.9 101.97 58.6L79.2703 70.3C79.1703 70.4 79.0703 70.5 78.9703 70.6L78.7703 70.8C79.9703 69.6 80.6703 67.9 80.6703 66.2C80.5703 64.4 79.8703 62.6 78.5703 61.3C77.1703 60 75.3703 59.3 73.5703 59.4H47.2703C45.7703 59.4 44.1703 59.8 42.8703 60.5C42.8703 60.5 42.8703 60.5 42.7703 60.5L27.2703 69.4L26.9703 68.8C26.1703 67.4 24.5703 66.9 23.2703 67.6L18.5703 70.1C17.2703 70.8 16.8703 72.5 17.5703 73.8L31.2703 98.5C32.0703 99.9 33.6703 100.4 34.9703 99.7L39.6703 97.2C40.9703 96.5 41.3703 94.8 40.6703 93.5L39.9703 92.1L44.5703 89.3C46.0703 88.5 47.8703 88 49.5703 88H73.2703C74.8703 88 76.5703 87.6 77.9703 86.8L109.17 70.2C111.37 69 112.77 66.8 112.77 64.3C112.67 63.2 112.37 62 111.77 61ZM37.1703 95.3L34.8703 96.6C34.1703 96.9 33.3703 96.7 32.9703 96L20.6703 73.8C20.2703 73.1 20.4703 72.3 21.1703 71.9L23.4703 70.6C24.0703 70.3 24.9703 70.5 25.3703 71.2L37.6703 93.4C37.9703 94.2 37.7703 95 37.1703 95.3ZM107.77 68L76.6703 84.6C75.6703 85.2 74.4703 85.4 73.2703 85.4H49.5703C47.2703 85.4 45.0703 86 43.1703 87L39.1703 89.4L28.9703 71.4L44.1703 62.7C45.1703 62.2 46.2703 62 47.3703 62H73.4703C74.6703 62 75.7703 62.4 76.5703 63.1C77.3703 63.9 77.8703 65 77.9703 66.1C77.8703 67.2 77.4703 68.3 76.5703 69.1C75.7703 69.9 74.5703 70.3 73.4703 70.3H54.9703C54.2703 70.3 53.5703 70.6 53.0703 71.1C52.5703 71.6 52.2703 72.3 52.2703 73C52.2703 73.7 52.5703 74.4 53.0703 74.9C53.5703 75.4 54.2703 75.7 54.9703 75.7H73.4703C76.1703 75.7 78.8703 74.6 80.7703 72.7L103.27 61C103.97 60.6 104.77 60.4 105.57 60.4C105.97 60.4 106.37 60.5 106.77 60.5C107.97 60.8 108.87 61.5 109.47 62.5C109.87 63.1 110.07 63.8 110.07 64.5C109.97 65.9 109.17 67.3 107.77 68Z" fill="black"/>
<path d="M74.7703 42.3C73.0703 44.3 70.4703 45.6 67.6703 46.1V50.4C67.6703 51.7 66.6703 52.7 65.3703 52.7C64.0703 52.7 63.0703 51.7 63.0703 50.4V46.1C59.9703 45.7 56.9703 44.6 54.0703 42.8C52.9703 42.1 52.6703 40.7 53.4703 39.6C54.2703 38.5 55.5703 38.2 56.6703 39C62.4703 42.8 69.0703 42.2 71.2703 39.5C72.8703 37.6 72.8703 34.1 71.1703 31.9C69.7703 30 67.3703 29.5 64.6703 28.9C61.4703 28.3 57.7703 27.6 55.2703 24.1C52.5703 20.3 52.5703 14.7 55.3703 11.1C56.9703 9 59.6703 7.6 62.6703 7.1V2.3C62.6703 1 63.6703 0 64.9703 0C66.2703 0 67.2703 1 67.2703 2.3V7C70.1703 7.5 72.9703 8.7 75.4703 10.6C76.4703 11.4 76.5703 12.9 75.8703 13.8C75.0703 14.8 73.5703 14.9 72.6703 14.2C70.4703 12.4 67.7703 11.4 65.1703 11.4C64.7703 11.4 64.3703 11.4 63.9703 11.5C61.9703 11.8 60.1703 12.6 59.2703 13.8C57.7703 15.7 57.7703 19.1 59.3703 21.2C60.7703 23.1 63.0703 23.6 65.8703 24.2C69.0703 24.8 72.7703 25.5 75.2703 28.9C77.6703 32.9 77.6703 38.7 74.7703 42.3Z" fill="black"/>
</g>
<defs>
<clipPath id="clip0">
<rect width="130" height="100" fill="white"/>
</clipPath>
</defs>
</svg>
