<svg width="130" height="100" viewBox="0 0 130 100" fill="none" xmlns="http://www.w3.org/2000/svg">
<path d="M46.3532 98.8C47.0532 99.5 48.0532 100 49.0532 100C50.0532 100 51.0532 99.6 51.7532 98.8L58.6532 91.6C59.8532 90.3 60.0532 88.3 59.0532 86.8L61.7532 83.8C65.3532 83.8 76.3532 83.4 83.2532 75.7H86.8532C89.2532 75.7 91.5532 74.6 93.1532 72.7C95.3532 73.6 97.9532 73.2 99.7532 71.7L104.453 67.7C107.153 65.4 107.453 61.4 105.153 58.7C104.453 57.9 103.553 57.2 102.553 56.9L103.553 56C105.253 54.5 106.053 52.3 105.653 50C105.253 47.8 103.653 45.9 101.553 45.2L103.153 43.9C105.053 42.3 105.753 39.8 105.153 37.4C104.553 35 102.553 33.2 100.153 32.8L101.653 31.5C103.653 29.8 104.353 27.1 103.553 24.7C102.753 22.2 100.553 20.5 97.9532 20.3C96.8532 20.2 95.7532 20.4 94.7532 20.9V8.1C94.7532 3.6 91.1532 0 86.6532 0H60.1532C55.6532 0 52.0532 3.6 52.0532 8.1V19.8C50.8532 19.6 49.6532 19.9 48.6532 20.5C45.6532 22.4 45.0532 27.1 45.0532 28.4C44.9532 28.8 42.4532 37.8 41.0532 41.8C39.8532 44.7 39.2532 49.6 39.2532 56.7C39.2532 56.7 39.0532 58.8 35.1532 63.1C33.7532 62.7 32.2532 63 31.2532 64L24.3532 71C22.9532 72.5 22.9532 74.8 24.3532 76.3L46.3532 98.8ZM26.0532 72.7L32.9532 65.9C33.2532 65.6 33.5532 65.5 33.9532 65.5C34.3532 65.5 34.6532 65.7 34.9532 65.9L56.9532 88.1C57.2532 88.4 57.3532 88.7 57.3532 89.1C57.3532 89.5 57.1532 89.8 56.9532 90.1L49.9532 97.2C49.7532 97.5 49.3532 97.6 48.9532 97.6C48.5532 97.6 48.2532 97.5 47.9532 97.2L26.0532 74.6C25.5532 74.1 25.5532 73.2 26.0532 72.7ZM99.0532 36H99.3532C100.553 36.1 101.553 37 101.953 38.1C102.353 39.3 101.953 40.5 101.053 41.3L96.3532 45.3C95.0532 46.1 93.3532 45.8 92.3532 44.7C91.3532 43.5 91.3532 41.8 92.4532 40.7L97.1532 36.7C97.6532 36.3 98.3532 36 99.0532 36ZM102.253 65.2L97.4532 69.3C96.1532 70.1 94.4532 69.8 93.4532 68.7C92.4532 67.5 92.4532 65.8 93.5532 64.7L98.2532 60.7C98.7532 60.2 99.4532 60 100.153 60H100.453C101.653 60.1 102.753 60.9 103.153 62.1C103.553 63.1 103.253 64.4 102.253 65.2ZM90.0532 72C89.1532 72.7 87.9532 73.1 86.7532 73.1H59.6532L59.9532 72.1L90.0532 72ZM87.9532 42.6C87.7532 45.4 89.3532 48.1 92.0532 49.1L90.4532 50.4C88.7532 51.9 87.8532 54.1 88.2532 56.4C88.6532 58.6 90.2532 60.5 92.3532 61.3L91.3532 62.2C89.1532 64.1 88.4532 67.3 89.8532 70H60.5532C63.9532 56.1 58.8532 47.6 56.9532 45C62.7532 28.9 56.9532 22.6 54.7532 20.9V8.5H92.2532V36.5L90.3532 38.2C88.8532 39.3 88.0532 40.9 87.9532 42.6ZM96.5532 57.6C95.2532 58.4 93.5532 58.2 92.5532 57C91.5532 55.8 91.6532 54.1 92.6532 53L97.3532 49C97.8532 48.5 98.5532 48.3 99.2532 48.3H99.5532C100.753 48.4 101.853 49.2 102.153 50.4C102.553 51.6 102.153 52.8 101.253 53.6L96.5532 57.6ZM53.4532 44.7L53.0532 45.7L53.7532 46.5C54.0532 46.9 61.9532 55.7 56.2532 72.6C56.1532 72.9 56.0532 73.1 55.9532 73.3C55.8532 73.5 55.7532 73.7 55.6532 73.9L55.5532 74.2L55.7532 74.4C56.9532 75.5 58.5532 76.1 60.1532 75.9H78.4532C71.3532 81.2 61.2532 80.6 61.1532 80.6H60.3532L56.7532 84.5L37.7532 65.3C42.2532 60.2 42.5532 57.5 42.5532 56.8C42.5532 47.4 43.0532 46 43.6532 44.1V43.8C43.8532 43.2 48.1532 29.7 48.2532 29.2V28.8C48.2532 27.1 48.9532 24.2 50.3532 23.3C50.9532 22.9 51.7532 22.9 52.4532 23.2C52.7532 23.6 59.6532 28.3 53.4532 44.7ZM97.8532 23.6C99.0532 23.7 100.153 24.5 100.453 25.7C100.853 26.9 100.453 28.1 99.5532 28.9L94.8532 33V25L95.6532 24.3C96.2532 23.8 97.0532 23.5 97.8532 23.6ZM54.9532 6.4C55.6532 4.2 57.8532 2.7 60.1532 2.7H86.8532C89.1532 2.7 91.1532 4.2 91.9532 6.4H54.9532Z" fill="black"/>
<path d="M76.6531 3.5H70.1531C69.7531 3.4 69.2531 3.5 69.0531 3.9C68.8531 4.3 68.8531 4.7 69.0531 5.1C69.2531 5.5 69.7531 5.6 70.1531 5.5H76.5531C76.9531 5.6 77.4531 5.5 77.6531 5.1C77.8531 4.7 77.8531 4.3 77.6531 3.9C77.4531 3.6 77.0531 3.4 76.6531 3.5Z" fill="black"/>
<path d="M81.9532 6.4C83.0026 6.4 83.8532 5.54934 83.8532 4.5C83.8532 3.45066 83.0026 2.6 81.9532 2.6C80.9039 2.6 80.0532 3.45066 80.0532 4.5C80.0532 5.54934 80.9039 6.4 81.9532 6.4Z" fill="black"/>
<path d="M85.853 36.4C85.053 36.4 84.153 36.5 83.353 36.8V43.3H85.153V38.2C85.453 38.2 85.753 38.2 86.053 38.2C86.353 38.2 86.753 38.2 87.053 38.3L87.553 36.6C86.953 36.4 86.453 36.4 85.853 36.4Z" fill="black"/>
<path d="M79.353 41.2L82.353 39.7C82.353 37.5 81.253 36.3 79.253 36.3C77.253 36.3 76.153 37.5 76.153 39.7V39.9C76.053 40.9 76.353 41.8 77.053 42.5C77.753 43.2 78.753 43.5 79.653 43.3C80.553 43.3 81.453 43.2 82.353 42.9L81.853 41.3C81.153 41.5 80.453 41.6 79.753 41.6C78.753 41.6 78.153 41.1 78.153 39.8C78.153 38.5 78.653 38 79.453 38C80.253 38 80.753 38.2 80.653 38.7L78.753 39.7L79.353 41.2Z" fill="black"/>
<path d="M75.4532 41.3C75.0532 41.6 74.5532 41.7 73.9532 41.7C73.4532 41.7 73.1532 41.4 73.1532 40.8V38.2H75.4532V36.5H73.2532V33.7L71.4532 34.7V40.9C71.3532 41.6 71.6532 42.3 72.1532 42.8C72.6532 43.3 73.3532 43.6 74.0532 43.5C74.8532 43.5 75.5532 43.2 76.2532 42.8L75.4532 41.3Z" fill="black"/>
<path d="M62.6532 36.5H60.7532V43.2H62.6532V36.5Z" fill="black"/>
<path d="M67.1531 36.4C66.1531 36.4 65.1531 36.5 64.1531 36.8V43.3H65.9531V38.2C66.2531 38.2 66.6531 38.2 67.0531 38.2C67.9531 38.2 68.3531 38.6 68.3531 39.3V43.3H70.1531V39.4C70.2531 38.6 69.9531 37.8 69.3531 37.2C68.8531 36.6 68.0531 36.3 67.1531 36.4Z" fill="black"/>
</svg>
