<svg width="130" height="101" viewBox="0 0 130 101" fill="none" xmlns="http://www.w3.org/2000/svg">
<g clip-path="url(#clip0)">
<path d="M75.0001 0.5H39.0001C33.8001 0.5 29.6001 4.7 29.6001 9.9V94.9C29.6001 98 32.1001 100.5 35.2001 100.5H90.9001C96.1001 100.5 100.4 96.3 100.4 91V25.5L75.3001 0.8L75.0001 0.5ZM78.8001 27.6H96.3001V91.1C96.3001 94.2 93.8001 96.7 90.7001 96.7H35.1001C34.2001 96.7 33.4001 96 33.4001 95V10C33.4001 8.5 34.0001 7.1 35.0001 6.1C36.0001 5.1 37.5001 4.5 38.9001 4.5H73.5001V22.3C73.5001 23.7 74.1001 25.1 75.1001 26.1C76.1001 27 77.4001 27.5 78.8001 27.6ZM77.4001 22.2V8.1L92.9001 23.7H78.9001C78.1001 23.6 77.4001 23 77.4001 22.2Z" fill="black"/>
<path d="M72.4001 62.8C71.1001 64.4 69.1001 65.4 66.9001 65.7V69C66.9001 70 66.1001 70.8 65.1001 70.8C64.1001 70.8 63.3001 70 63.3001 69V65.7C61.0001 65.4 58.6001 64.6 56.4001 63.1C55.5001 62.5 55.3001 61.5 55.9001 60.6C56.5001 59.7 57.5001 59.5 58.4001 60.1C62.9001 63 67.9001 62.6 69.6001 60.5C70.8001 59 70.8001 56.4 69.5001 54.7C68.4001 53.2 66.6001 52.9 64.5001 52.4C62.0001 51.9 59.2001 51.4 57.3001 48.7C55.2001 45.8 55.2001 41.5 57.4001 38.8C58.6001 37.2 60.7001 36.1 63.0001 35.7V32.1C63.0001 31.1 63.8001 30.3 64.8001 30.3C65.8001 30.3 66.6001 31.1 66.6001 32.1V35.7C68.8001 36.1 71.0001 37 72.9001 38.5C73.7001 39.1 73.8001 40.3 73.2001 41C72.6001 41.8 71.4001 41.9 70.7001 41.3C69.0001 40 66.9001 39.2 64.9001 39.2C64.6001 39.2 64.3001 39.2 64.0001 39.3C62.4001 39.5 61.1001 40.2 60.4001 41.1C59.3001 42.6 59.3001 45.1 60.5001 46.8C61.6001 48.3 63.3001 48.6 65.5001 49.1C68.0001 49.6 70.8001 50.1 72.7001 52.7C74.7001 55.5 74.7001 60 72.4001 62.8Z" fill="black"/>
</g>
<defs>
<clipPath id="clip0">
<rect width="130" height="100" fill="white" transform="translate(0 0.5)"/>
</clipPath>
</defs>
</svg>
