<svg width="130" height="101" viewBox="0 0 130 101" fill="none" xmlns="http://www.w3.org/2000/svg">
<g clip-path="url(#clip0)">
<path d="M75.3008 45.6467C66.2008 45.6467 58.8008 53.0467 58.8008 62.2467C58.8008 71.4467 66.2008 78.8467 75.3008 78.8467C84.4008 78.8467 91.8008 71.4467 91.8008 62.2467C91.8008 53.1467 84.5008 45.7467 75.3008 45.6467ZM75.3008 77.1467C67.2008 77.1467 60.6008 70.5467 60.6008 62.3467C60.6008 54.1467 67.2008 47.4467 75.3008 47.4467C83.4008 47.4467 90.0008 54.0467 90.0008 62.2467C90.0008 70.4467 83.4008 77.0467 75.3008 77.1467Z" fill="black"/>
<path d="M95.5008 77.3467C95.2008 76.9467 94.7008 76.7467 94.2008 76.7467C93.7008 76.7467 93.2008 76.9467 92.9008 77.3467L92.5008 77.7467L90.6008 75.8467C95.8008 70.0467 97.2008 61.7467 94.2008 54.5467C91.3008 47.3467 84.5008 42.4467 76.8008 41.8467V21.8467L55.5008 0.746716L55.3008 0.446716H24.4008C19.9008 0.446716 16.3008 4.04672 16.3008 8.54672V81.5467C16.3008 84.1467 18.4008 86.3467 21.1008 86.3467H68.8008C71.5008 86.3467 74.1008 84.9467 75.5008 82.6467C80.5008 82.6467 85.3008 80.7467 88.9008 77.3467L90.8008 79.2467L90.6008 79.4467C90.2008 79.8467 90.0008 80.3467 90.0008 80.8467C90.0008 81.3467 90.2008 81.8467 90.6008 82.2467L107.601 99.3467C108.501 100.347 109.801 100.747 111.101 100.347C112.401 100.047 113.301 99.0467 113.601 97.7467C113.901 96.4467 113.501 95.1467 112.601 94.2467L95.5008 77.3467ZM58.5008 23.7467H73.5008V41.9467C63.6008 43.0467 56.0008 51.2467 55.5008 61.1467C54.9008 71.1467 61.6008 80.0467 71.3008 82.2467C70.6008 82.7467 69.7008 82.9467 68.8008 82.9467H21.1008C20.3008 82.9467 19.7008 82.3467 19.7008 81.5467V8.54672C19.7008 5.94672 21.8008 3.74672 24.4008 3.74672H54.0008V19.0467C54.0008 20.2467 54.5008 21.4467 55.3008 22.3467C56.2008 23.2467 57.3008 23.7467 58.5008 23.7467ZM93.4008 62.2467C93.4008 72.2467 85.3008 80.3467 75.3008 80.3467C65.3008 80.3467 57.2008 72.2467 57.2008 62.2467C57.2008 52.2467 65.3008 44.1467 75.3008 44.1467C85.3008 44.1467 93.4008 52.2467 93.4008 62.2467ZM57.3008 19.1467V7.04672L70.5008 20.4467H58.5008C58.2008 20.4467 57.9008 20.3467 57.6008 20.0467C57.3008 19.7467 57.3008 19.4467 57.3008 19.1467Z" fill="black"/>
<path d="M76.1007 49.3467C72.0007 49.2467 68.1007 50.9467 65.5007 54.0467C63.4007 56.5467 62.4007 59.8467 62.7007 63.0467C62.7007 63.5467 63.1007 63.9467 63.6007 63.9467C64.1007 63.9467 64.5007 63.5467 64.5007 63.0467C64.3007 60.2467 65.2007 57.4467 67.0007 55.2467C69.3007 52.6467 72.6007 51.1467 76.1007 51.1467C76.3007 51.1467 76.6007 51.0467 76.7007 50.9467C77.0007 50.7467 77.1007 50.3467 76.9007 49.9467C76.8007 49.6467 76.5007 49.3467 76.1007 49.3467Z" fill="black"/>
<path d="M51.3007 55.6467C50.1007 57.1467 48.2007 58.0467 46.2007 58.3467V61.4467C46.2007 62.3467 45.5007 63.1467 44.5007 63.1467C43.6007 63.1467 42.8007 62.4467 42.8007 61.4467V58.4467C40.6007 58.1467 38.4007 57.3467 36.3007 56.0467C35.5007 55.5467 35.3007 54.5467 35.8007 53.7467C36.3007 52.9467 37.3007 52.7467 38.1007 53.2467C42.3007 55.9467 47.1007 55.5467 48.7007 53.5467C49.8007 52.1467 49.8007 49.6467 48.6007 48.0467C47.6007 46.6467 45.9007 46.3467 43.9007 45.9467C41.6007 45.4467 38.9007 45.0467 37.1007 42.4467C35.2007 39.7467 35.2007 35.6467 37.2007 33.0467C38.3007 31.5467 40.3007 30.5467 42.5007 30.1467V26.7467C42.5007 25.8467 43.2007 25.0467 44.2007 25.0467C45.1007 25.0467 45.9007 25.7467 45.9007 26.7467V30.1467C48.0007 30.4467 50.0007 31.3467 51.8007 32.7467C52.5007 33.3467 52.6007 34.4467 52.1007 35.0467C51.5007 35.7467 50.4007 35.8467 49.8007 35.3467C48.2007 34.0467 46.3007 33.3467 44.4007 33.3467C44.1007 33.3467 43.8007 33.3467 43.5007 33.4467C42.0007 33.6467 40.8007 34.2467 40.1007 35.1467C39.0007 36.5467 39.0007 38.9467 40.2007 40.4467C41.2007 41.8467 42.9007 42.1467 44.9007 42.5467C47.2007 43.0467 49.9007 43.4467 51.7007 45.9467C53.5007 48.8467 53.5007 53.0467 51.3007 55.6467Z" fill="black"/>
</g>
<defs>
<clipPath id="clip0">
<rect width="130" height="100" fill="white" transform="translate(0 0.5)"/>
</clipPath>
</defs>
</svg>
