<svg width="130" height="101" viewBox="0 0 130 101" fill="none" xmlns="http://www.w3.org/2000/svg">
<g clip-path="url(#clip0)">
<path d="M73.4999 0.25L107.6 33.55V88.55C107.6 94.95 102.3 100.25 95.6999 100.25H34.2999C27.6999 100.25 22.3999 95.05 22.3999 88.55V11.95C22.3999 5.45 27.6999 0.25 34.2999 0.25H73.4999Z" fill="#E94848"/>
<path d="M63.7 36.65C61.5 36.65 59.5999 38.45 59.5999 40.65C59.5999 43.45 61.1999 46.85 62.7999 50.05C61.4999 53.95 60.1 58.25 58.2 61.75C54.4 63.25 51 64.35 49 65.95L48.9 66.05C48.1 66.85 47.7 67.85 47.7 68.95C47.7 71.15 49.5999 72.95 51.7999 72.95C52.8999 72.95 54 72.55 54.7 71.75C54.7 71.75 54.7999 71.75 54.7999 71.65C56.2999 69.85 58.0999 66.65 59.5999 63.75C63.1999 62.35 66.9999 60.95 70.6999 60.05C73.3999 62.15 77.3 63.55 80.4 63.55C82.6 63.55 84.5 61.75 84.5 59.55C84.5 57.35 82.6 55.55 80.4 55.55C77.8 55.55 74.1 56.45 71.3 57.35C69 55.25 67 52.65 65.4 49.85C66.5 46.55 67.8 43.25 67.8 40.65C67.8 38.45 65.9 36.65 63.7 36.65ZM63.7 39.05C64.6 39.05 65.3 39.75 65.3 40.65C65.3 41.85 64.6 44.05 63.9 46.45C62.9 44.15 62 41.85 62 40.65C62.1 39.75 62.8 39.05 63.7 39.05ZM64.4 52.85C65.6 54.75 67.0999 56.55 68.5999 58.15C66.1999 58.85 63.8 59.65 61.5 60.55C62.6 58.05 63.5 55.45 64.4 52.85ZM80.5 58.05C81.4 58.05 82.0999 58.75 82.0999 59.65C82.0999 60.55 81.4 61.25 80.5 61.25C78.7 61.25 76 60.45 73.9 59.25C76.3 58.65 79 58.05 80.5 58.05ZM56 65.25C54.8 67.25 53.7 69.15 52.9 70.15C52.6 70.45 52.1999 70.55 51.7999 70.55C50.8999 70.55 50.2 69.85 50.2 68.95C50.2 68.55 50.3999 68.15 50.5999 67.85C51.5999 67.05 53.7 66.25 56 65.25Z" fill="white"/>
<path d="M107.6 34.35H85.8001C79.1001 34.35 73.1001 28.45 73.1001 21.85V0.25L107.6 34.35Z" fill="#C53C3C"/>
</g>
<defs>
<clipPath id="clip0">
<rect width="130" height="100" fill="white" transform="translate(0 0.25)"/>
</clipPath>
</defs>
</svg>
