<svg width="130" height="101" viewBox="0 0 130 101" fill="none" xmlns="http://www.w3.org/2000/svg">
<g clip-path="url(#clip0)">
<path d="M85.1499 0.400002H44.75C36.55 0.400002 29.95 6.8 29.95 14.7V86.2C29.95 94.1 36.55 100.5 44.75 100.5H85.25C93.35 100.5 100.05 94.1 100.05 86.2V14.7C99.9499 6.8 93.3499 0.400002 85.1499 0.400002ZM44.75 5.3H85.25C90.25 5.3 94.35 8.9 94.85 13.6H35.15C35.65 9 39.75 5.3 44.75 5.3ZM94.85 86.1C94.85 91.3 90.5499 95.4 85.1499 95.4H44.75C39.45 95.4 35.0499 91.2 35.0499 86.1V83.3H94.85V86.1V86.1ZM94.85 78.4H35.0499V18.5H94.85V78.4Z" fill="black"/>
<path d="M64.9501 93.6C62.6501 93.6 60.8501 91.7 60.8501 89.5C60.8501 87.3 62.6501 85.4 64.9501 85.4C67.2501 85.4 69.0501 87.3 69.0501 89.5C69.0501 91.7 67.2501 93.6 64.9501 93.6ZM64.9501 87.4C63.7501 87.4 62.8501 88.4 62.8501 89.5C62.8501 90.6 63.8501 91.6 64.9501 91.6C66.0501 91.6 67.0501 90.6 67.0501 89.5C67.0501 88.4 66.1501 87.4 64.9501 87.4Z" fill="black"/>
</g>
<defs>
<clipPath id="clip0">
<rect width="130" height="100" fill="white" transform="translate(0 0.5)"/>
</clipPath>
</defs>
</svg>
