<svg width="130" height="101" viewBox="0 0 130 101" fill="none" xmlns="http://www.w3.org/2000/svg">
<g clip-path="url(#clip0)">
<path d="M93.35 25.5609C98.05 25.5609 101.85 29.1609 101.85 33.5609V86.2609C101.85 90.0609 98.75 93.1609 94.95 93.1609H88.65V98.2609C88.65 99.3609 87.75 100.261 86.65 100.261C85.55 100.261 84.65 99.3609 84.65 98.2609V93.0609H45.35V98.2609C45.35 99.3609 44.45 100.261 43.35 100.261C42.25 100.261 41.35 99.3609 41.35 98.2609V93.0609H36.65C31.95 93.0609 28.15 89.4609 28.15 85.0609V32.4609C28.15 28.6609 31.25 25.5609 35.05 25.5609H93.35ZM98.45 86.1609V33.5609C98.45 31.0609 96.15 29.0609 93.35 29.0609H35.15C33.25 29.0609 31.75 30.5609 31.75 32.4609V85.1609C31.75 87.6609 34.05 89.6609 36.85 89.6609H95.05C96.85 89.6609 98.45 88.0609 98.45 86.1609ZM91.95 33.6609C92.95 33.6609 93.75 34.4609 93.75 35.4609V83.1609C93.75 84.1609 92.95 84.9609 91.95 84.9609H38.65C37.65 84.9609 36.85 84.1609 36.85 83.1609V35.4609C36.85 34.4609 37.65 33.6609 38.65 33.6609H91.95ZM39.05 82.7609H91.55V35.8609H39.05V82.7609ZM65.05 73.3609C57.25 73.3609 50.95 67.0609 50.95 59.2609C50.95 51.5609 57.25 45.2609 65.05 45.2609C72.85 45.2609 79.15 51.5609 79.15 59.3609C79.15 67.0609 72.85 73.3609 65.05 73.3609ZM65.05 47.5609C58.55 47.5609 53.25 52.8609 53.25 59.2609C53.25 65.6609 58.55 71.0609 65.05 71.0609C71.55 71.0609 76.85 65.7609 76.85 59.3609C76.85 52.8609 71.55 47.5609 65.05 47.5609ZM61.05 63.8609C61.95 64.3609 62.95 64.6609 64.15 64.7609V59.8609C62.45 59.5609 59.75 58.7609 59.75 55.7609C59.75 53.4609 61.35 52.0609 64.15 51.8609V51.2609C64.15 50.7609 64.55 50.3609 65.05 50.3609C65.55 50.3609 65.95 50.7609 65.95 51.2609V51.9609C67.25 52.0609 68.45 52.4609 69.55 53.0609C69.75 53.1609 69.95 53.3609 70.05 53.6609C70.15 53.9609 70.05 54.1609 69.95 54.3609C69.65 54.8609 69.05 54.9609 68.65 54.7609C67.85 54.2609 66.95 53.9609 66.05 53.8609V58.2609C68.35 58.8609 70.55 59.8609 70.55 62.8609C70.55 64.9609 68.85 66.4609 66.05 66.7609V67.4609C66.05 67.9609 65.55 68.3609 65.05 68.3609C64.55 68.3609 64.15 67.9609 64.15 67.4609V66.8609C62.75 66.7609 61.35 66.3609 60.15 65.7609C59.95 65.6609 59.75 65.4609 59.65 65.1609C59.55 64.8609 59.65 64.6609 59.75 64.3609C59.95 63.7609 60.55 63.6609 61.05 63.8609ZM61.75 55.7609C61.75 56.9609 62.65 57.5609 64.15 57.8609V53.8609C62.95 53.9609 61.75 54.4609 61.75 55.7609ZM65.95 60.3609V64.8609C67.45 64.6609 68.45 63.8609 68.45 62.9609C68.55 61.5609 67.85 60.8609 65.95 60.3609ZM82.85 0.260944L91.15 1.06094L90.15 9.16094C90.15 9.56094 89.95 9.86094 89.65 10.0609C89.45 10.2609 89.15 10.3609 88.85 10.3609C88.05 10.3609 87.45 9.76094 87.45 8.96094C87.45 8.86094 87.45 8.86094 87.45 8.76094L87.85 4.96094C74.55 16.8609 62.25 20.5609 52.35 20.5609C46.05 20.5609 39.85 19.1609 34.25 16.3609C33.65 16.0609 33.45 15.2609 33.75 14.6609C34.05 14.1609 34.75 13.8609 35.35 14.1609C56.65 24.4609 75.85 12.3609 86.25 3.26094L82.65 2.96094C82.25 2.96094 81.95 2.76094 81.75 2.46094C81.55 2.16094 81.45 1.86094 81.45 1.46094C81.45 0.760944 82.05 0.160944 82.85 0.260944Z" fill="black"/>
</g>
<defs>
<clipPath id="clip0">
<rect width="130" height="100" fill="white" transform="translate(0 0.25)"/>
</clipPath>
</defs>
</svg>
