<svg width="130" height="101" viewBox="0 0 130 101" fill="none" xmlns="http://www.w3.org/2000/svg">
<g clip-path="url(#clip0)">
<path d="M113.95 98.05H107.15V51.25C111.05 48.85 113.45 44.65 113.45 40.15V31.05L98.8501 0.350006H31.25L16.65 30.95V40.05C16.65 43.15 17.85 46.25 19.85 48.65V98.05H16.15C15.55 98.05 15.05 98.55 15.05 99.15C15.05 99.75 15.55 100.25 16.15 100.25H113.85C114.45 100.25 114.95 99.75 114.95 99.15C114.95 98.55 114.55 98.05 113.95 98.05ZM32.65 2.65001H48.05L40.75 20.15C40.55 20.55 40.75 20.95 41.15 21.05C41.55 21.15 41.95 21.05 42.05 20.65L49.55 2.55001H64.3501V20.35C64.3501 20.75 64.65 21.05 65.05 21.05C65.45 21.05 65.75 20.75 65.75 20.35V2.65001H80.55L88.05 20.65C88.15 21.05 88.6501 21.15 88.9501 20.95C89.3501 20.85 89.4501 20.45 89.3501 20.05L82.05 2.65001H97.4501L110.55 28.75H19.55L32.65 2.65001ZM18.85 40.15V31.05H111.15V40.15C111.15 46.05 106.35 50.85 100.45 50.85C94.5501 50.85 89.75 46.05 89.75 40.15C89.75 39.55 89.25 39.05 88.65 39.05C88.05 39.05 87.55 39.55 87.55 40.15C87.55 43.05 86.3501 45.75 84.4501 47.65C82.4501 49.65 79.8501 50.85 76.8501 50.85C70.9501 50.85 66.15 46.05 66.15 40.15C66.15 39.55 65.5501 39.05 64.9501 39.05C64.3501 39.05 63.95 39.55 63.85 40.15C63.85 46.05 59.05 50.85 53.15 50.85C47.25 50.85 42.4501 46.05 42.4501 40.15C42.4501 39.55 41.95 39.05 41.35 39.05C40.75 39.05 40.25 39.55 40.25 40.15C40.25 46.05 35.45 50.85 29.55 50.85C26.75 50.85 24.15 49.75 22.15 47.85V47.65H21.95C19.95 45.55 18.85 42.85 18.85 40.15ZM55.75 98.05H27.95V60.25C27.95 59.75 28.35 59.35 28.85 59.35H54.85C55.35 59.35 55.75 59.75 55.75 60.25V98.05V98.05ZM104.95 98.05H57.9501V60.25C57.9501 58.55 56.55 57.15 54.85 57.15H28.85C27.15 57.15 25.75 58.55 25.75 60.25V98.15H22.15V50.75C24.35 52.25 26.95 53.15 29.55 53.15C34.75 53.15 39.35 49.95 41.35 45.45C43.45 50.15 48.05 53.15 53.15 53.15C58.35 53.15 62.9501 49.95 64.9501 45.45C67.0501 50.15 71.65 53.15 76.75 53.15C82.05 53.15 86.55 49.95 88.55 45.45C91.35 51.65 98.35 54.65 104.75 52.35V98.05H104.95Z" fill="black"/>
<path d="M97.05 85.55L92.35 90.25C92.05 90.55 91.65 90.55 91.35 90.25C91.05 89.95 91.05 89.55 91.35 89.25L96.05 84.45C96.35 84.15 96.75 84.15 97.05 84.45C97.35 84.85 97.35 85.25 97.05 85.55Z" fill="black"/>
<path d="M97.05 74.45L81.35 90.25C81.05 90.55 80.65 90.55 80.35 90.25C80.05 89.95 80.05 89.55 80.35 89.25L96.05 73.55C96.35 73.25 96.75 73.25 97.05 73.55C97.35 73.85 97.35 74.25 97.05 74.45Z" fill="black"/>
</g>
<defs>
<clipPath id="clip0">
<rect width="130" height="100" fill="white" transform="translate(0 0.25)"/>
</clipPath>
</defs>
</svg>
