<svg width="130" height="101" viewBox="0 0 130 101" fill="none" xmlns="http://www.w3.org/2000/svg">
<g clip-path="url(#clip0)">
<path d="M102.9 94.15C101.9 94.15 101 93.35 101 92.25V91.55C100 91.35 99.0001 90.95 98.1001 90.35C97.2001 89.75 97.0001 88.65 97.5001 87.75C98.1001 86.85 99.2001 86.65 100.1 87.15C102 88.35 103.8 88.05 104.2 87.55C104.5 87.25 104.5 86.45 104.1 85.95C103.8 85.55 103.2 85.45 102.3 85.25C101.1 85.05 99.3001 84.65 98.2001 83.05C96.9001 81.25 96.9001 78.75 98.2001 77.05C98.8001 76.25 99.7001 75.65 100.7 75.35V74.35C100.7 73.35 101.5 72.45 102.6 72.45C103.6 72.45 104.5 73.25 104.5 74.35V75.25C105.5 75.55 106.4 75.95 107.1 76.65C107.9 77.25 108 78.45 107.4 79.25C106.7 80.05 105.6 80.15 104.8 79.55C104.1 78.95 103.1 78.65 102.3 78.75C101.7 78.85 101.4 79.05 101.2 79.25C100.9 79.65 100.9 80.35 101.2 80.75C101.5 81.15 102 81.25 103 81.45C104.3 81.65 106 82.05 107.1 83.65C108.4 85.45 108.4 88.15 107 89.75C106.4 90.45 105.6 91.05 104.6 91.35V92.25C104.7 93.25 103.9 94.15 102.9 94.15Z" fill="black"/>
<path d="M102.7 100.25C93.3 100.25 85.7 92.65 85.7 83.35C85.7 74.05 93.3 66.45 102.7 66.45C112.1 66.45 119.7 74.05 119.7 83.35C119.7 92.65 112.1 100.25 102.7 100.25ZM102.7 71.55C96.1 71.55 90.7999 76.85 90.7999 83.45C90.7999 90.05 96.2 95.25 102.7 95.25C109.2 95.25 114.7 89.95 114.7 83.35C114.7 76.75 109.3 71.55 102.7 71.55Z" fill="black"/>
<path d="M64.7 0.25C34.4 0.25 9.69995 22.65 9.69995 50.15C9.69995 51.55 9.79995 52.95 9.89995 54.35C9.99995 55.55 10.9 56.45 12.1 56.55C13.3 56.65 14.4 56.05 14.8 54.95C16.7 49.75 22.9 46.15 29.9 46.15C36.7 46.15 42.7999 49.65 44.7999 54.55C44.8999 54.65 44.9 54.75 45 54.95C45.4 55.95 46.3 56.55 47.4 56.55C48.5 56.55 49.3999 55.85 49.7999 54.95L50 54.55C51.8 50.15 56.8 46.95 62.6 46.25C62.6 50.75 62.6 55.85 62.6 61.35C62.6 69.15 62.6 77.75 62.6 86.05C62.6 89.45 61.4999 95.15 54.2999 95.15C47.4999 95.15 46.4 92.75 46.4 86.85C46.4 85.45 45.3 84.35 43.9 84.35C42.5 84.35 41.4 85.45 41.4 86.85C41.4 93.05 42.9 100.15 54.2999 100.15C62.4999 100.15 67.7 94.75 67.7 86.05C67.7 77.75 67.7 69.15 67.7 61.35C67.7 55.85 67.7 50.75 67.7 46.25C73.2 46.95 77.8999 49.95 79.7999 54.05C79.8999 54.35 80.1 54.65 80.2 54.95C80.6 55.95 81.5 56.55 82.6 56.55C83.6 56.55 84.4999 55.95 84.8999 55.05C84.8999 55.05 84.9 54.95 85 54.95C86.9 49.75 93.1 46.15 100.1 46.15C107.1 46.15 113.3 49.75 115.2 54.95C115.6 56.05 116.7 56.75 117.9 56.55C119.1 56.45 120 55.45 120.1 54.35C120.2 52.95 120.3 51.55 120.3 50.15C119.7 22.65 95 0.25 64.7 0.25ZM45 46.65C41.2 43.25 35.8 41.25 29.8 41.25C24 41.25 18.7 43.15 14.9 46.45C16.8 26.15 33.7 9.65 55.5 5.95C49.5 14.05 45.9 30.05 45 46.65ZM64.7 41.15C59 41.15 53.8 43.05 50 46.15C50.6 35.85 52.2 26.45 54.7 19.05C57.5 10.75 61.3 5.55 64.6 5.55C67.9 5.55 71.7 10.75 74.5 19.05C77 26.45 78.6 35.85 79.2 46.05C75.4 42.95 70.3 41.15 64.7 41.15ZM99.6 41.15C93.6 41.15 88.0999 43.25 84.2999 46.75C83.2999 30.15 79.7 14.05 73.6 5.95C95.6 9.55 112.6 26.05 114.5 46.35C110.7 43.15 105.4 41.15 99.6 41.15Z" fill="black"/>
</g>
<defs>
<clipPath id="clip0">
<rect width="130" height="100" fill="white" transform="translate(0 0.25)"/>
</clipPath>
</defs>
</svg>
