<svg width="130" height="101" viewBox="0 0 130 101" fill="none" xmlns="http://www.w3.org/2000/svg">
<g clip-path="url(#clip0)">
<path d="M37.9001 13.55C37.9001 6.25 43.9001 0.25 51.3001 0.25H78.4001C84.1001 0.25 89.0001 3.85 90.9001 8.85L94.5001 3.65C95.2001 2.55 96.7001 2.25 97.8001 3.05C98.9001 3.75 99.2001 5.25 98.5001 6.35L91.8001 16.15V87.05C91.8001 94.35 85.8001 100.35 78.4001 100.35H51.3001C46.1001 100.35 41.6001 97.45 39.4001 93.15L35.5001 98.85C35.0001 99.55 34.3001 99.85 33.5001 99.85C33.0001 99.85 32.6001 99.75 32.2001 99.45C31.1001 98.75 30.8001 97.25 31.5001 96.15L37.9001 86.85V13.55V13.55ZM43.6001 86.85V87.05C43.6001 91.25 47.0001 94.65 51.3001 94.65H78.4001C82.6001 94.65 86.1001 91.25 86.1001 87.05V24.55L43.6001 86.85ZM86.0001 16.05V13.55C86.0001 9.35 82.6001 5.95 78.3001 5.95H51.3001C47.1001 5.95 43.6001 9.35 43.6001 13.55V78.25L86.0001 16.05Z" fill="black"/>
</g>
<defs>
<clipPath id="clip0">
<rect width="130" height="100" fill="white" transform="translate(0 0.25)"/>
</clipPath>
</defs>
</svg>
