<svg width="130" height="100" viewBox="0 0 130 100" fill="none" xmlns="http://www.w3.org/2000/svg">
<g style="mix-blend-mode:luminosity">
<path d="M65 0C37.3627 0 15 22.3646 15 50C15 77.6373 37.3646 100 65 100C92.6373 100 115 77.6354 115 50C115 22.3627 92.6354 0 65 0ZM65 92.1875C41.6811 92.1875 22.8125 73.3174 22.8125 50C22.8125 26.6811 41.6826 7.8125 65 7.8125C88.3189 7.8125 107.188 26.6826 107.188 50C107.188 73.3189 88.3174 92.1875 65 92.1875Z" fill="black"/>
<path d="M65 25.1713C62.8426 25.1713 61.0938 26.9201 61.0938 29.0775V54.2324C61.0938 56.3898 62.8426 58.1386 65 58.1386C67.1574 58.1386 68.9062 56.3898 68.9062 54.2324V29.0775C68.9062 26.9201 67.1574 25.1713 65 25.1713Z" fill="black"/>
<path d="M65 73.4688C67.9124 73.4688 70.2734 71.1078 70.2734 68.1953C70.2734 65.2829 67.9124 62.9219 65 62.9219C62.0876 62.9219 59.7266 65.2829 59.7266 68.1953C59.7266 71.1078 62.0876 73.4688 65 73.4688Z" fill="black"/>
</g>
</svg>
