<svg width="130" height="100" viewBox="0 0 130 100" fill="none" xmlns="http://www.w3.org/2000/svg">
<g style="mix-blend-mode:luminosity">
<path d="M111.818 81.1771L80.6091 50.0042L111.818 18.8314C116.117 14.5311 116.117 7.5511 111.829 3.23912C107.519 -1.08341 100.541 -1.0723 96.2305 3.228L64.9999 34.4231L33.7693 3.228C29.4591 -1.0723 22.481 -1.08341 18.1707 3.23912C13.8716 7.55054 13.8716 14.5305 18.1818 18.8314L49.3907 50.0042L18.1818 81.1771C13.8716 85.4774 13.8716 92.4574 18.1707 96.7693C20.3206 98.9303 23.1535 100 25.9759 100C28.7982 100 31.62 98.9192 33.7699 96.7799L65.0005 65.5848L96.2311 96.7799C98.3809 98.9304 101.203 100 104.025 100C106.847 100 109.68 98.9192 111.83 96.7693C116.128 92.4574 116.128 85.4774 111.818 81.1771Z" fill="black"/>
</g>
</svg>
