<svg width="130" height="100" viewBox="0 0 130 100" fill="none" xmlns="http://www.w3.org/2000/svg">
<g style="mix-blend-mode:luminosity">
<path d="M100.377 14.627C80.8796 -4.87568 49.1447 -4.87568 29.6472 14.627C20.2026 24.0779 15 36.6406 15 50.0014C15 63.3622 20.2026 75.9249 29.6472 85.3721C39.3979 95.1254 52.2051 100 65.012 100C77.819 100 90.6264 95.1254 100.377 85.3721C119.874 65.8693 119.874 34.1335 100.377 14.627ZM94.8993 79.8928C78.4196 96.3769 51.6045 96.3769 35.1248 79.8928C27.1447 71.9105 22.7477 61.2931 22.7477 50.0014C22.7477 38.7098 27.1447 28.0923 35.1248 20.1061C51.6045 3.62201 78.4196 3.62592 94.8993 20.1061C111.375 36.5902 111.375 63.4126 94.8993 79.8928Z" fill="black"/>
<path d="M81.7048 60.7118L70.7377 49.7574L81.7048 38.803C83.2156 37.2918 83.2156 34.839 81.7087 33.3237C80.1941 31.8047 77.7419 31.8086 76.2272 33.3198L65.2525 44.282L54.2778 33.3198C52.7631 31.8086 50.3109 31.8047 48.7963 33.3237C47.2855 34.8388 47.2855 37.2916 48.8002 38.803L59.7673 49.7574L48.8002 60.7118C47.2855 62.223 47.2855 64.6758 48.7963 66.1911C49.5518 66.9505 50.5473 67.3264 51.5391 67.3264C52.5309 67.3264 53.5225 66.9466 54.278 66.1948L65.2527 55.2326L76.2274 66.1948C76.9829 66.9505 77.9745 67.3264 78.9663 67.3264C79.9581 67.3264 80.9536 66.9466 81.7091 66.1911C83.2195 64.6758 83.2195 62.223 81.7048 60.7118Z" fill="black"/>
</g>
</svg>
