<svg width="130" height="100" viewBox="0 0 130 100" fill="none" xmlns="http://www.w3.org/2000/svg">
<g style="mix-blend-mode:luminosity">
<path d="M65 0C37.4283 0 15 22.4283 15 50C15 77.5717 37.4283 100 65 100C92.5717 100 115 77.5678 115 50C115 22.4322 92.5717 0 65 0ZM65 92.2541C41.7041 92.2541 22.7459 73.2998 22.7459 50C22.7459 26.7002 41.7041 7.7459 65 7.7459C88.2998 7.7459 107.254 26.7002 107.254 50C107.254 73.2998 88.2959 92.2541 65 92.2541Z" fill="black"/>
<path d="M87.9397 32.6103C86.3633 31.1773 83.9118 31.2896 82.4711 32.8736L58.8459 58.8884L47.4323 47.2851C45.9256 45.7591 43.478 45.7359 41.9559 47.2386C40.4299 48.7375 40.4067 51.189 41.9094 52.715L56.1967 67.2386C56.9288 67.9822 57.9202 68.3966 58.9581 68.3966C58.9813 68.3966 59.0084 68.3966 59.0317 68.4005C60.1006 68.3773 61.1077 67.9203 61.8241 67.1302L88.2028 38.083C89.6399 36.4949 89.5237 34.0472 87.9397 32.6103Z" fill="black"/>
</g>
</svg>
