<svg width="130" height="100" viewBox="0 0 130 100" fill="none" xmlns="http://www.w3.org/2000/svg">
<g style="mix-blend-mode:luminosity">
<path d="M105.097 54.8996C104.814 54.7566 104.53 54.6852 104.243 54.6852C103.627 54.6852 103.084 54.9218 102.611 55.3959L98.065 59.9409C97.6402 60.3676 97.4267 60.8877 97.4267 61.5039V79.542C97.4267 82.6676 96.3165 85.3415 94.0897 87.5679C91.8645 89.793 89.1889 90.9057 86.0638 90.9057H26.9736C23.8482 90.9057 21.1728 89.793 18.9477 87.5679C16.7221 85.3418 15.6099 82.6679 15.6099 79.542V20.453C15.6099 17.3282 16.7221 14.653 18.9477 12.4271C21.1728 10.2018 23.8482 9.08933 26.9736 9.08933H86.0643C87.1061 9.08933 88.1712 9.23137 89.26 9.5157C89.5444 9.60973 89.7573 9.65773 89.8976 9.65773C90.514 9.65773 91.0588 9.42167 91.5319 8.94828L95.012 5.46817C95.5797 4.90076 95.7936 4.21369 95.6504 3.40946C95.5083 2.65175 95.0817 2.10697 94.3715 1.77588C91.8163 0.593783 89.0451 0 86.0623 0H26.9736C21.3392 0 16.5213 2.0005 12.5203 6.00151C8.51979 10.003 6.51929 14.8202 6.51929 20.4548V79.5452C6.51929 85.1788 8.51979 89.9965 12.5205 93.9975C16.5216 97.9995 21.3395 100 26.9738 100H86.0638C91.6974 100 96.5158 97.9995 100.517 93.9975C104.518 89.9965 106.52 85.1791 106.52 79.5452V56.9588C106.52 55.9653 106.044 55.2792 105.097 54.8996Z" fill="black"/>
<path d="M122.925 14.1331L115.112 6.31992C113.976 5.18385 112.625 4.61569 111.062 4.61569C109.501 4.61569 108.15 5.18385 107.015 6.31992L61.063 52.2715L42.3853 33.5926C41.2488 32.4558 39.899 31.8884 38.3371 31.8884C36.7749 31.8884 35.4256 32.4558 34.2888 33.5926L26.4766 41.4048C25.3403 42.5412 24.7716 43.8909 24.7716 45.4539C24.7716 47.016 25.3403 48.3653 26.4766 49.5021L57.0157 80.0412C58.1523 81.1783 59.502 81.7455 61.064 81.7455C62.6259 81.7455 63.9754 81.1786 65.1123 80.0412L122.924 22.2294C124.06 21.0933 124.629 19.7433 124.629 18.1811C124.629 16.619 124.061 15.2692 122.925 14.1331Z" fill="black"/>
</g>
</svg>
