<svg width="40" height="40" viewBox="0 0 40 40" fill="none" xmlns="http://www.w3.org/2000/svg">
<path d="M33.7 33.6C33.5 33.2 33.3 32.8 33 32.5C32.7 32.2 32.3 32 31.9 31.8C31.5 31.7 31 31.6 30.6 31.6H22.1C21.3 31.6 20.5 31.7 19.7 31.8L25.6 25.7C26.6 24.7 27.5 23.7 28.5 22.6C29.4 21.6 30.2 20.5 31 19.4C31.7 18.3 32.3 17.1 32.7 15.8C33.1 14.5 33.3 13.1 33.3 11.7C33.3 10.1 33 8.4 32.4 6.9C31.8 5.5 30.9 4.2 29.8 3.2C28.6 2.1 27.3 1.3 25.8 0.8C24.1 0.3 22.3 0 20.6 0C18.9 0 17.2 0.2 15.6 0.7C14.1 1.2 12.6 1.9 11.4 2.9C10.1 3.9 9.1 5.2 8.3 6.6C7.5 8.3 6.9 10 6.7 11.8C6.7 12 6.7 12.2 6.9 12.4C7 12.6 7.2 12.7 7.4 12.7L11.2 13.4C11.6 13.5 11.9 13.5 12.3 13.5C12.9 13.5 13.5 13.4 14 13.1C14.4 12.9 14.8 12.5 15 12.2C15.3 11.8 15.5 11.3 15.7 10.9C15.8 10.4 16 10 16.3 9.6C16.6 9.2 16.9 8.9 17.3 8.6C17.7 8.3 18.2 8.1 18.6 7.9C19.1 7.7 19.7 7.6 20.2 7.7C20.8 7.7 21.4 7.8 22 8C22.5 8.2 22.9 8.4 23.2 8.8C23.5 9.2 23.8 9.6 24 10.1C24.2 10.7 24.3 11.4 24.3 12.1C24.3 13 24.2 13.8 24 14.6C23.8 15.4 23.4 16.2 23 17C22.5 17.9 21.9 18.7 21.3 19.5C20.5 20.4 19.7 21.3 18.8 22.2L7.6 33.2C7.1 33.7 6.7 34.3 6.4 35C6.2 35.6 6.1 36.2 6.1 36.8V40H33.9V34.9C33.9 34.5 33.8 34 33.7 33.6ZM32.2 38.3H7.8V36.8C7.8 36.4 7.9 36 8 35.6C8.2 35.2 8.4 34.8 8.7 34.5L20 23.2C20.9 22.3 21.8 21.4 22.6 20.4C23.3 19.6 23.9 18.6 24.5 17.7C25 16.8 25.4 15.9 25.7 14.9C26 13.9 26.1 12.9 26.1 11.9C26.1 11.1 26 10.2 25.7 9.4C25.5 8.7 25.1 8 24.5 7.4C24 6.9 23.3 6.5 22.6 6.2C21.8 6.1 21 5.9 20.2 6C19.5 6 18.7 6.1 18 6.3C17.4 6.5 16.8 6.8 16.2 7.3C15.7 7.7 15.2 8.2 14.8 8.7C14.4 9.3 14.1 9.9 14 10.5C13.9 10.8 13.8 11.1 13.6 11.3C13.5 11.5 13.4 11.6 13.2 11.7C12.9 11.8 12.6 11.9 12.3 11.9C12 11.9 11.8 11.9 11.5 11.8L8.6 11.3C8.8 10 9.2 8.7 9.8 7.5C10.5 6.3 11.4 5.2 12.4 4.3C13.5 3.4 14.7 2.8 16 2.4C17.5 2 19 1.7 20.5 1.7C22.1 1.7 23.6 1.9 25.1 2.5C26.4 2.9 27.6 3.6 28.6 4.5C29.6 5.4 30.3 6.4 30.8 7.6C31.3 8.9 31.6 10.3 31.6 11.7C31.6 12.9 31.4 14.1 31 15.3C30.6 16.4 30.1 17.5 29.5 18.5C28.8 19.6 28 20.6 27.2 21.5C26.3 22.5 25.3 23.5 24.4 24.5L16.4 32.7C16.1 33 16.1 33.4 16.3 33.8C16.5 34.1 16.9 34.3 17.3 34.2C18.1 34 19 33.8 19.8 33.6C20.6 33.5 21.3 33.4 22.1 33.4H30.6C30.8 33.4 31.1 33.4 31.3 33.5C31.5 33.6 31.6 33.7 31.8 33.8C31.9 33.9 32 34.1 32.1 34.2C32.2 34.4 32.2 34.6 32.2 34.9V38.3V38.3Z" fill="black"/>
</svg>
