<svg width="40" height="40" viewBox="0 0 40 40" fill="none" xmlns="http://www.w3.org/2000/svg">
<path d="M33.6188 24.3C33.3188 23.3 32.9188 22.4 32.3188 21.6C31.7188 20.8 30.9188 20.1 30.1188 19.5C29.8188 19.3 29.4188 19.1 29.0188 18.9C29.2188 18.8 29.5188 18.6 29.7188 18.5C30.5188 18 31.2188 17.3 31.7188 16.6C32.3188 15.8 32.7188 14.9 32.9188 14C33.2188 12.9 33.3188 11.8 33.3188 10.6C33.3188 9.2 33.0188 7.8 32.4188 6.5C31.9188 5.1 31.0188 4 30.0188 3C28.9188 2 27.5188 1.2 26.1188 0.8C24.5188 0.2 22.8188 0 21.0188 0C19.3188 0 17.7188 0.2 16.1188 0.7C14.6188 1.2 13.2188 1.9 12.0188 2.9C10.7188 3.9 9.71875 5.2 8.91875 6.6C8.11875 8.2 7.51875 9.9 7.31875 11.7C7.31875 11.9 7.31875 12.2 7.51875 12.3C7.61875 12.5 7.81875 12.6 8.01875 12.6L11.7188 13.3C12.1188 13.4 12.4188 13.4 12.8188 13.4C13.4188 13.4 14.0188 13.3 14.5188 13C14.9188 12.8 15.2188 12.5 15.5188 12.1C15.8188 11.7 16.0188 11.3 16.2188 10.8C16.3188 10.3 16.5188 9.9 16.8188 9.5C17.1188 9.1 17.4188 8.8 17.8188 8.5C18.1188 8.3 18.6188 8 19.0188 7.9C19.5188 7.7 20.1188 7.7 20.6188 7.7C21.2188 7.7 21.8188 7.8 22.4188 8C22.8188 8.1 23.3188 8.4 23.6188 8.8C23.9188 9.1 24.2188 9.6 24.4188 10C24.6188 10.6 24.7188 11.2 24.7188 11.9C24.7188 12.5 24.6188 13.2 24.4188 13.8C24.2188 14.3 23.9188 14.7 23.5188 15.1C23.3188 15.3 23.0188 15.5 22.7188 15.6C22.3188 15.8 21.9188 15.9 21.5188 16C21.0188 16.1 20.5187 16.2 19.9187 16.3C19.2187 16.4 18.5187 16.4 17.9187 16.4C17.7187 16.4 17.4188 16.5 17.3188 16.6C17.1188 16.8 17.0188 17 17.0188 17.2V22.2C17.0188 22.4 17.1188 22.7 17.3188 22.8C17.5188 22.9 17.7187 23 17.9187 23C18.7187 23 19.5188 23 20.3188 23.1C20.9188 23.2 21.5188 23.2 22.1188 23.4C22.5188 23.5 23.0188 23.6 23.4188 23.8C23.7188 23.9 24.0188 24.1 24.2188 24.3C24.6188 24.6 24.9188 25.1 25.0188 25.6C25.1188 26.3 25.2188 27 25.2188 27.7C25.2188 28.3 25.1188 28.8 24.9188 29.4C24.7188 30 24.4188 30.5 24.0188 30.9C23.5188 31.4 23.0188 31.7 22.4188 32C21.7188 32.3 20.9188 32.4 20.1188 32.4C19.5188 32.4 18.9188 32.3 18.3188 32.1C17.8188 31.9 17.4187 31.6 16.9187 31.3C16.5187 30.9 16.1188 30.5 15.8188 30C15.4188 29.5 15.1188 28.9 14.8188 28.3C14.6188 27.9 14.3188 27.5 13.9188 27.2C13.5188 26.9 13.1188 26.8 12.6188 26.7C12.3188 26.6 12.0188 26.6 11.7188 26.6C11.0188 26.6 10.4188 26.8 9.71875 27L6.61875 28.3C6.41875 28.4 6.21875 28.5 6.11875 28.8C6.01875 29 6.01875 29.2 6.11875 29.4C6.61875 31 7.31875 32.5 8.11875 33.9C8.91875 35.2 9.91875 36.3 11.0188 37.3C12.2188 38.2 13.5188 38.9 15.0188 39.3C16.6188 39.8 18.3188 40 20.0188 40C21.8188 40 23.5188 39.8 25.2188 39.2C26.8188 38.7 28.3188 37.9 29.6188 36.8C30.9188 35.7 31.9187 34.4 32.7188 32.8C33.1188 32 33.4188 31.1 33.6188 30.3C33.8188 29.4 33.9188 28.4 33.9188 27.4C34.0188 26.4 33.9188 25.3 33.6188 24.3ZM32.0188 30C31.8188 30.7 31.6188 31.5 31.3188 32.1C30.7188 33.4 29.8188 34.5 28.7188 35.5C27.6188 36.4 26.3188 37.1 24.9188 37.5C23.4188 38 21.8188 38.2 20.2188 38.2C18.7188 38.2 17.1188 38 15.6188 37.6C14.4188 37.2 13.2188 36.7 12.2188 35.9C11.2188 35.1 10.4188 34.1 9.71875 33C9.11875 32 8.61875 30.8 8.11875 29.7L10.5188 28.7C10.9188 28.5 11.3188 28.4 11.8188 28.4C12.0188 28.4 12.1188 28.4 12.3188 28.5C12.5188 28.5 12.7188 28.6 12.9188 28.7C13.1188 28.8 13.2188 29 13.3188 29.1C13.6188 29.8 14.0188 30.4 14.4188 31C14.8188 31.6 15.3188 32.1 15.9188 32.6C16.5188 33.1 17.1188 33.4 17.8188 33.7C18.6188 34 19.4188 34.1 20.2188 34.1C21.2188 34.1 22.2188 33.9 23.1188 33.5C23.9188 33.2 24.6188 32.7 25.2188 32C25.8188 31.4 26.2188 30.7 26.5188 29.9C26.8188 29.2 26.9188 28.4 26.9188 27.6C26.9188 26.8 26.8188 25.9 26.7188 25.1C26.5188 24.2 26.0188 23.4 25.3188 22.9C24.9188 22.6 24.5188 22.3 24.1188 22.1C23.6188 21.9 23.1188 21.7 22.5188 21.6C21.8188 21.4 21.1188 21.3 20.5188 21.3C19.9188 21.3 19.4188 21.2 18.8188 21.2V17.9C19.3188 17.9 19.7188 17.9 20.1188 17.8C20.7188 17.7 21.3187 17.6 21.9187 17.5C22.4187 17.4 22.9188 17.2 23.4188 17C23.8188 16.8 24.2188 16.6 24.6188 16.3C25.3188 15.8 25.8188 15 26.1188 14.2C26.3188 13.4 26.5188 12.6 26.5188 11.8C26.5188 11 26.4188 10.2 26.2188 9.4C26.0188 8.7 25.6188 8 25.0188 7.5C24.5188 7 23.8188 6.6 23.1188 6.3C22.3188 6 21.5188 5.9 20.7188 5.9C20.0188 5.9 19.2188 6 18.5188 6.2C17.9188 6.4 17.3188 6.7 16.7188 7.1C16.2188 7.5 15.7188 8 15.3188 8.5C14.9188 9 14.6188 9.6 14.5188 10.3C14.4188 10.6 14.3188 10.9 14.1188 11.1C14.0188 11.3 13.9188 11.4 13.7188 11.5C13.4188 11.6 13.1188 11.7 12.8188 11.7C12.5188 11.7 12.3188 11.7 12.0188 11.6L9.11875 11.1C9.31875 9.8 9.81875 8.6 10.4188 7.4C11.0188 6.2 11.9188 5.1 13.0188 4.2C14.1188 3.4 15.3188 2.7 16.6188 2.3C18.0188 1.9 19.5188 1.6 21.0188 1.7C22.5188 1.7 24.1188 1.9 25.5188 2.4C26.7188 2.8 27.8188 3.5 28.8188 4.3C29.7188 5.1 30.3188 6 30.8188 7.1C31.3188 8.2 31.5188 9.3 31.5188 10.5C31.5188 11.5 31.4188 12.5 31.2188 13.4C31.0188 14.1 30.7188 14.8 30.2188 15.5C29.8188 16.1 29.3188 16.6 28.6188 17C27.9188 17.5 27.1188 17.8 26.4188 18.1C26.0188 18.2 25.8188 18.6 25.8188 18.9C25.8188 19.3 26.0188 19.6 26.4188 19.7C27.3188 20 28.2188 20.4 29.0188 20.9C29.7188 21.3 30.3188 21.9 30.8188 22.6C31.3188 23.3 31.6188 24 31.9188 24.7C32.1188 25.6 32.3188 26.5 32.3188 27.4C32.3188 28.3 32.2188 29.2 32.0188 30Z" fill="black"/>
</svg>
