<svg width="40" height="40" viewBox="0 0 40 40" fill="none" xmlns="http://www.w3.org/2000/svg">
<path d="M24.4 8.3C24 8.2 23.6 8.3 23.4 8.6L11.6 25.4H24.7V13.2C24.7 12.6 24.7 12 24.8 11.3C24.8 10.6 24.9 9.9 25 9.2C25 8.8 24.8 8.4 24.4 8.3ZM23 13.2V23.7H14.9L23 12.2C23 12.5 23 12.8 23 13.2ZM30.9 23.7V0H22.8L4.8 24.7L5.6 28.7C5.7 29.4 6.1 29.9 6.6 30.3C7.1 30.7 7.7 30.9 8.3 30.9H23V40H30.9V30.9H32.9C33.5 30.9 34.1 30.7 34.6 30.2C35 29.8 35.2 29.2 35.2 28.6V23.6H30.9V23.7ZM33.5 28.7C33.5 28.8 33.5 29 33.4 29.1C33.3 29.2 33.2 29.2 33 29.2H29.2V38.3H24.7V29.2H8.3C8.1 29.2 7.8 29.1 7.6 29C7.4 28.9 7.3 28.7 7.2 28.4L6.5 25.1L23.7 1.7H29.2V25.4H33.5V28.7ZM24.4 8.3C24 8.2 23.6 8.3 23.4 8.6L11.6 25.4H24.7V13.2C24.7 12.6 24.7 12 24.8 11.3C24.8 10.6 24.9 9.9 25 9.2C25 8.8 24.8 8.4 24.4 8.3ZM23 13.2V23.7H14.9L23 12.2C23 12.5 23 12.8 23 13.2ZM24.4 8.3C24 8.2 23.6 8.3 23.4 8.6L11.6 25.4H24.7V13.2C24.7 12.6 24.7 12 24.8 11.3C24.8 10.6 24.9 9.9 25 9.2C25 8.8 24.8 8.4 24.4 8.3ZM23 13.2V23.7H14.9L23 12.2C23 12.5 23 12.8 23 13.2Z" fill="black"/>
</svg>
