<svg width="130" height="100" viewBox="0 0 130 100" fill="none" xmlns="http://www.w3.org/2000/svg">
<g clip-path="url(#clip0)">
<path d="M91.8488 32.6C107.349 32.6 113.349 40.6 113.349 61.1V95H97.4488V65.9C97.4488 59.7 97.4488 46.8 85.3488 46.8C71.5488 46.8 71.5488 60.7 71.5488 65.3V95H56.2488V34.4H71.1488C71.5488 35.7 72.5488 36.8 73.8488 37.5C74.5488 37.8 75.2488 38 75.9488 38C77.0488 38 78.2488 37.6 79.1488 36.8C81.3488 34.9 85.4488 32.6 91.8488 32.6ZM91.8488 27.6C84.7488 27.6 79.4488 30 75.9488 32.9V32.3C75.9488 30.5 74.7488 29.4 73.0488 29.4H54.1488C52.1488 29.4 51.2488 31.1 51.2488 32.9V97C51.2488 98.8 52.4488 99.9 54.1488 99.9H73.5488C75.3488 99.9 76.4488 98.7 76.4488 97V65.3C76.4488 54.1 79.9488 51.8 85.2488 51.8C91.1488 51.8 92.3488 56.5 92.3488 65.9V97.1C92.3488 98.9 93.5488 100 95.2488 100H114.649C116.449 100 118.149 98.2 118.149 96.5V61.2C118.249 45.3 115.349 27.6 91.8488 27.6Z" fill="black"/>
<path d="M34.4488 36.2V95H18.5488V36.2H34.4488ZM36.5488 31.2H16.5488C14.7488 31.2 13.6488 32.4 13.6488 34.1V97C13.6488 98.8 14.8488 99.9 16.5488 99.9H37.1488C38.3488 99.9 40.0488 98.1 39.5488 96.4V34.1C39.4488 32.4 38.2488 31.2 36.5488 31.2Z" fill="black"/>
<path d="M26.5488 5C31.6488 5 36.2488 9.3 36.2488 14.1C36.2488 19.3 31.7488 23.8 26.5488 23.8C21.3488 23.8 16.8488 19.3 16.8488 14.1C16.8488 8.5 21.8488 5 26.5488 5ZM26.5488 0C18.9488 0 11.8488 5.9 11.8488 14.1C11.8488 22.3 18.9488 28.8 26.5488 28.8C34.7488 28.8 41.2488 21.7 41.2488 14.1C41.2488 6.5 34.1488 0 26.5488 0Z" fill="black"/>
</g>
<defs>
<clipPath id="clip0">
<rect width="130" height="100" fill="white"/>
</clipPath>
</defs>
</svg>
