<svg width="130" height="100" viewBox="0 0 130 100" fill="none" xmlns="http://www.w3.org/2000/svg">
<path d="M87.8427 5C93.3427 5 98.7427 7.2 102.743 11.1C103.643 12 104.943 12.5 106.243 12.5C106.643 12.5 106.943 12.5 107.343 12.4C109.543 11.9 111.643 11.3 113.743 10.6C112.343 12.3 112.243 14.6 113.343 16.4C114.043 17.5 115.043 18.2 116.143 18.5C114.543 20.1 112.943 21.5 111.143 22.9C109.843 23.9 109.143 25.4 109.143 27C109.143 27.7 109.143 28.3 109.143 29C109.143 45 102.943 61.2 92.1427 73.5C83.5427 83.3 68.0427 95 43.2427 95C34.6427 95 26.2427 93.3 18.3427 90.1C25.8427 89.2 32.9427 86.6 39.3427 82.7C41.0427 81.6 41.9427 79.6 41.6427 77.6C41.3427 75.6 39.7427 74 37.8427 73.6C31.9427 72.3 26.8427 68.4 23.9427 63.2C25.1427 62.6 26.0427 61.6 26.5427 60.3C27.2427 58.1 26.3427 55.6 24.3427 54.4C19.2427 51.4 15.6427 46.3 14.4427 40.6C14.7427 40.7 15.0427 40.7 15.4427 40.7C17.0427 40.7 18.6427 39.9 19.5427 38.5C20.8427 36.6 20.6427 34.2 19.2427 32.4C15.9427 28.6 14.2427 23.7 14.2427 18.6C14.2427 16.3 14.6427 14.1 15.3427 11.9C27.1427 24.9 43.8427 33 61.4427 34.6C61.5427 34.6 61.7427 34.6 61.8427 34.6C63.2427 34.6 64.5427 34 65.4427 33.1C66.4427 32 66.9427 30.5 66.8427 29C66.7427 28.1 66.6427 27.2 66.6427 26.2C66.6427 14.5 76.1427 5 87.8427 5ZM87.8427 0C73.4427 0 61.6427 11.8 61.6427 26.2C61.6427 27.3 61.7427 28.5 61.8427 29.6C43.9427 28 27.2427 19.2 15.8427 5.2C15.4427 4.7 14.9427 4.5 14.3427 4.5C14.2427 4.5 14.2427 4.5 14.1427 4.5C13.5427 4.6 12.9427 4.9 12.6427 5.5C10.3427 9.5 9.0427 14 9.0427 18.7C9.0427 25 11.3427 31 15.2427 35.7C14.0427 35.3 12.8427 34.8 11.7427 34.1C11.4427 33.9 11.1427 33.9 10.7427 33.9C10.4427 33.9 10.0427 34 9.7427 34.2C9.1427 34.5 8.7427 35.2 8.7427 35.9C8.7427 36 8.7427 36.1 8.7427 36.3C8.7427 45.7 13.8427 54.2 21.5427 58.8C20.8427 58.7 20.2427 58.6 19.5427 58.5C19.4427 58.5 19.3427 58.5 19.1427 58.5C18.5427 58.5 18.0427 58.7 17.6427 59.2C17.1427 59.7 17.0427 60.4 17.2427 61.1C20.1427 70.1 27.5427 76.7 36.4427 78.7C29.0427 83.3 20.5427 85.8 11.6427 85.8C9.7427 85.8 7.9427 85.7 6.0427 85.5C5.9427 85.5 5.8427 85.5 5.8427 85.5C5.0427 85.5 4.2427 86 3.9427 86.8C3.6427 87.7 3.9427 88.6 4.7427 89.1C16.4427 96.1 29.6427 100 43.2427 100C69.9427 100 86.6427 87.4 95.9427 76.9C107.543 63.7 114.143 46.3 114.143 29C114.143 28.3 114.143 27.6 114.143 26.8C118.743 23.3 122.643 19.2 125.843 14.4C126.343 13.7 126.243 12.7 125.743 12C125.343 11.5 124.843 11.3 124.243 11.3C123.943 11.3 123.743 11.4 123.443 11.5C121.543 12.4 119.543 13.1 117.543 13.7C119.943 11 121.743 7.8 122.843 4.4C123.043 3.6 122.843 2.8 122.243 2.3C121.843 2 121.443 1.9 121.043 1.9C120.743 1.9 120.343 2 120.043 2.2C115.743 4.7 111.143 6.6 106.343 7.6C101.343 2.7 94.7427 0 87.8427 0Z" fill="black"/>
</svg>
