<svg width="130" height="100" viewBox="0 0 130 100" fill="none" xmlns="http://www.w3.org/2000/svg">
<path d="M53.9 34.7L86.1 54.1L53.9 73.6V34.7ZM51.9 28.2C51.3 28.2 50.7 28.3 50.3 28.5C49.4 29 48.9 30.4 48.9 31.3V76.3C48.9 77.7 49.4 78.6 50.3 79.1C50.8 79.6 51.2 79.6 51.7 79.6C52.2 79.6 52.6 79.6 53.6 79.6L91.1 56.9C92 56 92.5 55.5 92.5 54.1C92.5 52.7 92 51.8 91.1 51.3L53.5 28.6C53 28.3 52.5 28.2 51.9 28.2Z" fill="black"/>
<path d="M64.9 13C77.4 13 90.1 13.7 102.5 15.1L112.7 16.4H112.8C119.9 17.1 125 22.6 125 29.5V78.7C125 85.4 119.6 91.2 112.9 91.8L102.7 92.7H102.6C89.1 94.2 76.5 95 65.1 95C53.7 95 41.1 94.2 27.7 92.7L17.6 91.3C17.5 91.3 17.5 91.3 17.4 91.3C10.3 90.6 5.20001 85.1 5.20001 78.2V29.5C5.20001 22.9 10.6 17.1 17.4 16.5C17.5 16.5 17.5 16.5 17.6 16.5L27.7 15.1C40 13.7 52.5 13 64.9 13ZM64.9 8C52.2 8 39.6 8.7 27.1 10.1L16.9 11.5C7.60001 12.4 0.200012 20.3 0.200012 29.5V78.2C0.200012 87.5 7.20001 95.3 16.9 96.3L27.1 97.7C39.6 99.1 52.6 100 65.1 100C77.6 100 90.6 99.1 103.1 97.7L113.3 96.8C122.6 95.9 130 88 130 78.7V29.5C130 20.2 123 12.4 113.3 11.4L103.1 10.1C90.4 8.7 77.6 8 64.9 8Z" fill="black"/>
</svg>
