<svg width="40" height="40" viewBox="0 0 40 40" fill="none" xmlns="http://www.w3.org/2000/svg">
<path d="M26.45 32.9V0H19.45L7.05 10.7L9.75 14.4C9.95 14.6 10.15 14.9 10.45 15C10.75 15.2 11.15 15.4 11.55 15.4C11.75 15.4 11.95 15.5 12.15 15.5C12.35 15.5 12.65 15.5 12.85 15.4C13.35 15.3 13.85 15.1 14.25 14.7L17.65 11.8C17.65 12.1 17.65 12.4 17.65 12.7V32.7H10.25V40H32.95V32.9H26.45ZM31.15 38.2H11.95V34.6H19.35V12.9C19.35 12.4 19.35 12 19.35 11.5C19.35 11 19.35 10.5 19.45 10.1C19.45 9.7 19.25 9.4 18.95 9.2C18.65 9.1 18.25 9.1 17.95 9.3L13.05 13.4C12.85 13.6 12.65 13.7 12.45 13.7C12.35 13.7 12.25 13.7 12.15 13.7C12.05 13.7 11.95 13.7 11.95 13.7C11.75 13.7 11.65 13.6 11.45 13.5C11.35 13.4 11.25 13.3 11.15 13.3L9.45 11L20.05 1.8H24.65V34.7H31.05V38.2H31.15Z" fill="black"/>
</svg>
