<svg width="130" height="100" viewBox="0 0 130 100" fill="none" xmlns="http://www.w3.org/2000/svg">
<path d="M87.3 5C99.8 5 110 15.2 110 27.7V72.3C110 84.8 99.8 95 87.3 95H42.7C30.2 95 20 84.8 20 72.3V27.7C20 15.2 30.2 5 42.7 5H87.3ZM87.3 0H42.7C27.5 0 15 12.5 15 27.7V72.3C15 87.5 27.5 100 42.7 100H87.3C102.5 100 115 87.5 115 72.3V27.7C115 12.5 102.5 0 87.3 0Z" fill="black"/>
<path d="M65 32.7C75 32.7 83.2 40.6 83.2 50.4C82.8 60 74.5 68.2 65 68.2C55.1 68.2 46.8 60.1 46.8 50.4C46.8 40.6 55 32.7 65 32.7ZM65 27.7C52.1 27.7 41.8 38 41.8 50.5C41.8 63 52.5 73.2 65 73.2C77.5 73.2 87.8 62.5 88.2 50.4C88.2 37.9 77.9 27.7 65 27.7Z" fill="black"/>
<path d="M94.9 27.2C94.9 30.3 92.2 33 89.1 33C86 33 83.3 30.3 83.3 27.2C83.3 24.1 86 21.4 89.1 21.4C92.7 21.4 94.9 24.1 94.9 27.2Z" fill="black"/>
</svg>
