<svg width="130" height="100" viewBox="0 0 130 100" fill="none" xmlns="http://www.w3.org/2000/svg">
<g clip-path="url(#clip0)">
<path d="M87.75 90.5C86.95 90.5 85.85 90.3 84.35 90.1C82.85 89.9 81.95 89.5 81.45 89.3C79.75 92.6 77.55 95.3 74.65 97.2C71.75 99.1 68.55 100.1 65.05 100.1C61.55 100.1 58.25 99 55.15 96.9C52.15 94.8 49.95 92.3 48.75 89.3C46.65 90.1 44.55 90.5 42.35 90.5C37.35 90.5 33.05 88.6 29.55 84.8C26.05 81 24.25 76.6 24.35 71.4C24.25 71.2 24.25 71 24.35 70.8V70.2C24.25 70 24.25 69.8 24.35 69.6C24.45 69.4 24.45 69.2 24.35 69C21.45 67.1 19.25 64.7 17.55 61.8C15.95 58.9 15.05 55.7 15.05 52.4C15.05 49 15.95 45.7 17.75 42.6C19.55 39.4 22.05 37 25.35 35.3L24.95 33.7C24.55 32.7 24.35 31.6 24.35 30.3C24.25 29.8 24.25 29.2 24.35 28.6C24.25 23.5 25.95 19.1 29.45 15.2C32.95 11.4 37.25 9.5 42.35 9.5C44.55 9.5 46.65 9.9 48.75 10.7C50.05 7.7 52.15 5.2 55.05 3.1C58.05 1 61.35 0 64.95 0C72.35 0 77.75 3.5 81.35 10.6C83.15 9.8 85.25 9.4 87.65 9.4C92.65 9.4 96.95 11.3 100.45 15C103.95 18.7 105.75 23.2 105.95 28.5C105.85 28.9 105.85 29.5 105.85 30.2L105.25 33.6C105.15 34.2 104.95 34.7 104.65 35.2C107.65 36.6 110.05 38.8 111.95 41.8C113.85 44.8 114.85 48.3 114.95 52.3C114.85 56 113.95 59.4 112.25 62.3C110.55 65.2 108.35 67.5 105.65 68.9C105.75 69.2 105.85 69.4 105.85 69.5L105.95 70.7C105.85 70.9 105.85 71.1 105.95 71.3C105.85 76.7 103.95 81.2 100.45 84.9C96.95 88.6 92.75 90.5 87.75 90.5Z" fill="#88C9F9"/>
<path d="M81.45 32.5L57.25 56.6L48.95 48.2C47.75 47.2 46.55 46.7 45.35 46.7C44.15 46.7 42.95 47.2 41.55 48.2C40.55 49.6 40.05 51 40.05 52.3C40.05 53.6 40.65 54.7 41.65 55.5L53.55 67.5C54.75 68.5 56.05 69 57.45 69C58.85 69 59.95 68.5 60.75 67.5H61.05L88.65 39.2C91.15 36.4 89.35 33.3 88.55 32.6C87.75 31.7 84.35 29.7 81.45 32.5Z" fill="white"/>
</g>
<defs>
<clipPath id="clip0">
<rect width="130" height="100" fill="white"/>
</clipPath>
</defs>
</svg>
