<svg width="323" height="40" viewBox="0 0 323 40" fill="none" xmlns="http://www.w3.org/2000/svg">
<g clip-path="url(#clip0)">
<path d="M5.81998 29.68H1.69998V22.76H6.97998L8.37998 14.72H3.57998V7.92H9.49998L10.86 0H18.02L16.62 7.92H24.42L25.82 0H33.02L31.62 7.92H35.66V14.84H30.38L28.98 22.88H33.74V29.8H27.86L26.46 37.72H19.3L20.7 29.68H12.86L11.46 37.72H4.33998L5.81998 29.68ZM21.94 22.76L23.34 14.72H15.54L14.14 22.76H21.94Z" fill="black"/>
<path d="M53.62 19.76C48.22 19.76 43.82 15.6 43.82 9.92C43.82 4.4 48.1 0.120003 53.74 0.120003C57.62 0.120003 60.02 1.76 61.66 4.16L57.9 7.16C56.78 5.76 55.5 5.04 53.74 5.04C51.1 5.04 49.22 7.32 49.22 10.08C49.22 12.96 51.1 15.12 53.74 15.12C55.74 15.12 56.9 14.24 58.02 12.84L61.9 15.6C60.18 17.88 57.78 19.76 53.62 19.76ZM73.14 19.76C67.34 19.76 62.94 15.36 62.94 9.96C62.94 4.56 67.34 0.160003 73.14 0.160003C78.94 0.160003 83.34 4.56 83.34 9.96C83.3 15.36 79.06 19.76 73.14 19.76ZM73.26 14.96C76.14 14.96 78.02 12.68 78.02 9.8C78.02 7.04 76.02 4.64 73.1 4.64C70.22 4.64 68.34 6.92 68.34 9.8C68.34 12.56 70.38 14.96 73.26 14.96ZM86.1 19.36V0.520003H91.02L98.82 10.44V0.360003H103.98V19.24H99.34L91.3 8.92V19.24C91.26 19.36 86.1 19.36 86.1 19.36ZM111.86 19.36V5.04H106.22V0.360003H122.82V5H117.14V19.32H111.86V19.36ZM121.18 19.36L129.22 0.360003H134.26L142.3 19.36H136.62L135.22 15.96H127.94L126.54 19.36C126.7 19.36 121.18 19.36 121.18 19.36ZM129.62 11.84H133.9L131.74 6.4L129.62 11.84ZM151.98 19.76C146.58 19.76 142.18 15.6 142.18 9.96C142.18 4.44 146.46 0.160003 152.1 0.160003C155.98 0.160003 158.38 1.8 160.02 4.2L156.26 7.2C155.14 5.8 153.86 5.08 152.1 5.08C149.46 5.08 147.58 7.36 147.58 10.12C147.58 13 149.46 15.16 152.1 15.16C154.1 15.16 155.26 14.28 156.38 12.88L160.26 15.64C158.66 17.88 156.26 19.76 151.98 19.76ZM171.62 19.76C165.82 19.76 161.42 15.36 161.42 9.96C161.42 4.56 165.82 0.160003 171.62 0.160003C177.42 0.160003 181.82 4.56 181.82 9.96C181.82 15.36 177.42 19.76 171.62 19.76ZM171.62 14.96C174.5 14.96 176.38 12.68 176.38 9.8C176.38 7.04 174.38 4.64 171.46 4.64C168.58 4.64 166.7 6.92 166.7 9.8C166.86 12.56 168.86 14.96 171.62 14.96ZM184.58 19.36V0.520003H190.1L194.62 7.8L199.14 0.520003H204.66V19.4H199.5V8.44L194.74 15.88H194.62L189.86 8.6V19.4C189.86 19.36 184.58 19.36 184.58 19.36ZM206.46 19.36L214.5 0.360003H219.54L227.58 19.36H221.9L220.5 15.96H213.22L211.82 19.36H206.46ZM214.9 11.84H219.18L217.02 6.4L214.9 11.84ZM237.9 19.76C231.98 19.76 227.58 15.72 227.58 9.96C227.58 4.44 231.86 0.160003 237.78 0.160003C241.06 0.160003 243.46 1.16 245.46 2.92L242.46 6.56C241.06 5.44 239.82 4.8 237.94 4.8C235.18 4.8 233.18 7.08 233.18 10.08C233.18 13.08 235.3 15.36 238.34 15.36C239.58 15.36 240.62 15.12 241.34 14.6V12.08H237.58V8.32H246.22V16.88C244.06 18.48 241.3 19.76 237.9 19.76ZM248.98 19.36V0.520003H264.22V4.92H254.14V7.8H263.18V11.96H254.14V14.96H264.34V19.36H248.98ZM266.98 19.36V0.520003H271.9L279.7 10.44V0.360003H284.86V19.24H280.22L272.18 8.92V19.24H267.02V19.36H266.98ZM292.86 19.36V5.04H287.18V0.360003H303.82V5H298.14V19.32H292.86V19.36ZM306.1 19.36V0.520003H321.18V4.92H311.1V7.8H320.14V11.96H311.1V14.96H321.3V19.36H306.1ZM49.98 37.72C46.98 37.72 44.82 35.32 44.82 32.56C44.82 29.8 46.94 27.4 49.98 27.4C52.98 27.4 55.14 29.8 55.14 32.56C55.14 35.32 53.02 37.72 49.98 37.72ZM49.98 36.72C52.26 36.72 53.86 34.84 53.86 32.56C53.86 30.28 52.22 28.4 49.98 28.4C47.7 28.4 46.1 30.28 46.1 32.56C46.1 34.84 47.74 36.72 49.98 36.72ZM65.58 37.72C64.18 37.72 63.3 36.96 62.7 36.08V37.48H61.58V27.04H62.7V31.56C63.34 30.68 64.22 29.92 65.58 29.92C67.34 29.92 69.1 31.32 69.1 33.8C69.1 36.36 67.34 37.72 65.58 37.72ZM65.34 36.72C66.74 36.72 67.98 35.72 67.98 33.84C67.98 32.08 66.74 30.96 65.34 30.96C63.94 30.96 62.7 32.08 62.7 33.84C62.7 35.6 63.94 36.72 65.34 36.72ZM71.26 37.6V27.16H72.38V37.6H71.26ZM78.3 37.72C76.02 37.72 74.42 35.96 74.42 33.84C74.42 31.72 76.06 29.96 78.3 29.96C80.58 29.96 82.18 31.72 82.18 33.84C82.18 36.12 80.42 37.72 78.3 37.72ZM78.3 36.84C79.94 36.84 81.06 35.6 81.06 33.96C81.06 32.32 79.94 31.08 78.3 31.08C76.66 31.08 75.54 32.32 75.54 33.96C75.54 35.6 76.78 36.84 78.3 36.84ZM87.46 40C86.22 40 85.06 39.64 84.06 39L84.58 38.12C85.46 38.76 86.46 39.12 87.46 39.12C89.1 39.12 90.1 38.24 90.1 36.48V35.6C89.46 36.48 88.58 37.12 87.22 37.12C85.46 37.12 83.7 35.72 83.7 33.6C83.7 31.48 85.46 30.08 87.22 30.08C88.62 30.08 89.5 30.72 90.1 31.6V30.2H91.22V36.36C91.22 37.48 90.86 38.36 90.22 39C89.58 39.64 88.62 40 87.46 40ZM87.46 36.12C88.86 36.12 90.22 35.12 90.22 33.6C90.22 32.08 88.98 31.08 87.46 31.08C86.06 31.08 84.94 32.08 84.94 33.6C84.82 35.08 86.1 36.12 87.46 36.12ZM101.06 37.72C99.3 37.72 97.54 36.32 97.54 33.84C97.54 31.44 99.3 29.96 101.06 29.96C102.46 29.96 103.34 30.72 103.94 31.6V27.04H105.06V37.48H103.94V35.96C103.3 37 102.42 37.72 101.06 37.72ZM101.3 36.72C102.7 36.72 103.94 35.6 103.94 33.84C103.94 32.08 102.7 30.96 101.3 30.96C99.9 30.96 98.66 31.96 98.66 33.84C98.66 35.72 99.94 36.72 101.3 36.72ZM109.74 37.72C108.34 37.72 106.98 36.96 106.98 35.32C106.98 33.68 108.22 32.92 110.14 32.92C111.14 32.92 111.78 33.04 112.42 33.28V33.04C112.42 31.8 111.66 31.04 110.3 31.04C109.42 31.04 108.78 31.28 108.02 31.56L107.66 30.68C108.54 30.32 109.3 30.04 110.3 30.04C111.3 30.04 112.18 30.28 112.7 30.8C113.22 31.32 113.46 32.04 113.46 32.92V37.44H112.46V36.44C111.86 37.24 110.98 37.72 109.74 37.72ZM109.98 36.84C111.38 36.84 112.5 35.96 112.5 34.84V34.2C111.74 33.96 111.1 33.84 110.38 33.84C108.98 33.84 108.26 34.48 108.26 35.36C108.1 36.36 108.98 36.84 109.98 36.84ZM124.94 37.72C122.06 37.72 119.9 35.44 119.9 32.56C119.9 29.68 122.02 27.4 124.94 27.4C126.7 27.4 127.82 28.04 128.82 29.04L128.06 29.8C127.18 29.04 126.3 28.4 124.9 28.4C122.62 28.4 121.02 30.16 121.02 32.56C121.02 34.84 122.66 36.72 124.9 36.72C126.3 36.72 127.18 36.2 128.18 35.2L128.94 35.96C127.86 37.12 126.7 37.72 124.94 37.72ZM133.9 37.72C131.62 37.72 130.02 35.96 130.02 33.84C130.02 31.72 131.66 29.96 133.9 29.96C136.18 29.96 137.78 31.72 137.78 33.84C137.78 36.12 136.14 37.72 133.9 37.72C134.02 37.72 134.02 37.72 133.9 37.72ZM134.02 36.84C135.66 36.84 136.78 35.6 136.78 33.96C136.78 32.32 135.66 31.08 134.02 31.08C132.38 31.08 131.26 32.32 131.26 33.96C131.26 35.6 132.38 36.84 134.02 36.84ZM139.78 37.6V30.2H140.9V31.44C141.42 30.68 142.14 29.92 143.42 29.92C145.18 29.92 146.3 31.16 146.3 32.92V37.6H145.18V33.32C145.18 31.92 144.42 31.04 143.18 31.04C141.94 31.04 140.9 31.92 140.9 33.32V37.6H139.78ZM151.1 37.72C149.98 37.72 148.98 37.08 148.98 35.6V31.08H147.98V30.2H148.98V27.92H150.1V30.2H152.5V31.2H150.1V35.48C150.1 36.36 150.62 36.72 151.34 36.72C151.7 36.72 151.98 36.6 152.46 36.48V37.48C152.14 37.6 151.62 37.72 151.1 37.72ZM156.66 37.72C155.26 37.72 153.9 36.96 153.9 35.32C153.9 33.68 155.14 32.92 157.06 32.92C158.06 32.92 158.7 33.04 159.34 33.28V33.04C159.34 31.8 158.58 31.04 157.22 31.04C156.34 31.04 155.7 31.28 154.94 31.56L154.58 30.68C155.46 30.32 156.22 30.04 157.22 30.04C158.22 30.04 159.1 30.28 159.62 30.8C160.14 31.32 160.38 32.04 160.38 32.92V37.44H159.26V36.44C158.78 37.24 157.9 37.72 156.66 37.72ZM156.9 36.84C158.3 36.84 159.42 35.96 159.42 34.84V34.2C158.66 33.96 158.02 33.84 157.3 33.84C155.9 33.84 155.18 34.48 155.18 35.36C155.02 36.36 155.9 36.84 156.9 36.84ZM167.22 37.6V27.56H170.74C173.9 27.56 176.02 29.68 176.02 32.6C176.02 35.36 173.9 37.64 170.74 37.64H167.22V37.6ZM168.34 36.6H170.74C173.26 36.6 174.9 34.84 174.9 32.56C174.9 30.28 173.26 28.52 170.74 28.52H168.34C168.34 28.68 168.34 36.6 168.34 36.6ZM178.3 28.56V27.32H179.54V28.56H178.3ZM178.42 37.6V30.2H179.54V37.6H178.42ZM185.34 40C184.1 40 182.94 39.64 181.94 39L182.46 38.12C183.34 38.76 184.34 39.12 185.34 39.12C186.98 39.12 187.98 38.24 187.98 36.48V35.6C187.34 36.48 186.46 37.12 185.1 37.12C183.34 37.12 181.58 35.72 181.58 33.6C181.58 31.48 183.34 30.08 185.1 30.08C186.5 30.08 187.38 30.72 187.98 31.6V30.2H189.1V36.36C189.1 37.48 188.74 38.36 188.1 39C187.46 39.64 186.46 40 185.34 40ZM185.34 36.12C186.74 36.12 188.1 35.12 188.1 33.6C188.1 32.08 186.86 31.08 185.34 31.08C183.94 31.08 182.82 32.08 182.82 33.6C182.7 35.08 183.94 36.12 185.34 36.12ZM191.62 28.56V27.32H192.86V28.56H191.62ZM191.62 37.6V30.2H192.74V37.6H191.62ZM197.78 37.72C196.66 37.72 195.66 37.08 195.66 35.6V31.08H194.62V30.2H195.62V27.92H196.74V30.2H199.14V31.2H196.74V35.48C196.74 36.36 197.26 36.72 197.98 36.72C198.34 36.72 198.62 36.6 199.1 36.48V37.48C198.78 37.6 198.3 37.72 197.78 37.72ZM203.3 37.72C201.9 37.72 200.54 36.96 200.54 35.32C200.54 33.68 201.78 32.92 203.7 32.92C204.7 32.92 205.34 33.04 205.98 33.28V33.04C205.98 31.8 205.22 31.04 203.86 31.04C202.98 31.04 202.34 31.28 201.58 31.56L201.22 30.68C202.1 30.32 202.86 30.04 203.86 30.04C204.86 30.04 205.74 30.28 206.26 30.8C206.78 31.32 207.02 32.04 207.02 32.92V37.44H205.82V36.44C205.46 37.24 204.7 37.72 203.3 37.72ZM203.58 36.84C204.98 36.84 206.1 35.96 206.1 34.84V34.2C205.34 33.96 204.7 33.84 203.98 33.84C202.58 33.84 201.86 34.48 201.86 35.36C201.7 36.36 202.58 36.84 203.58 36.84ZM209.5 37.6V27.16H210.62V37.6H209.5ZM220.66 37.72C218.9 37.72 217.14 36.32 217.14 33.84C217.14 31.44 218.9 29.96 220.66 29.96C222.06 29.96 222.94 30.72 223.54 31.6V27.04H224.66V37.48H223.54V35.96C222.82 37 221.94 37.72 220.66 37.72ZM220.82 36.72C222.22 36.72 223.46 35.6 223.46 33.84C223.46 32.08 222.22 30.96 220.82 30.96C219.42 30.96 218.18 31.96 218.18 33.84C218.18 35.72 219.42 36.72 220.82 36.72ZM230.38 37.72C228.1 37.72 226.5 35.96 226.5 33.84C226.5 31.72 228.14 29.96 230.38 29.96C232.62 29.96 234.26 31.72 234.26 33.84C234.26 36.12 232.62 37.72 230.38 37.72C230.5 37.72 230.5 37.72 230.38 37.72ZM230.5 36.84C232.14 36.84 233.26 35.6 233.26 33.96C233.26 32.32 232.14 31.08 230.5 31.08C228.86 31.08 227.74 32.32 227.74 33.96C227.74 35.6 228.86 36.84 230.5 36.84ZM240.82 37.6V27.56H245.1C246.22 27.56 247.1 27.92 247.74 28.44C248.1 28.8 248.38 29.44 248.38 30.08C248.38 31.32 247.62 32.08 246.74 32.36C247.86 32.72 248.86 33.36 248.86 34.76C248.86 36.52 247.34 37.52 245.22 37.52C245.22 37.6 240.82 37.6 240.82 37.6ZM241.94 32.08H244.94C246.34 32.08 247.22 31.44 247.22 30.32C247.22 29.32 246.46 28.68 244.94 28.68H241.94C241.94 28.56 241.94 32.08 241.94 32.08ZM241.94 36.6H245.34C246.86 36.6 247.86 35.96 247.86 34.84C247.86 33.72 246.98 33.08 245.22 33.08H241.94V36.6V36.6ZM253.14 37.72C251.74 37.72 250.38 36.96 250.38 35.32C250.38 33.68 251.62 32.92 253.54 32.92C254.54 32.92 255.18 33.04 255.82 33.28V33.04C255.82 31.8 255.06 31.04 253.7 31.04C252.82 31.04 252.18 31.28 251.42 31.56L251.06 30.68C251.94 30.32 252.7 30.04 253.7 30.04C254.7 30.04 255.58 30.28 256.1 30.8C256.62 31.32 256.86 32.04 256.86 32.92V37.44H255.74V36.44C255.26 37.24 254.5 37.72 253.14 37.72ZM253.38 36.84C254.78 36.84 255.9 35.96 255.9 34.84V34.2C255.14 33.96 254.5 33.84 253.78 33.84C252.38 33.84 251.66 34.48 251.66 35.36C251.5 36.36 252.38 36.84 253.38 36.84ZM259.3 37.6V30.2H260.42V31.44C260.94 30.68 261.66 29.92 262.94 29.92C264.7 29.92 265.82 31.16 265.82 32.92V37.6H264.7V33.32C264.7 31.92 263.94 31.04 262.7 31.04C261.46 31.04 260.42 31.92 260.42 33.32V37.6H259.3ZM271.5 37.72C269.38 37.72 267.74 35.96 267.74 33.84C267.74 31.72 269.38 29.96 271.5 29.96C272.9 29.96 273.78 30.6 274.5 31.2L273.74 31.96C273.1 31.32 272.5 30.84 271.46 30.84C269.94 30.84 268.82 32.08 268.82 33.72C268.82 35.36 269.94 36.6 271.58 36.6C272.58 36.6 273.22 36.08 273.86 35.48L274.62 36.12C273.74 37.24 272.86 37.72 271.5 37.72ZM279.42 37.72C277.14 37.72 275.54 35.96 275.54 33.84C275.54 31.72 277.18 29.96 279.42 29.96C281.7 29.96 283.3 31.72 283.3 33.84C283.3 36.12 281.7 37.72 279.42 37.72C279.42 37.72 279.54 37.72 279.42 37.72ZM279.54 36.84C281.18 36.84 282.3 35.6 282.3 33.96C282.3 32.32 281.18 31.08 279.54 31.08C277.9 31.08 276.78 32.32 276.78 33.96C276.78 35.6 277.9 36.84 279.54 36.84ZM289.98 37.6V27.56H291.1V37.6C291.1 37.6 289.98 37.6 289.98 37.6ZM293.74 37.6V30.2H294.86V31.44C295.38 30.68 296.1 29.92 297.38 29.92C299.14 29.92 300.26 31.16 300.26 32.92V37.6H299.14V33.32C299.14 31.92 298.38 31.04 297.14 31.04C295.9 31.04 294.86 31.92 294.86 33.32V37.6H293.74ZM305.06 37.72C303.94 37.72 302.94 37.08 302.94 35.6V31.08H301.94V30.2H302.94V27.92H304.06V30.2H306.46V31.2H304.06V35.48C304.06 36.36 304.58 36.72 305.3 36.72C305.66 36.72 305.94 36.6 306.42 36.48V37.48C306.1 37.6 305.58 37.72 305.06 37.72ZM308.86 34.32C308.98 35.84 310.1 36.84 311.5 36.84C312.5 36.84 313.26 36.48 313.9 35.84L314.54 36.48C313.78 37.36 312.9 37.88 311.54 37.88C309.54 37.88 307.9 36.36 307.9 34C307.9 31.88 309.42 30.12 311.42 30.12C313.54 30.12 314.82 31.88 314.82 34C314.82 34.12 314.82 34.24 314.82 34.36H308.86V34.32ZM308.86 33.44H313.62C313.5 32.04 312.74 30.92 311.22 30.92C309.98 30.96 309.1 32.08 308.86 33.44ZM316.78 37.6V30.2H317.9V32.08C318.42 30.84 319.54 29.96 320.9 30.08V31.2H320.78C319.14 31.2 317.9 32.32 317.9 34.6V37.48H316.78V37.6Z" fill="black"/>
</g>
<defs>
<clipPath id="clip0">
<rect width="323" height="40" fill="white"/>
</clipPath>
</defs>
</svg>
