<svg width="112" height="40" viewBox="0 0 112 40" fill="none" xmlns="http://www.w3.org/2000/svg">
<path d="M35.7447 6.97873C34.6383 6.97873 33.8723 6.12767 33.8723 5.10639C33.8723 4.08511 34.6383 3.23405 35.7447 3.23405C36.8511 3.23405 37.617 4.08511 37.617 5.10639C37.5319 6.12767 36.766 6.97873 35.7447 6.97873ZM35.7447 2.80852C34.2979 2.80852 33.3617 3.9149 33.3617 5.10639C33.3617 6.29788 34.2979 7.40426 35.7447 7.40426C37.1915 7.40426 38.1277 6.29788 38.1277 5.10639C38.1277 3.82979 37.1915 2.80852 35.7447 2.80852ZM29.1064 6.29788L29.4468 6.6383C28.9362 7.14894 28.4255 7.40426 27.5745 7.40426C26.2128 7.40426 25.1915 6.38299 25.1915 5.10639C25.1915 3.82979 26.2128 2.80852 27.5745 2.80852C28.4255 2.80852 28.9362 3.06384 29.4468 3.48937L29.1064 3.82979C28.6809 3.48937 28.2553 3.23405 27.6596 3.23405C26.6383 3.23405 25.7872 4.00001 25.7872 5.10639C25.7872 6.21277 26.5532 6.97873 27.6596 6.97873C28.1702 6.97873 28.5957 6.72341 29.1064 6.29788ZM20.2553 2.89362H20.766V7.40426H20.3404L17.2766 3.74469V7.40426H16.766V2.89362H17.2766L20.2553 6.46809V2.89362ZM9.10638 5.70213L10.1277 3.40426L11.234 5.70213C11.234 5.70213 9.10638 5.70213 9.10638 5.70213ZM9.87234 2.80852L7.74468 7.40426H8.25532L8.85106 6.21277H11.4043L11.9149 7.40426H12.5106L10.383 2.89362L9.87234 2.80852ZM2.12766 6.89362H0.510638V5.36171H2.04255C2.89362 5.36171 3.31915 5.61703 3.31915 6.12767C3.31915 6.6383 2.80851 6.89362 2.12766 6.89362ZM0.510638 3.31916H1.95745C2.6383 3.31916 2.97872 3.57448 2.97872 4.08511C2.97872 4.59575 2.55319 4.85107 1.87234 4.85107H0.510638V3.31916ZM2.80851 5.02128C3.14894 4.85107 3.57447 4.59575 3.57447 4.00001C3.57447 3.31916 2.97872 2.89362 2.04255 2.89362H0V7.40426H2.12766C3.14894 7.40426 3.82979 6.97873 3.82979 6.21277C3.82979 5.53192 3.40426 5.1915 2.80851 5.02128Z" fill="black"/>
<path d="M51.3191 0V11.4894H60.5957V18.5532H51.3191V29.1915C51.3191 31.5745 52.4255 32.5106 54.6383 32.766C57.1915 33.1064 59.1489 32 60.5957 31.3191L60.766 31.234L63.6596 37.4468L63.4894 37.5319C59.7447 39.4043 57.3617 40 54.4681 40C47.4894 40 43.7447 36.0851 43.7447 29.1064V3.91489L51.3191 0ZM93.3617 12.2553H93.2766V39.1489H100.681V18.1277C101.532 17.9574 102.383 17.8723 104.255 17.8723C106.043 17.8723 107.149 18.1277 108.34 18.4681L108.511 18.5532L110.723 11.6596H110.553C108.255 11.1489 106.638 10.8936 103.745 10.8936C100.681 10.8936 96.4255 11.234 93.3617 12.2553ZM63.4043 25.0213C63.4043 15.7447 67.8298 10.8936 76.3404 10.8936C84.766 10.8936 89.2766 15.4894 89.2766 24.766L76.766 30.8085L73.5319 24.6809L81.4468 20.5957C81.5319 18.8085 79.234 17.617 76.3404 17.8723C73.1064 18.1277 71.0638 19.6596 71.0638 25.2766C71.0638 30.8085 73.7021 32.6809 77.7021 32.6809C81.2766 32.6809 84.6809 32.0851 86.4681 31.5745L86.6383 31.4894L88.8511 38.2128L88.6809 38.2979C85.617 39.234 81.7872 39.7447 77.7021 39.7447C68.2553 39.7447 63.4043 34.9787 63.4043 25.617V25.0213ZM14.383 12.2553H14.2979V39.1489H21.7021V18.1277C23.0638 17.9574 24 17.8723 26.0426 17.8723C29.7021 17.8723 31.4894 19.4043 31.4894 22.4681V39.1489H38.8936V23.0638C38.8936 15.4043 34.2979 10.8085 26.6383 10.8085C22.1277 10.8936 17.1915 11.4043 14.383 12.2553ZM0 39.1489H7.40426V11.4894H0V39.1489Z" fill="black"/>
</svg>
