<svg width="112" height="40" viewBox="0 0 112 40" fill="none" xmlns="http://www.w3.org/2000/svg">
<path d="M36.1003 6.46239C35.0975 6.46239 34.2061 5.68245 34.2061 4.67966C34.2061 4.67966 34.2061 4.67966 34.2061 4.56824C34.2061 3.56546 34.9861 2.67409 36.1003 2.67409C37.2145 2.67409 37.9944 3.56546 37.9944 4.56824C37.9944 5.68245 37.2145 6.46239 36.1003 6.46239ZM36.1003 2.22841C34.6518 2.22841 33.649 3.34261 33.649 4.56824C33.649 5.79387 34.6518 6.90807 36.1003 6.90807C37.5487 6.90807 38.5515 5.79387 38.5515 4.56824C38.5515 3.34261 37.5487 2.22841 36.1003 2.22841ZM29.415 5.79387L29.7493 6.12813C29.3036 6.57381 28.7465 6.90807 27.8552 6.90807C26.5181 6.90807 25.4039 5.90529 25.4039 4.56824C25.4039 3.23119 26.4067 2.22841 27.8552 2.22841C28.7465 2.22841 29.1922 2.56267 29.7493 2.89693L29.415 3.23119C28.9694 3.00835 28.5237 2.78551 27.8552 2.78551C26.7409 2.78551 25.961 3.56546 25.961 4.67966C25.961 5.79387 26.7409 6.57381 27.8552 6.57381C28.5237 6.46239 28.9694 6.23955 29.415 5.79387ZM20.5014 2.33983H21.0585V6.90807H20.6128L17.493 3.23119V6.90807H16.9359V2.33983H17.493L20.5014 6.01671V2.33983ZM9.13649 5.23677L10.2507 2.89693L11.3649 5.23677H9.13649ZM10.0279 2.33983L7.79944 6.90807H8.35655L8.91365 5.68245H11.4763L12.0334 6.90807H12.5905L10.3621 2.33983C10.4735 2.33983 10.0279 2.33983 10.0279 2.33983ZM2.11699 6.46239H0.557103V4.79108H2.11699C2.89694 4.79108 3.34262 5.12534 3.34262 5.57103C3.34262 6.12813 2.89694 6.46239 2.11699 6.46239ZM0.557103 2.78551H2.00557C2.67409 2.78551 3.11978 3.11977 3.11978 3.56546C3.11978 4.12256 2.67409 4.3454 2.00557 4.3454H0.557103V2.78551ZM2.78552 4.56824C3.2312 4.3454 3.56546 4.12256 3.56546 3.45404C3.56546 2.78551 2.89694 2.33983 2.00557 2.33983H0V6.90807H2.11699C3.11978 6.90807 3.89972 6.46239 3.89972 5.68245C3.89972 5.01392 3.45404 4.67966 2.78552 4.56824Z" fill="#9C9B9B"/>
<path d="M51.5877 0V11.4763H60.9471V18.4958H51.5877V29.1922C51.5877 31.532 52.7019 32.5348 54.9304 32.7577C57.493 33.0919 59.4986 31.9777 60.9471 31.3092L61.1699 31.1978L64.0668 37.4373L63.9554 37.5487C60.1671 39.4429 57.8273 40 54.9304 40C47.9109 40 44.1226 36.1003 44.1226 29.0808V3.89972L51.5877 0ZM93.9276 12.2563H93.8161V39.1086H101.281V18.1616C102.173 18.0501 103.064 17.9387 104.847 17.9387C106.63 17.9387 107.744 18.1616 108.969 18.4958H109.081L111.309 11.5877H111.086C108.858 11.0306 107.075 10.8078 104.178 10.8078C101.393 10.8078 97.0474 11.1421 93.9276 12.2563ZM63.844 24.9582C63.844 15.7103 68.3008 10.8078 76.8802 10.8078C85.3482 10.8078 89.9164 15.4875 89.9164 24.7354L77.3259 30.8635L74.0947 24.7354L82.117 20.6128C82.2284 18.8301 79.8886 17.7159 76.9916 17.8273C73.649 18.0501 71.7549 19.61 71.7549 25.2925C71.7549 30.8635 74.429 32.7577 78.4401 32.7577C82.0056 32.7577 85.4596 32.2006 87.2423 31.6435H87.3538L89.5822 38.3287H89.4708C86.4624 39.3315 82.4513 39.7772 78.4401 39.7772C68.9694 39.7772 64.0668 34.9861 64.0668 25.6267L63.844 24.9582ZM14.4847 12.2563H14.3733V39.1086H21.8384V18.1616C23.1755 17.9387 24.1783 17.9387 26.1838 17.9387C29.8607 17.9387 31.6435 19.4986 31.6435 22.6184V39.2201H39.1086V23.0641C39.1086 15.376 34.429 10.8078 26.7409 10.8078C22.2841 10.8078 17.2702 11.3649 14.4847 12.2563ZM0 39.1086H7.46518V11.4763H0V39.1086Z" fill="url(#paint0_linear)"/>
<defs>
<linearGradient id="paint0_linear" x1="-3.32085" y1="19.9733" x2="111.379" y2="19.9733" gradientUnits="userSpaceOnUse">
<stop stop-color="#FF8700"/>
<stop offset="1" stop-color="#FF500F"/>
</linearGradient>
</defs>
</svg>
