<svg width="130" height="100" viewBox="0 0 130 100" fill="none" xmlns="http://www.w3.org/2000/svg">
<g clip-path="url(#clip0)">
<path d="M15 27.8C15 26.9 15.6 26.3 16.5 26.5H25.3V11.9H16.5C15.6 11.9 15 11.3 15 10.4V1.5C15 0.6 15.6 0 16.5 0H113.5C114.4 0 115 0.6 115 1.5V10.4C115 11.3 114.4 11.9 113.5 11.9H105.8V26.3H113.5C114.4 26.3 115 26.9 115 27.8V98.5C115 99.4 114.4 100 113.5 100H16.5C15.6 100 15 99.4 15 98.5V27.8ZM55.9 97.2V29.3H18V97.2H55.9ZM112 97.2V29.3H74.1V97.2H112ZM18 3V9H112V3H18ZM28.3 11.9V26.5H102.8V11.9H28.3ZM59 97.2V97H71V29.3H59V97.2ZM87.7 39.8C88.5 39.8 89.2 40.5 89.2 41.3V52C89.2 52.9 88.6 53.5 87.7 53.5C86.8 53.5 86.2 52.9 86.2 52V41.3C86.2 40.4 86.8 39.8 87.7 39.8ZM100.4 39.8C101.2 39.8 101.9 40.5 101.9 41.3V52C101.9 52.9 101.3 53.5 100.4 53.5C99.5 53.5 98.9 52.9 98.9 52V41.3C98.9 40.4 99.5 39.8 100.4 39.8ZM87.7 56.7C88.5 56.7 89.2 57.3 89.2 58.2V68.9C89.2 69.8 88.6 70.4 87.7 70.4C86.8 70.4 86.2 69.8 86.2 68.9V58.2C86.2 57.3 86.8 56.7 87.7 56.7ZM100.4 56.7C101.2 56.7 101.9 57.3 101.9 58.2V68.9C101.9 69.8 101.3 70.4 100.4 70.4C99.5 70.4 98.9 69.8 98.9 68.9V58.2C98.9 57.3 99.5 56.7 100.4 56.7ZM87.7 75.8C88.5 75.8 89.2 76.5 89.2 77.3V88C89.2 88.9 88.6 89.5 87.7 89.5C86.8 89.5 86.2 88.9 86.2 88V77.3C86.2 76.4 86.8 75.8 87.7 75.8ZM100.4 75.8C101.2 75.8 101.9 76.5 101.9 77.3V88C101.9 88.9 101.3 89.5 100.4 89.5C99.5 89.5 98.9 88.9 98.9 88V77.3C98.9 76.4 99.5 75.8 100.4 75.8ZM30.8 39.8C31.6 39.8 32.3 40.5 32.3 41.3V52C32.3 52.9 31.7 53.5 30.8 53.5C29.9 53.5 29.3 52.9 29.3 52V41.3C29.3 40.4 29.9 39.8 30.8 39.8ZM43.5 39.8C44.3 39.8 45 40.5 45 41.3V52C45 52.9 44.4 53.5 43.5 53.5C42.6 53.5 42 52.9 42 52V41.3C42 40.4 42.6 39.8 43.5 39.8ZM30.8 56.7C31.6 56.7 32.3 57.3 32.3 58.2V68.9C32.3 69.8 31.7 70.4 30.8 70.4C29.9 70.4 29.3 69.8 29.3 68.9V58.2C29.3 57.3 29.9 56.7 30.8 56.7ZM43.5 56.7C44.3 56.7 45 57.3 45 58.2V68.9C45 69.8 44.4 70.4 43.5 70.4C42.6 70.4 42 69.8 42 68.9V58.2C42 57.3 42.6 56.7 43.5 56.7ZM30.8 75.8C31.6 75.8 32.3 76.5 32.3 77.3V88C32.3 88.9 31.7 89.5 30.8 89.5C29.9 89.5 29.3 88.9 29.3 88V77.3C29.3 76.4 29.9 75.8 30.8 75.8ZM43.5 75.8C44.3 75.8 45 76.5 45 77.3V88C45 88.9 44.4 89.5 43.5 89.5C42.6 89.5 42 88.9 42 88V77.3C42 76.4 42.6 75.8 43.5 75.8Z" fill="black"/>
</g>
<defs>
<clipPath id="clip0">
<rect width="130" height="100" fill="white"/>
</clipPath>
</defs>
</svg>
