<svg width="130" height="100" viewBox="0 0 130 100" fill="none" xmlns="http://www.w3.org/2000/svg">
<path d="M112.099 39.2L106.899 13.4C105.099 5.5 98.0994 0 89.8994 0H39.8994C31.7994 0 24.7994 5.5 22.9994 13.3L17.3994 39.3C8.99937 40.5 2.59937 47.8 2.59937 56.5V80.7C2.59937 82.1 3.79937 83.2 5.09937 83.2H18.1994V92.6C18.1994 96.7 21.5994 100 25.6994 100H29.3994C33.4994 100 36.8994 96.7 36.8994 92.6V83.2H92.4994V92.6C92.4994 96.7 95.8994 100 99.9994 100H103.699C107.799 100 111.199 96.7 111.199 92.6V83.2H124.899C126.199 83.2 127.399 82.1 127.399 80.7V56.5C127.499 47.6 120.799 40.3 112.099 39.2ZM27.8994 14.4C29.1994 8.9 34.1994 5 39.9994 5H89.9994C95.8994 5 100.899 9 102.099 14.6L107.099 39.2H22.5994L27.8994 14.4ZM31.8994 92.6C31.8994 94 30.7994 95.1 29.3994 95.1H25.6994C24.3994 95.1 23.1994 94 23.1994 92.6V83.2H31.8994V92.6ZM106.399 92.6C106.399 94 105.199 95.1 103.899 95.1H100.199C98.8994 95.1 97.6994 94 97.6994 92.6V83.2H106.399V92.6ZM122.499 78.2H7.59937V56.5C7.59937 49.7 13.1994 44.1 20.0994 44.1H110.099C116.999 44.1 122.599 49.7 122.599 56.5L122.499 78.2Z" fill="black"/>
<path d="M28.5996 68.6C23.1996 68.6 18.7996 64.4 18.7996 59.2C18.7996 54 23.1996 49.8 28.5996 49.8C33.9996 49.8 38.3996 54 38.3996 59.2C38.3996 64.4 33.9996 68.6 28.5996 68.6ZM28.5996 54.7C25.9996 54.7 23.8996 56.7 23.8996 59.1C23.8996 61.5 25.9996 63.5 28.5996 63.5C31.1996 63.5 33.2996 61.5 33.2996 59.1C33.2996 56.7 31.0996 54.7 28.5996 54.7Z" fill="black"/>
<path d="M105.999 68.6C100.599 68.6 96.1995 64.4 96.1995 59.2C96.1995 54 100.599 49.8 105.999 49.8C111.399 49.8 115.799 54 115.799 59.2C115.799 64.4 111.399 68.6 105.999 68.6ZM105.999 54.7C103.399 54.7 101.299 56.7 101.299 59.1C101.299 61.5 103.399 63.5 105.999 63.5C108.599 63.5 110.699 61.5 110.699 59.1C110.699 56.7 108.599 54.7 105.999 54.7Z" fill="black"/>
<path d="M80.2996 75H54.1996C50.9996 75 48.2996 72.5 48.2996 69.4V66.2C48.2996 63.1 50.8996 60.6 54.1996 60.6H80.2996C83.4996 60.6 86.1996 63.1 86.1996 66.2V69.4C86.1996 72.5 83.5996 75 80.2996 75ZM54.1996 65.5C53.7996 65.5 53.4996 65.8 53.4996 66.2V69.4C53.4996 69.8 53.7996 70.1 54.1996 70.1H80.2996C80.6996 70.1 80.9996 69.8 80.9996 69.4V66.2C80.9996 65.8 80.6996 65.5 80.2996 65.5H54.1996Z" fill="black"/>
</svg>
