<svg width="130" height="100" viewBox="0 0 130 100" fill="none" xmlns="http://www.w3.org/2000/svg">
<g clip-path="url(#clip0)">
<path d="M75.5819 71.9C73.7819 74.1 70.9819 75.5 67.8819 76V80.6C67.8819 82 66.7819 83.1 65.3819 83.1C63.9819 83.1 62.8819 82 62.8819 80.6V76C59.5819 75.6 56.2819 74.4 53.1819 72.4C51.9819 71.6 51.6819 70.1 52.4819 68.9C53.2819 67.7 54.7819 67.4 55.9819 68.2C62.2819 72.3 69.3819 71.7 71.7819 68.7C73.4819 66.6 73.4819 62.9 71.6819 60.5C70.1819 58.4 67.5819 57.9 64.6819 57.3C61.1819 56.6 57.1819 55.9 54.5819 52.1C51.6819 48 51.6819 42 54.6819 38.1C56.3819 35.8 59.2819 34.3 62.5819 33.8V28.7C62.5819 27.3 63.6819 26.2 65.0819 26.2C66.4819 26.2 67.5819 27.3 67.5819 28.7V33.8C70.6819 34.3 73.7819 35.6 76.3819 37.7C77.4819 38.6 77.5819 40.2 76.7819 41.2C75.8819 42.3 74.2819 42.4 73.2819 41.6C70.8819 39.7 67.9819 38.6 65.1819 38.6C64.7819 38.6 64.2819 38.6 63.8819 38.7C61.6819 39 59.7819 39.9 58.7819 41.2C57.1819 43.3 57.1819 46.9 58.8819 49.2C60.3819 51.3 62.8819 51.8 65.8819 52.4C69.3819 53.1 73.3819 53.8 75.9819 57.5C78.7819 61.7 78.7819 68 75.5819 71.9Z" fill="black"/>
<path d="M101.682 100H28.682C21.682 100 16.082 94.4 16.082 87.5V48.1H6.48202C5.48202 48.1 4.48202 47.5 4.18202 46.5C3.78202 45.5 4.08202 44.4 4.88202 43.8L17.282 32.6L17.182 13.3C17.182 12.6 17.482 12 17.882 11.5C18.382 11 18.982 10.8 19.682 10.8H36.582C37.982 10.8 39.082 11.9 39.082 13.3V17.2L63.982 0.400014C64.882 -0.199986 65.982 -0.199986 66.882 0.500014L124.982 42.7C125.882 43.3 126.182 44.5 125.882 45.5C125.582 46.5 124.582 47.2 123.482 47.2H114.282V87.5C114.282 94.4 108.582 100 101.682 100ZM12.982 43.1H18.582C19.982 43.1 21.082 44.2 21.082 45.6V87.5C21.082 91.7 24.482 95 28.682 95H101.682C105.882 95 109.282 91.6 109.282 87.5V44.7C109.282 43.3 110.382 42.2 111.782 42.2H115.782L65.282 5.50001L37.882 23.9C37.082 24.4 36.082 24.5 35.282 24C34.482 23.6 33.982 22.7 33.982 21.8V15.7H22.082L22.182 33.6C22.182 34.3 21.882 35 21.382 35.5L12.982 43.1Z" fill="black"/>
</g>
<defs>
<clipPath id="clip0">
<rect width="130" height="100" fill="white"/>
</clipPath>
</defs>
</svg>
