<svg width="130" height="100" viewBox="0 0 130 100" fill="none" xmlns="http://www.w3.org/2000/svg">
<path d="M130 39.6C130 38.4 129.4 37.3 128.5 36.5C126.7 35.1 124.1 35.2 122.5 36.8L120.6 38.7C120 38.3 119.3 38 118.6 38C117.8 38 117 38.4 116.4 38.9L113.1 42.2H48.8V41.3C48.2 31.3 39.8 30.5 39.8 30.5H0V85.2H21.2V100H124.6V49.9L126 48.6C127 47.6 127.3 46.1 126.7 44.9L128.8 42.8C129.6 42 130 40.8 130 39.6ZM123.8 46.2C123.8 46.4 123.7 46.6 123.6 46.8L121.7 48.7L116.3 43.2L118 41.5C118.2 41.3 118.4 41.2 118.6 41.2C118.8 41.2 119.1 41.3 119.2 41.5L123.5 45.7C123.7 45.8 123.8 46 123.8 46.2C123.8 46.2 123.8 46.3 123.8 46.2ZM90.4 69.1L114.2 45.3L119.5 50.8L95.7 73.8L90.4 69.1ZM85.7 78.5L88.8 71.6L93 75.4C93 75.3 85.7 78.5 85.7 78.5ZM87.2 68L81.1 81.2C80.9 81.6 81 82.1 81.3 82.4C81.6 82.7 82.1 82.8 82.5 82.6L96.3 77L121.5 52.8V97.1H45.1C46.4 96 47.2 94.6 47.3 92.9C47.3 92.5 47.4 92.1 47.5 91.7L48.7 45.1H110.1C110.1 45.2 87.2 68 87.2 68ZM24.1 85.3H38.6C40.5 85.4 42.3 86.2 43.7 87.5C44.7 89 45 90.8 44.5 92.5V92.7C44.5 92.9 44.3 96.5 36.8 97.1H24.1C24.1 97.1 24.1 85.3 24.1 85.3ZM44.8 84.5C43 83.2 40.9 82.4 38.7 82.3H3V33.5H39.6C40.2 33.5 45.4 34.4 45.9 41.5C45.8 41.4 44.8 84.5 44.8 84.5ZM127.8 39.9C127.7 40.4 127.5 40.9 127.1 41.2L125.2 43.1L122.2 40.3L124.2 38.4C125 37.6 126.3 37.6 127.1 38.4C127.6 38.8 127.8 39.3 127.8 39.9Z" fill="black"/>
<path d="M54.4 55.7H67.5C68.3 55.7 69 55.1 69.1 54.3C69.1 53.9 69 53.4 68.7 53.1C68.4 52.8 68 52.6 67.5 52.6H54.5C53.7 52.6 53 53.2 52.9 54C52.9 54.4 53 54.9 53.3 55.2C53.6 55.5 54 55.7 54.4 55.7Z" fill="black"/>
<path d="M84.6 60.5H54.5C53.7 60.5 53 61.1 52.9 61.9C52.9 62.3 53 62.8 53.3 63.1C53.6 63.4 54 63.6 54.5 63.6H84.7C85.1 63.6 85.5 63.4 85.8 63.1C86.1 62.8 86.2 62.3 86.2 61.9C86.1 61.1 85.4 60.5 84.6 60.5Z" fill="black"/>
<path d="M90.5999 87.4H114.6C115.4 87.4 116.1 86.8 116.2 86C116.2 85.6 116.1 85.1 115.8 84.8C115.5 84.5 115.1 84.3 114.6 84.3H90.4999C90.0999 84.3 89.5999 84.5 89.2999 84.8C88.9999 85.1 88.8999 85.6 88.8999 86C89.0999 86.8 89.7999 87.4 90.5999 87.4Z" fill="black"/>
</svg>
