<svg width="130" height="100" viewBox="0 0 130 100" fill="none" xmlns="http://www.w3.org/2000/svg">
<g clip-path="url(#clip0)">
<path d="M65 100C37.3 100 15 77.7 15 50C15 22.3 37.3 0 65 0C92.7 0 115 22.3 115 50C115 77.7 92.7 100 65 100ZM65 4.2C39.8 4.2 19.2 24.8 19.2 50C19.2 75.2 39.6 95.8 65 95.8C90.2 95.9 110.8 75.5 110.8 50.2C110.8 50.1 110.8 50 110.8 49.9C110.8 24.6 90.2 4.2 65 4.2ZM45.2 63.3C45 63.5 43.3 64.1 42.5 62.7C41.9 61.7 42.3 60.4 43.3 59.8L56.8 52.3C56.6 51.5 56.4 50.8 56.4 50C56.4 46 59.1 42.7 62.9 41.7V21.5C62.9 20.3 63.7 19.4 65 19.4C66.2 19.4 67.1 20.2 67.1 21.5V41.7C70.9 42.7 73.6 46.1 73.6 50C73.6 54.6 69.8 58.5 65.1 58.5C62.6 58.5 60.5 57.5 58.9 55.8C58.7 55.8 45.2 63.3 45.2 63.3ZM65 45.6C62.5 45.6 60.6 47.7 60.6 50C60.6 52.3 62.7 54.4 65 54.4C67.3 54.4 69.4 52.3 69.4 50C69.4 47.7 67.5 45.6 65 45.6ZM65 15C63.9 15 62.9 14.1 62.9 12.9V9.6C62.9 8.4 63.7 7.5 65 7.5C66.3 7.5 67.1 8.3 67.1 9.6V12.9C67.1 14.2 66.2 15 65 15ZM65 85C66.2 85 67.1 86 67.1 87.1V90.4C67.1 91.6 66.3 92.5 65 92.5C63.7 92.5 62.9 91.7 62.9 90.4V87.1C62.9 85.8 63.8 85 65 85ZM102.1 52.1C101 52.1 100 51.2 100 50C100 48.8 100.8 47.9 102.1 47.9H105.4C106.6 47.9 107.5 48.7 107.5 50C107.5 51.3 106.7 52.1 105.4 52.1C105.4 52.1 102.1 52.1 102.1 52.1ZM24.6 52.1C23.5 52.1 22.5 51.2 22.5 50C22.5 48.8 23.3 47.9 24.6 47.9H27.9C29.1 47.9 30 48.7 30 50C30 51.3 29.2 52.1 27.9 52.1C27.9 52.1 24.6 52.1 24.6 52.1ZM92.7 25.2C92.3 25.6 90.8 26.4 89.8 25.2C89 24.4 89 23.2 89.7 22.4C89.7 22.4 89.7 22.4 89.8 22.3L92.1 20C92.9 19.2 94.1 19.2 94.9 19.9C94.9 19.9 94.9 19.9 95 20C95.8 20.8 95.8 22 95.1 22.8C95.1 22.8 95.1 22.8 95 22.9C95 22.9 92.7 25.2 92.7 25.2ZM37.3 74.8C38.1 74 39.3 74 40.1 74.7C40.1 74.7 40.1 74.7 40.2 74.8C41 75.6 41 76.8 40.3 77.6C40.3 77.6 40.3 77.6 40.2 77.7L37.9 80C37.5 80.4 36 81.2 35 80C34.2 79.2 34.2 78 34.9 77.2C34.9 77.2 34.9 77.2 35 77.1C35 77.1 37.3 74.8 37.3 74.8ZM92.7 74.8L95 77.1C95.8 77.9 95.8 79.1 95.1 79.9C95.1 79.9 95.1 79.9 95 80C94.2 80.8 92.9 80.8 92.1 80L89.8 77.7C89 76.9 89 75.7 89.7 74.9C89.7 74.9 89.7 74.9 89.8 74.8C90.6 74 91.8 74 92.7 74.8C92.7 74.8 92.7 74.7 92.7 74.8ZM37.3 25.2L35 22.9C34.2 22.1 34.2 20.9 34.9 20.1C34.9 20.1 34.9 20.1 35 20C35.8 19.2 37 19.2 37.8 19.9C37.8 19.9 37.8 19.9 37.9 20L40.2 22.3C41 23.1 41 24.3 40.3 25.1C40.3 25.1 40.3 25.1 40.2 25.2C39.8 25.6 38.5 26.5 37.3 25.2Z" fill="black"/>
</g>
<defs>
<clipPath id="clip0">
<rect width="130" height="100" fill="white"/>
</clipPath>
</defs>
</svg>
