<svg width="130" height="100" viewBox="0 0 130 100" fill="none" xmlns="http://www.w3.org/2000/svg">
<path d="M119.35 100H115.65C109.75 100 105.05 95.4 105.05 89.8V10.2C105.05 4.6 109.85 0 115.65 0H119.35C125.25 0 129.95 4.6 129.95 10.2V89.9C129.95 95.4 125.15 100 119.35 100ZM115.65 5C112.65 5 110.25 7.3 110.25 10.2V89.9C110.25 92.8 112.65 95.1 115.65 95.1H119.35C122.35 95.1 124.75 92.8 124.75 89.9V10.2C124.75 7.3 122.35 5 119.35 5H115.65V5Z" fill="black"/>
<path d="M85.5501 100H81.9501C76.0501 100 71.3501 95.4 71.3501 89.8V28.7C71.3501 23.1 76.1501 18.5 81.9501 18.5H85.6501C91.5501 18.5 96.2501 23.1 96.2501 28.7V89.8C96.2501 95.4 91.4501 100 85.5501 100ZM81.9501 23.5C78.9501 23.5 76.5501 25.8 76.5501 28.7V89.8C76.5501 92.7 78.9501 95 81.9501 95H85.6501C88.6501 95 91.0501 92.7 91.0501 89.8V28.7C91.0501 25.8 88.6501 23.5 85.6501 23.5H81.9501Z" fill="black"/>
<path d="M51.8501 100H48.1501C42.2501 100 37.55 95.4 37.55 89.8V67.5C37.55 61.9 42.3501 57.3 48.1501 57.3H51.8501C57.7501 57.3 62.4501 61.9 62.4501 67.5V89.8C62.4501 95.4 57.7501 100 51.8501 100ZM48.1501 62.3C45.1501 62.3 42.75 64.6 42.75 67.5V89.8C42.75 92.7 45.1501 95 48.1501 95H51.8501C54.8501 95 57.25 92.7 57.25 89.8V67.5C57.25 64.6 54.8501 62.3 51.8501 62.3H48.1501Z" fill="black"/>
<path d="M18.75 33.6C18.95 33.4 19.05 33.2 19.25 33C19.05 33.2 18.85 33.4 18.75 33.6Z" fill="black"/>
<path d="M32.15 32.2V55.5C32.15 56.9 30.95 58 29.55 58C28.15 58 26.95 56.8 26.95 55.5V37.9L4.35 59.5C3.85 60 3.15 60.2 2.55 60.2C1.85 60.2 1.25 60 0.75 59.5C-0.25 58.5 -0.25 57 0.75 56L23.35 34.4H4.65C3.25 34.4 2.05 33.3 2.05 31.9C2.05 30.5 3.25 29.4 4.65 29.4H29.55C31.15 29.5 32.15 30.9 32.15 32.2Z" fill="black"/>
</svg>
