<svg width="130" height="101" viewBox="0 0 130 101" fill="none" xmlns="http://www.w3.org/2000/svg">
<g clip-path="url(#clip0)">
<path d="M94.5 54.5C94.3 53 93.6 51.5 92.4 50.5C91.6 49.8 90.7 49.3 89.7 49.1C89.2 49 88.7 48.9 88.2 48.9C86.8 48.9 85.6 49.3 84.5 50.1C83.1 51.1 82.1 52.7 81.9 54.6C81.7 56.9 82.7 59.1 84.5 60.4C85.2 60.9 86 61.2 86.8 61.4V66.2H89.4V61.4C89.5 61.4 89.5 61.4 89.6 61.4C91 61 92.3 60.2 93.2 59C94.2 57.6 94.6 56.1 94.5 54.5ZM90.7 57.8C90.4 58.1 90 58.3 89.7 58.5C89.2 58.7 88.7 58.9 88.2 58.9C87.2 58.9 86.3 58.5 85.6 57.8C85.1 57.2 84.7 56.5 84.6 55.8C84.6 55.6 84.6 55.4 84.6 55.2C84.6 55 84.6 54.7 84.7 54.5C84.9 53.8 85.2 53.1 85.8 52.6C86.5 51.9 87.4 51.6 88.4 51.6C88.9 51.6 89.5 51.7 89.9 52C90.3 52.2 90.7 52.4 91 52.7C91.7 53.4 92.1 54.3 92.1 55.3C91.8 56.2 91.4 57.1 90.7 57.8Z" fill="black"/>
<path d="M108.7 44.1C107.6 42.8 106.1 41.8 104.4 41.4V36.4C104.3 32.6 102.7 29 100.1 26.3C97.5 23.6 93.9 22 90.2 21.7H89.7V14.6C89.6 6.7 83 0.400002 74.8 0.400002H34.4C26.2 0.400002 19.6 6.8 19.6 14.7V86.2C19.6 94.1 26.2 100.5 34.4 100.5H74.9C83 100.5 89.7 94.1 89.7 86.2V75.7H90.3V75.8H102.7C104.7 75.8 106.7 75 108.2 73.6C109.6 72.1 110.4 70.2 110.4 68.2V48.9C110.4 47.2 109.8 45.5 108.7 44.1ZM101.3 36.4V41.2H75V36.4C75 31.1 79 26.6 84.5 25.2C85.7 24.9 86.9 24.7 88.2 24.7C88.7 24.7 89.2 24.7 89.7 24.8C96.2 25.6 101.3 30.5 101.3 36.4ZM34.4 5.2H74.9C79.9 5.2 84 8.8 84.5 13.5H24.8C25.3 8.9 29.4 5.2 34.4 5.2ZM84.5 86C84.5 91.2 80.2 95.3 74.8 95.3H34.4C29.1 95.3 24.7 91.1 24.7 86V83.2H84.5V86ZM84.5 78.4H24.7V18.4H84.5V21.9C81.3 22.4 78.4 24 76.1 26.3C73.5 29 72 32.6 71.8 36.4V41.4C70.1 41.8 68.6 42.8 67.5 44.1C66.5 45.4 65.9 47.1 65.9 48.8V67.9C65.9 72.1 69.3 75.6 73.6 75.6H84.5V78.4V78.4ZM107.2 68C107.2 70.5 105.2 72.5 102.7 72.5H73.7C72.5 72.5 71.4 72 70.5 71.2C69.7 70.3 69.2 69.2 69.2 68L69 48.9C69 47.7 69.5 46.6 70.4 45.7C71.2 44.8 72.4 44.4 73.6 44.4H102.7C105.2 44.4 107.2 46.4 107.2 48.9V68V68Z" fill="black"/>
<path d="M53.1 62.2C51.9 63.7 49.9 64.7 47.8 65V68.2C47.8 69.2 47 69.9 46.1 69.9C45.2 69.9 44.4 69.1 44.4 68.2V65C42.1 64.7 39.9 63.9 37.7 62.5C36.9 62 36.7 60.9 37.2 60.1C37.7 59.3 38.8 59.1 39.6 59.6C43.9 62.4 48.8 62 50.5 59.9C51.7 58.5 51.7 55.9 50.4 54.3C49.4 52.9 47.6 52.5 45.6 52.1C43.2 51.6 40.4 51.1 38.7 48.5C36.7 45.7 36.7 41.6 38.8 38.9C40 37.3 42 36.3 44.2 35.9V32.4C44.2 31.4 45 30.7 45.9 30.7C46.8 30.7 47.6 31.5 47.6 32.4V35.9C49.7 36.2 51.9 37.1 53.6 38.6C54.4 39.2 54.4 40.3 53.9 41C53.3 41.8 52.2 41.8 51.5 41.3C49.9 40 47.9 39.2 45.9 39.2C45.6 39.2 45.3 39.2 45 39.3C43.5 39.5 42.2 40.1 41.5 41C40.4 42.4 40.4 44.9 41.6 46.5C42.6 47.9 44.3 48.3 46.4 48.7C48.8 49.2 51.6 49.7 53.3 52.2C55.3 55.2 55.3 59.6 53.1 62.2Z" fill="black"/>
<path d="M54.6 93.5C52.3 93.5 50.5 91.6 50.5 89.4C50.5 87.2 52.3 85.3 54.6 85.3C56.9 85.3 58.7 87.2 58.7 89.4C58.7 91.6 56.9 93.5 54.6 93.5ZM54.6 87.3C53.4 87.3 52.5 88.3 52.5 89.4C52.5 90.5 53.5 91.5 54.6 91.5C55.7 91.5 56.7 90.5 56.7 89.4C56.7 88.3 55.8 87.3 54.6 87.3Z" fill="black"/>
</g>
<defs>
<clipPath id="clip0">
<rect width="130" height="100" fill="white" transform="translate(0 0.5)"/>
</clipPath>
</defs>
</svg>
