<svg width="130" height="101" viewBox="0 0 130 101" fill="none" xmlns="http://www.w3.org/2000/svg">
<g clip-path="url(#clip0)">
<path d="M20.2575 75.1H24.8575C26.9575 79.8 30.7575 83.5 35.4575 85.5L33.0575 96.3C32.8575 97.3 33.0575 98.3 33.7575 99.1C34.4575 100 35.5575 100.4 36.6575 100.4H48.1575C50.2575 100.4 52.0575 99 52.6575 97L53.7575 91.8C59.5575 92.7 65.3575 92.7 71.0575 91.8L72.1575 97C72.6575 99 74.4575 100.4 76.5575 100.5H88.0575C89.1575 100.5 90.2575 100 90.9575 99.2C91.5575 98.4 91.8575 97.4 91.6575 96.4L89.2575 84.3C97.3575 78.8 102.258 69.7 102.458 60C102.458 59.3 102.458 58.7 102.458 58C104.358 59 106.458 59.3 108.458 58.8C111.158 58.1 113.458 56.3 114.858 53.8C115.258 53 115.058 52 114.258 51.5C113.458 51.1 112.458 51.3 111.958 52.1C110.958 53.8 109.358 54.9 107.558 55.4C105.458 55.7 103.358 55 101.758 53.6L101.558 53.5C99.6575 45.3 94.6575 38.2 87.6575 33.7C94.0575 27.7 95.3575 18 91.0575 10.3C86.6575 2.7 77.7575 -1.1 69.1575 1.1C60.5575 3.3 54.6575 11.1 54.7575 19.9C54.7575 22.5 55.2575 25.1 56.2575 27.5C52.5575 27.9 48.9575 28.8 45.4575 30.2C41.8575 27.5 35.3575 24.7 24.4575 26L22.0575 26.3L23.1575 28.4C23.8575 29.8 24.6575 31.1 25.3575 32.2C27.2575 34.9 28.5575 38 29.0575 41.3C26.2575 44.6 24.1575 48.4 23.0575 52.6H20.0575C18.6575 52.6 17.2575 53.1 16.2575 54.2C15.2575 55.2 14.8575 56.6 14.9575 58V71.1C15.0575 75.1 18.8575 75.1 20.2575 75.1ZM25.8575 56L26.1575 54.7C27.1575 50.4 29.2575 46.3 32.1575 43L32.6575 42.5V41.8C32.2575 37.7 30.8575 33.9 28.4575 30.5L28.3575 30.3L27.6575 29.1C36.5575 28.6 41.7575 31.1 44.3575 33.4L45.0575 34L45.9575 33.6C49.7575 32 53.7575 31.1 57.8575 30.7H58.1575C61.0575 35 65.4575 38 70.5575 39C75.6575 40 80.8575 38.9 85.1575 36H85.2575C93.5575 41.1 98.8575 50 99.2575 59.8C99.2575 68.4 94.6575 76.5 86.5575 82.1L85.6575 82.7L88.5575 97.1C88.4575 97.1 88.3575 97.1 88.1575 97.1H76.5575C76.0575 97.1 75.5575 96.7 75.3575 96.3L73.5575 87.9L71.9575 88.2C65.5575 89.4 59.0575 89.4 52.6575 88.2L51.0575 87.9L49.1575 96.3C48.9575 96.8 48.5575 97.1 47.9575 97.1H36.5575C36.3575 97.1 36.2575 97.1 36.2575 97L39.2575 83.4L37.8575 83.1C33.0575 81.5 29.2575 77.8 27.4575 73L27.0575 72H20.2575C18.4575 72 18.4575 71.9 18.4575 71.3V58.1C18.4575 56.7 19.0575 56.1 20.1575 56.1L25.8575 56ZM74.2575 36.8C64.9575 36.8 57.3575 29.2 57.3575 19.9C57.3575 10.6 64.8575 3 74.2575 3C83.6575 3 91.1575 10.6 91.1575 19.9C91.1575 29.3 83.5575 36.8 74.2575 36.8Z" fill="black"/>
<path d="M34.1573 56C34.5573 56.2 34.9573 56.3 35.4573 56.2C35.8573 56.1 36.2573 55.8 36.4573 55.4C36.9573 54.4 37.6573 53.5 38.4573 52.7C38.9573 52.2 39.0573 51.5 38.8573 50.9C38.5573 50.3 37.9573 49.9 37.3573 49.9C36.9573 49.9 36.4573 50.1 36.1573 50.4C35.1573 51.4 34.2573 52.6 33.5573 53.8C33.3573 54.2 33.2573 54.6 33.3573 55.1C33.4573 55.4 33.7573 55.7 34.1573 56Z" fill="black"/>
<path d="M79.0574 28.3C78.2574 29.3 76.9574 29.9 75.5574 30.2V32.3C75.5574 32.9 75.0574 33.4 74.4574 33.4C73.8574 33.4 73.3574 32.9 73.3574 32.3V30.2C71.8574 30 70.3574 29.5 68.9574 28.6C68.4574 28.2 68.2574 27.6 68.6574 27C69.0574 26.5 69.6574 26.3 70.2574 26.7C73.1574 28.6 76.3574 28.3 77.4574 26.9C78.2574 25.9 78.2574 24.3 77.4574 23.2C76.7574 22.2 75.5574 22 74.2574 21.7C72.6574 21.4 70.8574 21.1 69.6574 19.3C68.3574 17.4 68.3574 14.7 69.6574 12.9C70.4574 11.9 71.7574 11.2 73.2574 10.9V8.70001C73.2574 8.10001 73.7574 7.60001 74.3574 7.60001C74.9574 7.60001 75.4574 8.10001 75.4574 8.70001V11C76.8574 11.2 78.2574 11.8 79.4574 12.8C79.9574 13.2 79.9574 13.9 79.6574 14.4C79.2574 14.9 78.5574 14.9 78.0574 14.6C76.9574 13.7 75.6574 13.2 74.3574 13.2C74.1574 13.2 73.9574 13.2 73.7574 13.2C72.7574 13.3 71.8574 13.7 71.4574 14.3C70.7574 15.3 70.7574 16.9 71.4574 17.9C72.1574 18.9 73.2574 19.1 74.6574 19.4C76.2574 19.7 78.0574 20 79.2574 21.7C80.4574 23.7 80.4574 26.5 79.0574 28.3Z" fill="black"/>
</g>
<defs>
<clipPath id="clip0">
<rect width="130" height="100" fill="white" transform="translate(0 0.5)"/>
</clipPath>
</defs>
</svg>
