<svg width="130" height="101" viewBox="0 0 130 101" fill="none" xmlns="http://www.w3.org/2000/svg">
<g clip-path="url(#clip0)">
<path d="M51.8501 42.2H41.8501C39.1501 42.2 37.05 40 37.05 37.4V27.3C37.05 24.6 39.2501 22.5 41.8501 22.5H51.9501C54.6501 22.5 56.75 24.7 56.75 27.3V37.4C56.75 40 54.5501 42.2 51.8501 42.2ZM41.8501 27.2C41.7501 27.2 41.7501 27.2 41.8501 27.2L41.75 37.3C41.75 37.3 41.7501 37.4 41.8501 37.4H51.9501C51.9501 37.4 52.05 37.4 52.05 37.3V27.3C52.05 27.3 52.0501 27.2 51.9501 27.2H41.8501Z" fill="black"/>
<path d="M88.05 42.2H78.05C75.35 42.2 73.25 40 73.25 37.4V27.3C73.25 24.6 75.45 22.5 78.05 22.5H88.15C90.85 22.5 92.95 24.7 92.95 27.3V37.4C92.95 40 90.75 42.2 88.05 42.2ZM78.05 27.2C77.95 27.2 77.95 27.2 78.05 27.2L77.95 37.3C77.95 37.3 77.95 37.4 78.05 37.4H88.15C88.15 37.4 88.25 37.4 88.25 37.3V27.3C88.25 27.3 88.25 27.2 88.15 27.2H78.05Z" fill="black"/>
<path d="M88.05 78.6H78.05C75.35 78.6 73.25 76.4 73.25 73.8V63.7C73.25 61 75.45 58.9 78.05 58.9H88.15C90.85 58.9 92.95 61.1 92.95 63.7V73.8C92.95 76.4 90.75 78.6 88.05 78.6ZM78.05 63.6C77.95 63.6 77.95 63.6 78.05 63.6L77.95 73.7C77.95 73.7 77.95 73.8 78.05 73.8H88.15C88.15 73.8 88.25 73.8 88.25 73.7V63.7C88.25 63.7 88.25 63.6 88.15 63.6H78.05Z" fill="black"/>
<path d="M62.4499 78.6H52.4499C49.7499 78.6 47.6499 76.4 47.6499 73.8V63.7C47.6499 61 49.8499 58.9 52.4499 58.9H62.5499C65.2499 58.9 67.3499 61.1 67.3499 63.7V73.8C67.3499 76.4 65.1499 78.6 62.4499 78.6ZM52.4499 63.6C52.3499 63.6 52.3499 63.6 52.4499 63.6L52.3499 73.7C52.3499 73.7 52.3499 73.8 52.4499 73.8H62.5499C62.5499 73.8 62.6499 73.8 62.6499 73.7V63.7C62.6499 63.7 62.6499 63.6 62.5499 63.6H52.4499Z" fill="black"/>
<path d="M39.35 78.6C38.05 78.6 36.95 77.5 36.95 76.2V50.5C36.95 49.2 38.05 48.1 39.35 48.1H62.5499V24.8C62.5499 23.5 63.65 22.4 64.95 22.4C66.25 22.4 67.35 23.5 67.35 24.8V50.5C67.35 51.8 66.25 52.9 64.95 52.9H41.75V76.2C41.75 77.5 40.65 78.6 39.35 78.6Z" fill="black"/>
<path d="M90.5499 52.9H75.5499C74.2499 52.9 73.1499 51.8 73.1499 50.5C73.1499 49.2 74.2499 48.1 75.5499 48.1H90.5499C91.8499 48.1 92.9499 49.2 92.9499 50.5C92.9499 51.8 91.8499 52.9 90.5499 52.9Z" fill="black"/>
<path d="M17.35 34.6C16.05 34.6 14.95 33.5 14.95 32.2V9.2C14.95 4.4 18.85 0.5 23.65 0.5H48.0499C49.3499 0.5 50.45 1.6 50.45 2.9C50.45 4.2 49.3499 5.3 48.0499 5.3H23.65C21.45 5.3 19.65 7.1 19.65 9.3V32.3C19.75 33.6 18.65 34.6 17.35 34.6Z" fill="black"/>
<path d="M112.55 36C111.25 36 110.15 34.9 110.15 33.6V9.2C110.15 7 108.35 5.2 106.15 5.2H83.15C81.85 5.2 80.75 4.1 80.75 2.8C80.75 1.5 81.85 0.5 83.25 0.5H106.25C111.05 0.5 114.95 4.4 114.95 9.2V33.6C114.95 34.9 113.85 36 112.55 36Z" fill="black"/>
<path d="M106.25 100.5H81.85C80.55 100.5 79.45 99.4 79.45 98.1C79.45 96.8 80.55 95.7 81.85 95.7H106.25C108.45 95.7 110.25 93.9 110.25 91.7V68.7C110.25 67.4 111.35 66.3 112.65 66.3C113.95 66.3 115.05 67.4 115.05 68.7V91.7C114.95 96.6 111.05 100.5 106.25 100.5Z" fill="black"/>
<path d="M46.65 100.5H23.65C18.85 100.5 14.95 96.6 14.95 91.8V67.4C14.95 66.1 16.05 65 17.35 65C18.65 65 19.75 66.1 19.75 67.4V91.8C19.75 94 21.55 95.8 23.75 95.8H46.75C48.05 95.8 49.15 96.9 49.15 98.2C49.05 99.4 48.05 100.5 46.65 100.5Z" fill="black"/>
</g>
<defs>
<clipPath id="clip0">
<rect width="130" height="100" fill="white" transform="translate(0 0.5)"/>
</clipPath>
</defs>
</svg>
