<svg width="130" height="101" viewBox="0 0 130 101" fill="none" xmlns="http://www.w3.org/2000/svg">
<g clip-path="url(#clip0)">
<path d="M80.6499 58C74.4499 53 72.0499 55.5 69.6499 58L69.2499 58.4C69.0499 58.6 68.0499 58.4 66.5499 57.4C64.4499 56 62.5499 54.3 60.8499 52.5C53.9499 45.6 54.9499 44.1 54.9499 44.1L55.4499 43.7C57.8499 41.4 60.3499 38.9 55.4499 32.7C54.2499 30.9 52.4499 29.7 50.3499 29.5C47.9499 29.8 45.7499 31.1 44.3499 33H44.0499L43.4499 33.6C41.5499 35.4 41.5499 39.4 43.4499 44.1C45.8499 49.9 49.4499 55.1 53.9499 59.4C58.2499 63.9 63.4499 67.5 69.2499 69.9C71.2499 70.7 73.3499 71.1 75.4499 71.2C77.0499 71.3 78.5499 70.8 79.7499 69.8C79.9499 69.6 80.2499 69.3 80.5499 69.1C82.5499 67.7 83.8499 65.5 84.0499 63.1C83.7499 60.9 82.4499 59.1 80.6499 58ZM50.0499 31.9C51.4499 32.2 52.5499 33 53.3499 34.2C56.9499 38.6 55.8499 39.6 53.6499 41.8L53.2499 42.2C51.1499 44.3 52.9499 48 59.1499 54.2C61.0499 56.1 63.0499 57.9 65.2499 59.4C67.8499 61.1 69.8499 61.3 71.1499 60L71.6499 59.5C73.9499 57.2 74.8499 56.2 79.2499 59.8C80.4499 60.5 81.2499 61.7 81.5499 63.1C81.5499 64.5 80.1499 65.9 78.7499 67.2L78.6499 67.3C78.3499 67.5 78.1499 67.7 77.9499 68C77.0499 68.9 74.2499 69.1 70.1499 67.5C64.7499 65.2 59.8499 61.8 55.7499 57.6C51.4499 53.5 48.1499 48.6 45.8499 43.2C44.2499 39.1 44.4499 36.3 45.3499 35.4C45.6499 35.1 45.9499 34.9 46.1499 34.6C47.1499 33.4 48.5499 31.9 50.0499 31.9Z" fill="black"/>
<path d="M74.65 25.7C67.25 25.7 61.25 31.7 61.25 39.1C61.25 46.5 67.25 52.5 74.65 52.5C82.05 52.5 88.05 46.5 88.05 39.1C88.05 31.7 82.05 25.8 74.65 25.7ZM74.65 50.1C68.55 50.1 63.65 45.2 63.65 39.1C63.65 33 68.55 28.1 74.65 28.1C80.75 28.1 85.65 33 85.65 39.1C85.65 45.2 80.75 50.1 74.65 50.1Z" fill="black"/>
<path d="M78.25 45C77.65 45.8 76.65 46.2 75.65 46.4V48C75.65 48.5 75.25 48.9 74.75 48.9C74.25 48.9 73.85 48.5 73.85 48V46.4C72.75 46.3 71.55 45.9 70.55 45.2C70.15 44.9 70.05 44.4 70.35 44C70.65 43.6 71.15 43.5 71.55 43.8C73.75 45.2 76.15 45 76.95 44C77.55 43.3 77.55 42 76.95 41.2C76.45 40.5 75.55 40.3 74.55 40.1C73.35 39.9 71.95 39.6 71.05 38.3C70.05 36.9 70.05 34.8 71.05 33.5C71.65 32.7 72.65 32.2 73.75 32V30.3C73.75 29.8 74.15 29.4 74.65 29.4C75.15 29.4 75.55 29.8 75.55 30.3V32C76.65 32.2 77.65 32.6 78.55 33.3C78.95 33.6 78.95 34.2 78.65 34.5C78.35 34.9 77.75 34.9 77.45 34.6C76.65 33.9 75.65 33.6 74.65 33.6C74.55 33.6 74.35 33.6 74.25 33.6C73.45 33.7 72.85 34 72.55 34.5C72.05 35.2 72.05 36.5 72.55 37.2C73.05 37.9 73.95 38.1 74.95 38.3C76.15 38.5 77.55 38.8 78.45 40C79.35 41.5 79.35 43.7 78.25 45Z" fill="black"/>
<path d="M85.1499 0.400002H44.75C36.55 0.400002 29.95 6.8 29.95 14.7V86.2C29.95 94.1 36.55 100.5 44.75 100.5H85.2499C93.3499 100.5 100.05 94.1 100.05 86.2V14.7C99.9499 6.8 93.3499 0.400002 85.1499 0.400002ZM44.75 5.3H85.2499C90.2499 5.3 94.35 8.9 94.85 13.6H35.15C35.65 9 39.75 5.3 44.75 5.3ZM94.85 86.1C94.85 91.3 90.5499 95.4 85.1499 95.4H44.75C39.45 95.4 35.05 91.2 35.05 86.1V83.3H94.85V86.1ZM94.85 78.4H35.05V18.5H94.85V78.4Z" fill="black"/>
<path d="M64.9501 93.6C62.6501 93.6 60.8501 91.7 60.8501 89.5C60.8501 87.3 62.6501 85.4 64.9501 85.4C67.2501 85.4 69.0501 87.3 69.0501 89.5C69.0501 91.7 67.2501 93.6 64.9501 93.6ZM64.9501 87.4C63.7501 87.4 62.8501 88.4 62.8501 89.5C62.8501 90.6 63.8501 91.6 64.9501 91.6C66.0501 91.6 67.0501 90.6 67.0501 89.5C67.0501 88.4 66.1501 87.4 64.9501 87.4Z" fill="black"/>
</g>
<defs>
<clipPath id="clip0">
<rect width="130" height="100" fill="white" transform="translate(0 0.5)"/>
</clipPath>
</defs>
</svg>
