<svg width="130" height="101" viewBox="0 0 130 101" fill="none" xmlns="http://www.w3.org/2000/svg">
<g clip-path="url(#clip0)">
<path d="M98.4868 82.45C99.2868 82.65 99.9868 83.25 99.7868 84.15L97.8868 98.75C97.6868 99.55 97.0868 100.25 95.9868 100.25C95.1868 100.05 94.4868 99.45 94.6868 98.35L95.9868 88.85C93.8868 90.35 91.7868 91.85 89.3868 92.85C80.2868 97.55 69.8868 99.65 59.5868 98.95C52.7868 98.55 46.0868 96.85 39.8868 94.05C36.6868 92.55 33.7868 90.85 30.7868 88.95C30.1868 88.55 29.9868 87.45 30.3868 86.65C30.7868 86.05 31.8868 85.85 32.6868 86.25C37.9868 90.05 44.0868 92.85 50.4868 94.25C53.6868 95.05 56.7868 95.55 59.9868 95.75C63.1868 95.95 66.2868 95.95 69.4868 95.55C72.6868 95.15 75.7868 94.45 78.9868 93.65C82.1868 92.85 85.0868 91.55 88.0868 90.05C90.7868 88.75 93.3868 87.05 95.6868 85.15L83.8868 83.65C83.0868 83.45 82.3868 82.85 82.3868 81.95C82.5868 81.15 83.1868 80.45 84.2868 80.45L98.4868 82.45Z" fill="black"/>
<path d="M31.6868 17.75C30.5868 17.75 30.1868 16.95 30.1868 16.05L32.0868 1.65C32.2868 0.65 33.1868 0.25 33.9868 0.25C34.7868 0.45 35.4868 1.05 35.4868 1.95L33.9868 11.45C36.0868 9.95 38.3868 8.45 40.5868 7.45C46.6868 4.25 53.1868 2.35 60.1868 1.55C70.3868 0.45 80.6868 1.95 89.9868 6.15C93.1868 7.65 96.0868 9.35 99.0868 11.25C99.8868 12.05 99.8868 12.95 99.4868 13.75C99.0868 14.35 97.9868 14.55 97.3868 14.15C92.0868 10.35 85.9868 7.55 79.5868 6.15C73.4868 4.65 66.9868 4.25 60.5868 4.95C54.1868 5.65 47.9868 7.45 42.1868 10.35C39.4868 11.65 36.8868 13.05 34.5868 15.05L46.3868 16.75C47.1868 16.95 47.8868 17.55 47.6868 18.45C47.6868 19.25 46.8868 19.95 45.9868 19.75L31.6868 17.75Z" fill="black"/>
<path d="M75.9868 69.05C73.9868 71.45 70.9868 72.95 67.5868 73.55V78.55C67.5868 80.05 66.3868 81.25 64.8868 81.25C63.3868 81.25 62.1868 80.05 62.1868 78.55V73.55C58.5868 73.15 54.9868 71.75 51.5868 69.65C50.2868 68.75 49.9868 67.15 50.7868 65.85C51.6868 64.55 53.2868 64.25 54.5868 65.05C61.4868 69.55 69.2868 68.85 71.8868 65.55C73.7868 63.25 73.7868 59.15 71.7868 56.55C70.1868 54.25 67.2868 53.75 64.0868 53.05C60.2868 52.25 55.8868 51.55 52.9868 47.35C49.7868 42.85 49.7868 36.25 53.0868 32.05C54.9868 29.55 58.0868 27.85 61.7868 27.35V21.75C61.7868 20.25 62.9868 19.05 64.4868 19.05C65.9868 19.05 67.1868 20.25 67.1868 21.75V27.35C70.5868 27.85 73.9868 29.35 76.7868 31.65C77.9868 32.65 78.0868 34.35 77.1868 35.45C76.1868 36.65 74.4868 36.75 73.3868 35.85C70.7868 33.75 67.5868 32.55 64.4868 32.55C64.0868 32.55 63.4868 32.55 63.0868 32.65C60.6868 32.95 58.5868 33.95 57.4868 35.35C55.6868 37.65 55.6868 41.55 57.5868 44.15C59.1868 46.45 61.9868 46.95 65.2868 47.65C69.0868 48.45 73.4868 49.15 76.3868 53.25C79.4868 57.95 79.4868 64.85 75.9868 69.05Z" fill="black"/>
</g>
<defs>
<clipPath id="clip0">
<rect width="130" height="100" fill="white" transform="translate(0 0.25)"/>
</clipPath>
</defs>
</svg>
