<svg width="130" height="101" viewBox="0 0 130 101" fill="none" xmlns="http://www.w3.org/2000/svg">
<g clip-path="url(#clip0)">
<path d="M89.3 45.4477L108.5 34.9477L89.6 0.54772L89.4 0.14772L25.3 35.2477L24.9 35.4477L26.5 38.5477C23.6 39.0477 21.5 41.5477 21.5 44.5477V93.1477C21.7 97.1477 25 100.348 29.1 100.248H83.1C84.7 100.248 86.3 99.6477 87.4 98.4477C88.5 97.3477 89.2 95.7477 89.2 94.1477V82.2477H91C93.1 82.2477 94.7 80.5477 94.7 78.5477V60.0477C94.7 59.0477 94.3 58.1477 93.6 57.4477C92.9 56.7477 92 56.3477 91 56.3477H89.3V45.4477V45.4477ZM99.7 25.0477L104.5 33.8477L95.6 38.7477C93.7 33.7477 95.4 28.1477 99.7 25.0477ZM92.2 78.5477C92.2 79.1477 91.7 79.7477 91 79.7477H71.3C66.3 79.7477 62.2 75.6477 62.2 70.6477V67.9477C62.2 62.9477 66.3 58.8477 71.3 58.8477H91C91.6 58.8477 92.2 59.3477 92.2 60.0477V78.5477ZM27.6 40.9477H81.6C84.2 40.8477 86.5 42.8477 86.7 45.5477V56.4477H71.3C64.9 56.4477 59.7 61.6477 59.7 68.0477V70.7477C59.7 77.1477 64.9 82.3477 71.3 82.3477H86.8V94.1477C86.8 96.0477 85.2 97.6477 83.3 97.6477H29.3C26.7 97.7477 24.4 95.7477 24.2 93.0477V44.4477C24.2 42.5477 25.7 40.9477 27.6 40.9477ZM93.6 39.8477L88.7 42.5477C87.4 39.9477 84.7 38.3477 81.8 38.3477H79C79.8 35.2477 79.4 31.9477 77.9 29.1477C74.8 23.5477 68.1 21.0477 62.1 23.4477C56.1 25.8477 52.9 32.1477 54.4 38.3477H40.7C41.2 35.7477 40.9 33.0477 39.8 30.5477L77.2 10.0477C81 15.4477 88.1 17.4477 94.1 14.8477L98.4 23.0477C93.1 26.8477 91.1 33.7477 93.6 39.8477ZM72.5 35.7477C71.2 33.3477 69 33.5477 66.9 34.1477L64.9 30.5477C65.7 30.2477 66.5 30.0477 67.4 30.0477H67.5C68 30.0477 68.3 29.6477 68.3 29.2477C68.3 28.8477 67.9 28.4477 67.5 28.4477C66.3 28.4477 65.2 28.6477 64.1 29.1477L63.8 28.5477C63.7 28.2477 63.4 28.1477 63.1 28.0477C62.8 28.0477 62.5 28.1477 62.4 28.4477C62.3 28.7477 62.3 29.0477 62.4 29.2477L62.7 29.8477C60.7 31.1477 60 32.9477 61 34.6477C62.3 37.0477 64.8 36.4477 66.3 35.9477L67.6 38.2477H56.6C55.2 33.8477 56.8 29.0477 60.6 26.4477C64.3 23.7477 69.4 23.7477 73.1 26.4477C76.8 29.1477 78.4 33.9477 77.1 38.2477H72.8C73 37.5477 73 36.5477 72.5 35.7477ZM62.5 33.9477C61.9 32.8477 62.7 31.8477 63.6 31.2477L65.4 34.5477C64.3 34.8477 63.1 35.0477 62.5 33.9477ZM71.1 36.5477C71.4 37.1477 71.3 37.8477 70.8 38.3477H69.3L67.8 35.5477C69.6 35.2477 70.5 35.4477 71.1 36.5477ZM79.3 8.94772L88.2 4.04772L93 12.8477C88.1 14.7477 82.5 13.1477 79.3 8.94772ZM37.8 31.6477C38.6 33.7477 38.8 36.0477 38.3 38.3477H29.9L28.9 36.5477L37.8 31.6477Z" fill="black"/>
<path d="M72.5 63.4477C69.3 63.4477 66.7 66.0477 66.7 69.2477C66.7 72.4477 69.3 75.0477 72.5 75.0477C75.7 75.0477 78.3 72.4477 78.3 69.2477C78.3 66.0477 75.7 63.4477 72.5 63.4477ZM76.5 69.3477C76.5 71.5477 74.7 73.2477 72.6 73.2477C70.4 73.2477 68.7 71.4477 68.7 69.3477C68.7 67.1477 70.5 65.4477 72.6 65.4477C74.7 65.3477 76.5 67.1477 76.5 69.3477Z" fill="black"/>
</g>
<defs>
<clipPath id="clip0">
<rect width="130" height="100" fill="white" transform="translate(0 0.25)"/>
</clipPath>
</defs>
</svg>
