<svg width="40" height="40" viewBox="0 0 40 40" fill="none" xmlns="http://www.w3.org/2000/svg">
<g clip-path="url(#clip0)">
<path d="M39.7328 0.255361C39.5337 0.0553784 39.2664 -0.0200694 39.0065 0.00447382H0.98166C0.721683 -0.0191604 0.455344 0.0562874 0.25627 0.255361C0.174459 0.337171 0.115374 0.432617 0.0717414 0.533518C0.0181098 0.649871 -0.0173416 0.777132 -0.0173416 0.913484C-0.0173416 1.17891 0.0999207 1.41253 0.281723 1.57797L13.6178 20.2481V39.0301C13.6105 39.1683 13.6314 39.3064 13.6878 39.4355C13.8232 39.7664 14.1469 40 14.5268 40C14.8022 40 15.0404 39.8709 15.2077 39.6782L26.0976 28.8128C26.3039 28.6065 26.3767 28.3283 26.3439 28.0602V20.2527L39.7328 1.54252C40.0891 1.1871 40.0891 0.610783 39.7328 0.255361V0.255361ZM24.7841 19.3427C24.5941 19.5327 24.5132 19.7836 24.5259 20.0327V27.8074L15.4358 36.8766V20.0327C15.4486 19.7845 15.3677 19.5327 15.1777 19.3427L2.66333 1.82249H37.3221L24.7841 19.3427V19.3427Z" fill="black"/>
</g>
<defs>
<clipPath id="clip0">
<rect width="40" height="40" fill="white"/>
</clipPath>
</defs>
</svg>
