<svg width="40" height="40" viewBox="0 0 40 40" fill="none" xmlns="http://www.w3.org/2000/svg">
<g clip-path="url(#clip0)">
<path fill-rule="evenodd" clip-rule="evenodd" d="M0.000135633 12.4765C-0.000169542 12.4907 0.000135633 12.5044 0.000135633 12.5186V35C0.000135633 37.7529 2.24729 40 5.00012 40H35C37.7529 40 40 37.7529 40 35V12.4973C39.9985 9.7457 37.7519 7.50011 35 7.50011H5.00012C2.25523 7.50011 0.012953 9.73441 0.000135633 12.4765ZM2.5694 11.9176C2.8346 10.8227 3.8284 10.0001 5.00012 10.0001H35C36.1718 10.0001 37.1654 10.8227 37.4306 11.9175L20.0001 24.6999L2.5694 11.9176ZM37.5 14.9668V35C37.5 36.3721 36.3721 37.5 35 37.5H5.00012C3.62805 37.5 2.50013 36.3721 2.50013 35V14.9669L19.2608 27.258C19.7008 27.5807 20.2992 27.5807 20.7392 27.258L37.5 14.9668Z" fill="black"/>
</g>
<defs>
<clipPath id="clip0">
<rect width="40" height="40" fill="white"/>
</clipPath>
</defs>
</svg>
