<svg width="40" height="40" viewBox="0 0 40 40" fill="none" xmlns="http://www.w3.org/2000/svg">
<g clip-path="url(#clip0)">
<path d="M20.0399 17.6178C24.8647 17.6178 28.8123 13.6538 28.8123 8.80888C28.8123 3.964 24.8647 0 20.0399 0C15.2151 0 11.2675 3.964 11.2675 8.80888C11.2675 13.6538 15.2151 17.6178 20.0399 17.6178ZM20.0399 1.60161C23.9875 1.60161 27.2173 4.84488 27.2173 8.80888C27.2173 12.7729 23.9875 16.0161 20.0399 16.0161C16.0923 16.0161 12.8625 12.7729 12.8625 8.80888C12.8625 4.84488 16.0923 1.60161 20.0399 1.60161Z" fill="black"/>
<path d="M4.12986 29.5498H35.9099C36.3485 29.5498 36.7074 29.1894 36.7074 28.749C36.7074 23.2234 32.6003 18.4986 27.1375 17.7379C26.9381 17.6978 26.7387 17.7779 26.5394 17.898C24.7051 19.2594 22.4323 20.0202 20.0398 20.0202C17.6473 20.0202 15.3745 19.2594 13.5004 17.858C13.3409 17.7379 13.1415 17.6978 12.9023 17.6978C7.43945 18.4586 3.33237 23.1833 3.33237 28.7089C3.33237 29.1894 3.69124 29.5498 4.12986 29.5498ZM12.8225 19.3795C14.9359 20.861 17.448 21.6218 20.0398 21.6218C22.6317 21.6218 25.1438 20.821 27.2571 19.3795C31.4838 20.1002 34.7137 23.7039 35.0725 27.9481H4.96722C5.3261 23.6638 8.55594 20.1002 12.8225 19.3795Z" fill="black"/>
<path d="M3.29262 39.9129L5.52907 34.7937H6.35684L8.59329 39.9129H7.64934L7.13379 38.6857H4.73034L4.20753 39.9129H3.29262ZM5.05709 37.8943H6.80704L5.92843 35.8611L5.05709 37.8943ZM11.2011 40C9.71982 40 8.61611 38.8455 8.61611 37.386V37.3714C8.61611 35.9265 9.69803 34.7429 11.2374 34.7429C12.1741 34.7429 12.7405 35.0696 13.227 35.5344L12.6533 36.1951C12.2467 35.8175 11.811 35.5634 11.2301 35.5634C10.2571 35.5634 9.55281 36.3621 9.55281 37.3569V37.3714C9.55281 38.3662 10.2571 39.1795 11.2301 39.1795C11.8546 39.1795 12.254 38.9253 12.6896 38.5187L13.2633 39.0996C12.7332 39.6515 12.1523 40 11.2011 40ZM13.8888 39.9129V34.83H17.6573V35.6288H14.7819V36.9503H17.3306V37.749H14.7819V39.1141H17.6937V39.9129H13.8888ZM20.2216 39.9855C19.4446 39.9855 18.7113 39.7168 18.1013 39.1722L18.6386 38.5332C19.1251 38.9544 19.6116 39.194 20.2434 39.194C20.7952 39.194 21.1438 38.9399 21.1438 38.555V38.5405C21.1438 38.1774 20.9404 37.9814 19.9965 37.7635C18.9146 37.5021 18.3046 37.1827 18.3046 36.246V36.2314C18.3046 35.3601 19.0307 34.7574 20.0401 34.7574C20.7807 34.7574 21.3689 34.9825 21.8844 35.3964L21.4052 36.0717C20.9477 35.7304 20.4903 35.5489 20.0255 35.5489C19.5027 35.5489 19.1978 35.8175 19.1978 36.1516V36.1661C19.1978 36.5582 19.4301 36.7325 20.4031 36.9648C21.4778 37.2262 22.0369 37.6111 22.0369 38.4534V38.4679C22.0369 39.4191 21.289 39.9855 20.2216 39.9855ZM24.4849 39.9855C23.708 39.9855 22.9746 39.7168 22.3647 39.1722L22.902 38.5332C23.3885 38.9544 23.875 39.194 24.5067 39.194C25.0586 39.194 25.4071 38.9399 25.4071 38.555V38.5405C25.4071 38.1774 25.2038 37.9814 24.2599 37.7635C23.1779 37.5021 22.568 37.1827 22.568 36.246V36.2314C22.568 35.3601 23.2941 34.7574 24.3034 34.7574C25.0441 34.7574 25.6322 34.9825 26.1478 35.3964L25.6685 36.0717C25.2111 35.7304 24.7536 35.5489 24.2889 35.5489C23.7661 35.5489 23.4611 35.8175 23.4611 36.1516V36.1661C23.4611 36.5582 23.6935 36.7325 24.6665 36.9648C25.7411 37.2262 26.3002 37.6111 26.3002 38.4534V38.4679C26.3002 39.4191 25.5523 39.9855 24.4849 39.9855ZM26.4973 39.9129L28.7338 34.7937H29.5616L31.798 39.9129H30.8541L30.3385 38.6857H27.9351L27.4122 39.9129H26.4973ZM28.2618 37.8943H30.0118L29.1332 35.8611L28.2618 37.8943ZM32.3582 39.9129V34.83H34.6237C35.2626 34.83 35.7637 35.0188 36.0904 35.3383C36.3591 35.6142 36.5116 35.9918 36.5116 36.4347V36.4493C36.5116 37.2843 36.0105 37.7853 35.2989 37.9886L36.6713 39.9129H35.6184L34.3695 38.1411H33.2513V39.9129H32.3582ZM33.2513 37.3497H34.5583C35.1973 37.3497 35.6039 37.0156 35.6039 36.5001V36.4856C35.6039 35.941 35.2118 35.6433 34.551 35.6433H33.2513V37.3497Z" fill="black"/>
</g>
<defs>
<clipPath id="clip0">
<rect width="40" height="40" fill="white"/>
</clipPath>
</defs>
</svg>
