<svg width="40" height="40" viewBox="0 0 40 40" fill="none" xmlns="http://www.w3.org/2000/svg">
<path fill-rule="evenodd" clip-rule="evenodd" d="M20 2.40727C10.2838 2.40727 2.40727 10.2838 2.40727 20C2.40727 29.7162 10.2838 37.5927 20 37.5927C29.7162 37.5927 37.5927 29.7162 37.5927 20C37.5927 10.2838 29.7162 2.40727 20 2.40727ZM0 20C0 8.95431 8.95431 0 20 0C31.0457 0 40 8.95431 40 20C40 31.0457 31.0457 40 20 40C8.95431 40 0 31.0457 0 20Z" fill="black"/>
<path fill-rule="evenodd" clip-rule="evenodd" d="M13.2132 13.2132C13.6832 12.7431 14.4453 12.7431 14.9154 13.2132L20 18.2978L25.0846 13.2132C25.5546 12.7431 26.3167 12.7431 26.7868 13.2132C27.2568 13.6832 27.2568 14.4453 26.7868 14.9154L21.7022 20L26.7868 25.0846C27.2568 25.5546 27.2568 26.3167 26.7868 26.7868C26.3167 27.2568 25.5546 27.2568 25.0846 26.7868L20 21.7022L14.9154 26.7868C14.4453 27.2568 13.6832 27.2568 13.2132 26.7868C12.7431 26.3167 12.7431 25.5546 13.2132 25.0846L18.2978 20L13.2132 14.9154C12.7431 14.4453 12.7431 13.6832 13.2132 13.2132Z" fill="black"/>
</svg>
