<svg width="40" height="40" viewBox="0 0 40 40" fill="none" xmlns="http://www.w3.org/2000/svg">
<g clip-path="url(#clip0)">
<path d="M33.7931 22.069H6.20689C5.44512 22.069 4.82758 22.6865 4.82758 23.4483C4.82758 24.2101 5.44512 24.8276 6.20689 24.8276H33.7931C34.5549 24.8276 35.1724 24.2101 35.1724 23.4483C35.1724 22.6865 34.5549 22.069 33.7931 22.069Z" fill="black"/>
<path d="M33.7931 11.0345H14.4828C13.721 11.0345 13.1034 11.652 13.1034 12.4138C13.1034 13.1756 13.721 13.7931 14.4828 13.7931H33.7931C34.5549 13.7931 35.1724 13.1756 35.1724 12.4138C35.1724 11.652 34.5549 11.0345 33.7931 11.0345Z" fill="black"/>
<path d="M33.7931 0H6.20689C5.44512 0 4.82758 0.617538 4.82758 1.37931C4.82758 2.14108 5.44512 2.75862 6.20689 2.75862H33.7931C34.5549 2.75862 35.1724 2.14108 35.1724 1.37931C35.1724 0.617538 34.5549 0 33.7931 0Z" fill="black"/>
<path d="M4.82758 39.8938V33.1035H6.19034L8.40689 36.3145L10.6234 33.1035H11.9876V39.8938H10.7076V35.0248L8.40689 38.2248H8.36551L6.08689 35.0428V39.8938H4.82758ZM13.8607 39.8938V33.1035H19.2607V34.171H15.1407V35.9366H18.7931V37.0028H15.1407V38.8262H19.3131V39.8938H13.8621H13.8607ZM20.8331 39.8938V33.1035H22.0193L25.9214 37.7986V33.1035H27.1807V39.8938H26.109L22.091 35.0635V39.8938H20.8331ZM32.04 40C30.1462 40 28.9393 38.9821 28.9393 37.0124V33.1035H30.2193V36.9641C30.2193 38.2248 30.9159 38.9035 32.0607 38.9035C33.1959 38.9035 33.8924 38.2635 33.8924 37.0124V33.1035H35.1724V36.9545C35.1724 38.9821 33.9448 40 32.0414 40H32.04Z" fill="black"/>
</g>
<defs>
<clipPath id="clip0">
<rect width="40" height="40" fill="white"/>
</clipPath>
</defs>
</svg>
