<svg width="40" height="40" viewBox="0 0 40 40" fill="none" xmlns="http://www.w3.org/2000/svg">
<path fill-rule="evenodd" clip-rule="evenodd" d="M31.696 25.6971C29.3954 25.6971 27.344 26.7943 26.0309 28.488L15.0411 22.3509C15.3051 21.5925 15.44 20.7951 15.44 19.992C15.44 19.1611 15.2983 18.3726 15.0331 17.6251L26.0149 11.4949C26.681 12.3674 27.5394 13.0747 28.5233 13.5617C29.5072 14.0487 30.5902 14.3023 31.688 14.3029C35.6251 14.3029 38.84 11.096 38.84 7.15086C38.8385 5.25459 38.0845 3.43646 36.7435 2.0957C35.4025 0.754954 33.5842 0.00121067 31.688 0C29.7918 0.00121067 27.9735 0.754954 26.6325 2.0957C25.2915 3.43646 24.5375 5.25459 24.536 7.15086C24.536 7.98171 24.6766 8.77943 24.9429 9.51771L13.9691 15.648C13.3041 14.7738 12.4458 14.0655 11.4614 13.5784C10.477 13.0912 9.3932 12.8385 8.29485 12.84C4.35771 12.84 1.14285 16.0469 1.14285 19.992C1.14285 23.9371 4.35771 27.1429 8.304 27.1429C9.40368 27.1417 10.4883 26.887 11.4736 26.3986C12.4589 25.9103 13.3183 25.2013 13.9851 24.3269L24.968 30.4651C24.6943 31.2298 24.5536 32.0358 24.552 32.848C24.5547 34.7442 25.3093 36.5619 26.6502 37.9026C27.9911 39.2433 29.8089 39.9976 31.7051 40C33.6015 39.9985 35.4198 39.2445 36.7607 37.9035C38.1016 36.5626 38.8557 34.7443 38.8571 32.848C38.8571 28.9029 35.6423 25.6971 31.696 25.6971ZM31.696 2.25029C32.9977 2.2515 34.2458 2.76915 35.1664 3.68965C36.0869 4.61014 36.6045 5.85823 36.6057 7.16C36.6039 8.46137 36.0859 9.70889 35.1656 10.6289C34.2451 11.5489 32.9974 12.0662 31.696 12.0674C30.3947 12.0662 29.1471 11.5488 28.2269 10.6288C27.3066 9.70879 26.7889 8.46127 26.7874 7.16C26.7898 5.8588 27.3078 4.61158 28.2277 3.69138C29.1477 2.77119 30.3949 2.25301 31.696 2.25029ZM8.304 24.9006C7.00243 24.8993 5.7545 24.3818 4.83404 23.4616C3.91358 22.5414 3.39579 21.2936 3.39428 19.992C3.39549 18.6903 3.91318 17.4424 4.83371 16.5221C5.75424 15.6017 7.00234 15.0843 8.304 15.0834C9.60546 15.0847 10.8533 15.6022 11.7735 16.5224C12.6938 17.4427 13.2113 18.6905 13.2126 19.992C13.2098 21.293 12.6918 22.5399 11.7719 23.4599C10.8519 24.3799 9.60499 24.8978 8.304 24.9006ZM31.696 37.7486C30.3944 37.7471 29.1466 37.2293 28.2264 36.3088C27.3062 35.3883 26.7887 34.1405 26.7874 32.8389C26.7887 31.5374 27.3062 30.2896 28.2264 29.3693C29.1467 28.449 30.3945 27.9315 31.696 27.9303C32.9976 27.9315 34.2455 28.449 35.1659 29.3693C36.0864 30.2895 36.6042 31.5373 36.6057 32.8389C36.6045 34.1406 36.0869 35.3887 35.1664 36.3093C34.2458 37.2297 32.9977 37.7473 31.696 37.7486Z" fill="black"/>
</svg>
