<svg width="40" height="40" viewBox="0 0 40 40" fill="none" xmlns="http://www.w3.org/2000/svg">
<g clip-path="url(#clip0)">
<path d="M33.1758 33.7312C33.1757 33.5097 33.2193 33.2902 33.304 33.0855C33.3887 32.8807 33.5129 32.6947 33.6696 32.5379C33.8262 32.3812 34.0122 32.2568 34.2168 32.172C34.4215 32.0871 34.6409 32.0434 34.8625 32.0433H37.1501C37.9059 32.0433 38.6306 31.7431 39.1651 31.2088C39.6995 30.6745 39.9998 29.9498 40 29.194V11.0729C40 10.1779 39.6445 9.3195 39.0116 8.68663C38.3787 8.05376 37.5204 7.69821 36.6253 7.69821H3.37466C2.47965 7.69821 1.62129 8.05376 0.988416 8.68663C0.355544 9.3195 0 10.1779 0 11.0729V28.6692C0 29.5643 0.355544 30.4226 0.988416 31.0555C1.62129 31.6884 2.47965 32.0439 3.37466 32.0439H19.6379C20.56 32.0438 21.46 32.3271 22.2158 32.8553L32.2907 39.8981C32.375 39.9572 32.4739 39.992 32.5766 39.9988C32.6793 40.0056 32.782 39.984 32.8733 39.9364C32.9646 39.8889 33.0411 39.8172 33.0944 39.7291C33.1478 39.6411 33.1759 39.5401 33.1758 39.4371V33.7312V33.7312Z" fill="black"/>
<path d="M37.5997 11.528L20.4597 28.64L12.6697 20.862" fill="black"/>
</g>
<defs>
<clipPath id="clip0">
<rect width="40" height="40" fill="white"/>
</clipPath>
</defs>
</svg>
