<svg width="40" height="40" viewBox="0 0 40 40" fill="none" xmlns="http://www.w3.org/2000/svg">
<g clip-path="url(#clip0)">
<path d="M20.0239 25.7587C25.8065 25.7587 30.5376 21.0275 30.5376 15.2449C30.5376 9.46237 25.8065 4.73119 20.0239 4.73119C14.2413 4.73119 9.51015 9.46237 9.51015 15.2449C9.51015 21.0275 14.2413 25.7587 20.0239 25.7587ZM20.0239 6.64277C24.7551 6.64277 28.626 10.5137 28.626 15.2449C28.626 19.9761 24.7551 23.8471 20.0239 23.8471C15.2927 23.8471 11.4217 19.9761 11.4217 15.2449C11.4217 10.5137 15.2927 6.64277 20.0239 6.64277ZM0.955794 40H39.0442C39.5699 40 40 39.5699 40 39.0442C40 32.4492 35.0777 26.81 28.5305 25.902C28.2915 25.8542 28.0526 25.9498 27.8136 26.0932C25.6153 27.718 22.8913 28.626 20.0239 28.626C17.1565 28.626 14.4325 27.718 12.1864 26.0454C11.9952 25.902 11.7563 25.8542 11.4695 25.8542C4.92234 26.7622 0 32.4014 0 38.9964C0 39.5699 0.430107 40 0.955794 40V40ZM11.374 27.8614C13.9068 29.6296 16.9176 30.5376 20.0239 30.5376C23.1302 30.5376 26.141 29.5818 28.6738 27.8614C33.7395 28.7216 37.6105 33.0227 38.0406 38.0884H1.95938C2.38949 32.9749 6.26045 28.7216 11.374 27.8614V27.8614Z" fill="black"/>
</g>
<defs>
<clipPath id="clip0">
<rect width="40" height="40" fill="white"/>
</clipPath>
</defs>
</svg>
