<svg width="40" height="40" viewBox="0 0 40 40" fill="none" xmlns="http://www.w3.org/2000/svg">
<g clip-path="url(#clip0)">
<path d="M20.0378 17.5013C24.8308 17.5013 28.7523 13.5635 28.7523 8.75066C28.7523 3.9378 24.8308 0 20.0378 0C15.2449 0 11.3234 3.9378 11.3234 8.75066C11.3234 13.5635 15.2449 17.5013 20.0378 17.5013ZM20.0378 1.59103C23.9593 1.59103 27.1678 4.81286 27.1678 8.75066C27.1678 12.6885 23.9593 15.9103 20.0378 15.9103C16.1163 15.9103 12.9078 12.6885 12.9078 8.75066C12.9078 4.81286 16.1163 1.59103 20.0378 1.59103Z" fill="black"/>
<path d="M4.23304 29.3545H35.8065C36.2423 29.3545 36.5988 28.9965 36.5988 28.559C36.5988 23.0699 32.5184 18.3764 27.0911 17.6206C26.893 17.5809 26.695 17.6604 26.4969 17.7797C24.6746 19.1321 22.4165 19.8879 20.0396 19.8879C17.6627 19.8879 15.4046 19.1321 13.5427 17.74C13.3842 17.6206 13.1861 17.5809 12.9484 17.5809C7.52111 18.3366 3.44073 23.0301 3.44073 28.5192C3.44073 28.9965 3.79727 29.3545 4.23304 29.3545ZM12.8692 19.2515C14.9688 20.7232 17.4646 21.4789 20.0396 21.4789C22.6146 21.4789 25.1104 20.6834 27.21 19.2515C31.4092 19.9674 34.618 23.5472 34.9746 27.7635H5.06496C5.4215 23.5075 8.63035 19.9674 12.8692 19.2515Z" fill="black"/>
<path fill-rule="evenodd" clip-rule="evenodd" d="M6.13019 39.9813C5.13018 39.9813 4.18624 39.6355 3.40118 38.9346L4.09278 38.1121C4.71896 38.6542 5.34513 38.9626 6.15823 38.9626C6.86852 38.9626 7.31713 38.6355 7.31713 38.1402V38.1215C7.31713 37.6542 7.05544 37.4018 5.84047 37.1215C4.44792 36.785 3.66286 36.3738 3.66286 35.1681V35.1495C3.66286 34.0279 4.59746 33.2522 5.89655 33.2522C6.84983 33.2522 7.60685 33.542 8.27042 34.0747L7.65358 34.9438C7.06479 34.5046 6.47599 34.2709 5.87785 34.2709C5.20494 34.2709 4.81241 34.6167 4.81241 35.0467V35.0653C4.81241 35.57 5.11149 35.7943 6.36384 36.0934C7.74704 36.4299 8.46668 36.9252 8.46668 38.0093V38.028C8.46668 39.2523 7.50405 39.9813 6.13019 39.9813ZM9.48672 39.8879V33.3457H10.6363V39.8879H9.48672ZM15.0863 40C13.0395 40 11.6937 38.542 11.6937 36.6355V36.6168C11.6937 34.785 13.0956 33.2335 15.0676 33.2335C16.2078 33.2335 16.9087 33.5513 17.5817 34.1214L16.8527 34.9906C16.348 34.5607 15.8527 34.2896 15.0209 34.2896C13.8152 34.2896 12.8993 35.3457 12.8993 36.5981V36.6168C12.8993 37.9626 13.7872 38.9533 15.1237 38.9533C15.7405 38.9533 16.3013 38.757 16.7031 38.4579V37.2336H15.0302V36.2336H17.8153V38.9813C17.1704 39.5327 16.2452 40 15.0863 40ZM18.9101 39.8879V33.3457H19.9756L23.4803 37.8691V33.3457H24.6111V39.8879H23.6485L20.041 35.2336V39.8879H18.9101ZM28.3615 39.8879V33.3457H29.5111V39.8879H28.3615ZM30.8582 39.8879V33.3457H31.9237L35.4284 37.8691V33.3457H36.5593V39.8879H35.5966L31.9891 35.2336V39.8879H30.8582Z" fill="black"/>
</g>
<defs>
<clipPath id="clip0">
<rect width="40" height="40" fill="white"/>
</clipPath>
</defs>
</svg>
