<svg width="123" height="40" viewBox="0 0 123 40" fill="none" xmlns="http://www.w3.org/2000/svg">
<path d="M122.2 35.1C122.2 37.4 120.3 39.2 118.1 39.2H5.5C3.2 39.2 1.4 37.4 1.4 35.1V4.9C1.4 2.6 3.3 0.8 5.5 0.8H118.1C120.4 0.8 122.2 2.6 122.2 4.9V35.1ZM118.1 0H5.5C2.8 0 0.599998 2.2 0.599998 4.9V35.1C0.599998 37.8 2.8 40 5.5 40H118.1C120.8 40 123 37.8 123 35.1V4.9C123 2.2 120.8 0 118.1 0Z" fill="black"/>
<path d="M47.9 15.2H48.8V10.6H47.9V15.2ZM49.9 15.2H50.9L51.9 13.6H52L53 15.2H54.1L52.6 12.9L54.1 10.6H53.1L52.1 12.2H52L51 10.6H49.9L51.5 12.9L49.9 15.2ZM57.8 13.5C57.8 14.1 57.3 14.5 56.6 14.5C56.1 14.5 55.7 14.3 55.7 13.8C55.7 13.4 56 13.2 56.6 13.1L57.7 13C57.8 13.1 57.8 13.5 57.8 13.5ZM58.8 15.2V12C58.8 11 58.1 10.5 57 10.5C55.9 10.5 55.2 11 55.1 11.8H56C56.1 11.5 56.5 11.3 57 11.3C57.6 11.3 58 11.6 58 12.1V12.5H56.6C55.5 12.6 54.9 13 54.9 13.9C54.9 14.7 55.6 15.3 56.5 15.3C57.1 15.3 57.6 15 57.9 14.6H58V15.2C57.9 15.2 58.8 15.2 58.8 15.2ZM61.1 12.5C61.1 11.9 61.6 11.4 62.3 11.4C62.5 11.4 62.7 11.4 62.8 11.5V10.6C62.7 10.6 62.5 10.6 62.4 10.6C61.8 10.6 61.3 10.9 61.1 11.4H61V10.7H60.1V15.3H61L61.1 12.5ZM68.7 10.5C68 10.5 67.5 10.8 67.3 11.3H67.2V10.6H66.3V15.2H67.2V12.5C67.2 11.8 67.6 11.3 68.3 11.3C69 11.3 69.3 11.7 69.3 12.4V15.2H70.2V12.2C70.3 11.1 69.7 10.5 68.7 10.5ZM72.4 13.9C72.4 13.5 72.7 13.3 73.3 13.2L74.4 13.1V13.5C74.4 14.1 73.9 14.5 73.2 14.5C72.7 14.5 72.4 14.3 72.4 13.9ZM74.4 14.6L74.5 15.2H75.4V12C75.4 11 74.7 10.4 73.6 10.4C72.5 10.4 71.8 10.9 71.7 11.7H72.6C72.7 11.4 73.1 11.2 73.6 11.2C74.2 11.2 74.6 11.5 74.6 12V12.4L73.3 12.5C72.2 12.6 71.6 13 71.6 13.9C71.6 14.7 72.3 15.3 73.2 15.3C73.6 15.3 74.1 15 74.4 14.6Z" fill="black"/>
<path d="M25.6 21C25.6 18.2 27.9 16.8 28 16.7C26.7 14.8 24.6 14.5 23.9 14.5C22.2 14.3 20.5 15.5 19.6 15.5C18.7 15.5 17.3 14.5 15.9 14.5C14 14.5 12.3 15.6 11.3 17.3C9.3 20.7 10.8 25.8 12.7 28.6C13.7 30 14.8 31.5 16.2 31.4C17.6 31.3 18.2 30.5 19.9 30.5C21.6 30.5 22.1 31.4 23.6 31.4C25.1 31.4 26.1 30 27 28.7C28.1 27.1 28.6 25.6 28.6 25.5C28.6 25.5 25.7 24.3 25.6 21ZM24 9.10001C22.9 9.10001 21.5 9.90001 20.7 10.8C20 11.6 19.4 13 19.5 14.2C20.8 14.3 22 13.6 22.8 12.6C23.6 11.7 24.1 10.4 24 9.10001ZM39.4 26.4L41.3 20.8H41.4L43.3 26.4H39.4ZM40.2 18.7L35.6 31.4H37.7L38.9 28H43.8L45 31.4H47.1L42.5 18.7H40.2ZM52.6 29.9C51.1 29.9 50.1 28.6 50.1 26.8C50.1 24.9 51.1 23.7 52.6 23.7C54.1 23.7 55.1 24.9 55.1 26.8C55 28.7 54 29.9 52.6 29.9ZM53.1 22C51.8 22 50.7 22.6 50.1 23.6V22.1H48.2V34.5H50.1V29.9C50.7 30.9 51.7 31.5 53 31.5C55.3 31.5 56.9 29.6 56.9 26.8C57 23.9 55.4 22 53.1 22ZM62.8 29.9C61.3 29.9 60.4 28.6 60.4 26.8C60.4 24.9 61.4 23.7 62.8 23.7C64.3 23.7 65.3 24.9 65.3 26.8C65.3 28.7 64.3 29.9 62.8 29.9ZM63.3 22C62 22 60.9 22.6 60.3 23.6V22.1H58.4V34.5H60.3V29.9C60.9 30.9 61.9 31.5 63.2 31.5C65.5 31.5 67.1 29.6 67.1 26.8C67.3 23.9 65.7 22 63.3 22ZM78.2 24.2L76.8 23.9C75.1 23.5 74.5 23 74.5 22.1C74.5 21 75.6 20.2 77.1 20.2C78.6 20.2 79.7 21 79.8 22.2H81.7C81.6 20 79.8 18.5 77.1 18.5C74.4 18.5 72.4 20 72.4 22.2C72.4 24 73.5 25.1 75.8 25.6L77.6 26C79.3 26.4 80 27 80 28C80 29.1 78.8 30 77.2 30C75.5 30 74.3 29.2 74.1 27.9H72.1C72.2 30.2 74.1 31.7 77 31.7C80 31.7 81.9 30.2 81.9 27.8C81.9 25.9 80.8 24.8 78.2 24.2ZM86.1 19.9H84.2V22.1H82.8V23.6H84.2V29C84.2 30.8 84.9 31.5 86.8 31.5C87.2 31.5 87.7 31.5 87.9 31.4V29.9C87.7 29.9 87.5 29.9 87.3 29.9C86.5 29.9 86.2 29.5 86.2 28.7V23.6H88V22.1H86.2V19.9H86.1ZM93.3 30C91.7 30 90.8 28.8 90.8 26.8C90.8 24.8 91.7 23.6 93.3 23.6C94.9 23.6 95.8 24.8 95.8 26.8C95.8 28.8 94.9 30 93.3 30ZM93.3 22C90.6 22 88.9 23.8 88.9 26.8C88.9 29.7 90.6 31.6 93.3 31.6C96 31.6 97.7 29.8 97.7 26.8C97.7 23.9 96 22 93.3 22ZM101.2 23.7V22.1H99.4V31.4H101.3V25.9C101.3 24.6 102.1 23.8 103.3 23.8C103.7 23.8 104 23.9 104.2 23.9V22.1C104 22.1 103.8 22 103.5 22C102.3 22 101.5 22.7 101.2 23.7ZM106.5 25.9C106.6 24.5 107.6 23.5 108.9 23.5C110.2 23.5 111.1 24.4 111.2 25.9H106.5ZM108.8 22C106.2 22 104.5 23.9 104.5 26.8C104.5 29.7 106.2 31.5 108.9 31.5C111 31.5 112.7 30.3 112.9 28.7H111.1C110.8 29.5 110 30 108.9 30C107.4 30 106.4 29 106.4 27.4V27.3H113V26.6C113 23.8 111.4 22 108.8 22ZM37.8 14.4V12.4H39.1C40 12.4 40.5 12.7 40.5 13.4C40.5 14 40 14.4 39.2 14.4H37.8ZM37.8 9.90001H39.1C39.8 9.90001 40.2 10.2 40.2 10.8C40.2 11.4 39.8 11.7 38.9 11.7H37.8C37.8 11.7 37.8 9.90001 37.8 9.90001ZM41.5 13.5C41.5 12.7 40.9 12.1 40.1 12V11.9C40.7 11.8 41.2 11.2 41.2 10.6C41.2 9.70001 40.5 9.10001 39.3 9.10001H36.8V15.2H39.3C40.7 15.2 41.5 14.6 41.5 13.5ZM45.5 13.5C45.5 14.1 45 14.5 44.3 14.5C43.8 14.5 43.4 14.3 43.4 13.8C43.4 13.4 43.7 13.2 44.3 13.1L45.4 13L45.5 13.5ZM44.2 12.5C43.1 12.6 42.5 13 42.5 13.9C42.5 14.7 43.2 15.3 44 15.3C44.6 15.3 45.1 15 45.4 14.6H45.5V15.2H46.4V12C46.4 11 45.7 10.5 44.6 10.5C43.5 10.5 42.8 11 42.7 11.8H43.6C43.7 11.5 44.1 11.3 44.6 11.3C45.2 11.3 45.6 11.6 45.6 12.1V12.5C45.5 12.5 44.2 12.5 44.2 12.5ZM48.3 9.80001C48.6 9.80001 48.9 9.60001 48.9 9.20001C48.9 8.90001 48.6 8.60001 48.3 8.60001C48 8.60001 47.7 8.80001 47.7 9.20001C47.7 9.60001 48 9.80001 48.3 9.80001Z" fill="black"/>
</svg>
