<svg width="127" height="40" viewBox="0 0 127 40" fill="none" xmlns="http://www.w3.org/2000/svg">
<path d="M44.5 23.6V25.3H48.6C48.5 26.2 48.2 26.9 47.7 27.4C47.1 28 46.2 28.6 44.6 28.6C42.1 28.6 40.1 26.6 40.1 24.1C40.1 21.6 42.1 19.6 44.6 19.6C45.9 19.6 46.9 20.1 47.7 20.8L48.9 19.6C47.9 18.6 46.5 17.9 44.6 17.9C41.2 17.9 38.3 20.7 38.3 24.1C38.3 27.5 41.2 30.3 44.6 30.3C46.4 30.3 47.8 29.7 48.9 28.6C50 27.5 50.4 25.9 50.4 24.7C50.4 24.3 50.4 23.9 50.3 23.6C50.2 23.6 44.5 23.6 44.5 23.6ZM63.7 28.8C62.5 28.8 61.4 27.8 61.4 26.4C61.4 25 62.4 24 63.7 24C64.9 24 66 25 66 26.4C66 27.8 64.9 28.8 63.7 28.8ZM63.7 22.4C61.5 22.4 59.7 24.1 59.7 26.4C59.7 28.7 61.5 30.4 63.7 30.4C65.9 30.4 67.7 28.7 67.7 26.4C67.7 24.1 65.9 22.4 63.7 22.4ZM54.9 28.8C53.7 28.8 52.6 27.8 52.6 26.4C52.6 25 53.6 24 54.9 24C56.2 24 57.2 25 57.2 26.4C57.2 27.8 56.2 28.8 54.9 28.8ZM54.9 22.4C52.7 22.4 50.9 24.1 50.9 26.4C50.9 28.7 52.7 30.4 54.9 30.4C57.1 30.4 58.9 28.7 58.9 26.4C59 24.1 57.2 22.4 54.9 22.4ZM72.4 28.8C71.2 28.8 70.2 27.8 70.2 26.4C70.2 25 71.2 24 72.4 24C73.6 24 74.5 25 74.5 26.4C74.6 27.8 73.6 28.8 72.4 28.8ZM74.5 23.3C74 22.8 73.3 22.4 72.3 22.4C70.3 22.4 68.5 24.1 68.5 26.4C68.5 28.6 70.3 30.4 72.3 30.4C73.3 30.4 74 30 74.4 29.5H74.5V30C74.5 31.5 73.7 32.3 72.4 32.3C71.3 32.3 70.7 31.5 70.4 30.9L68.9 31.5C69.3 32.6 70.5 33.8 72.4 33.8C74.5 33.8 76.2 32.6 76.2 29.7V22.6H74.5C74.5 22.6 74.5 23.3 74.5 23.3ZM95.4 24H92.9V20H95.4C96.5 20 97.4 20.9 97.5 22C97.5 23 96.7 24 95.4 24ZM95.4 18.4H91.2V30.1H93V25.7H95.5C97.4 25.7 99.4 24.3 99.4 22.1C99.4 19.9 97.3 18.4 95.4 18.4ZM106.1 28.8C105.5 28.8 104.7 28.5 104.7 27.8C104.7 26.9 105.7 26.6 106.6 26.6C107.4 26.6 107.7 26.8 108.2 27C108 28 107.1 28.8 106.1 28.8ZM106.3 22.4C105 22.4 103.7 23 103.2 24.2L104.8 24.8C105.1 24.2 105.8 23.9 106.4 23.9C107.3 23.9 108.2 24.4 108.2 25.4V25.5C107.9 25.3 107.2 25 106.4 25C104.7 25 103 25.9 103 27.6C103 29.2 104.4 30.2 105.9 30.2C107.1 30.2 107.7 29.7 108.1 29.1H108.2V30H109.9V25.5C109.8 23.5 108.3 22.4 106.3 22.4ZM114 27.7L111.9 22.6H110L113.1 29.7L111.3 33.6H113.1L117.9 22.6H115.9L114 27.7Z" fill="black"/>
<path d="M126.2 35.1C126.2 37.4 124.3 39.2 122.1 39.2H4.9C2.6 39.2 0.8 37.4 0.8 35.1V4.9C0.8 2.6 2.7 0.8 4.9 0.8H122.1C124.4 0.8 126.2 2.6 126.2 4.9V35.1ZM122.1 0H4.9C2.2 0 0 2.2 0 4.9V35.1C0 37.8 2.2 40 4.9 40H122.1C124.8 40 127 37.8 127 35.1V4.9C127 2.2 124.8 0 122.1 0Z" fill="black"/>
<path d="M100.2 30.1H102V18.4H100.2V30.1ZM81.7 26.2C81.7 24.7 82.9 23.9 83.8 23.9C84.5 23.9 85.1 24.2 85.3 24.7C85.3 24.8 81.7 26.2 81.7 26.2ZM87.1 24.9C86.8 24 85.8 22.4 83.7 22.4C81.6 22.4 79.9 24 79.9 26.4C79.9 28.6 81.6 30.4 83.9 30.4C85.7 30.4 86.8 29.3 87.2 28.6L85.8 27.7C85.3 28.4 84.7 28.8 83.8 28.8C82.9 28.8 82.3 28.4 81.9 27.6L87.2 25.4C87.3 25.4 87.1 24.9 87.1 24.9ZM77.3 30.1H79.1V18.4H77.3V30.1ZM39.2 9.3H40.2C40.9 9.3 41.4 9.5 41.7 9.9C42.1 10.3 42.3 10.8 42.3 11.5C42.3 12.2 42.1 12.7 41.7 13.1C41.3 13.5 40.8 13.7 40.2 13.7H39.2V9.3ZM42.3 13.4C42.8 12.9 43.1 12.2 43.1 11.4C43.1 10.6 42.8 9.9 42.3 9.4C41.8 8.9 41.1 8.6 40.2 8.6H38.5V14.2H40.2C41.1 14.2 41.8 14 42.3 13.4ZM44.1 14.2H44.8V8.6H44.1V14.2ZM47.7 13.6C47.4 13.6 47.1 13.5 46.9 13.3C46.7 13.1 46.5 12.8 46.4 12.5L45.7 12.8C45.8 13.3 46.1 13.7 46.5 13.9C46.9 14.2 47.3 14.3 47.7 14.3C48.2 14.3 48.6 14.2 49 13.9C49.2 13.8 49.3 13.6 49.5 13.4C49.6 13.2 49.7 12.9 49.7 12.7C49.7 12.4 49.7 12.2 49.6 12C49.5 11.8 49.4 11.6 49.2 11.5C49 11.4 48.8 11.3 48.6 11.2C48.2 11 48 11 47.7 10.9C47.3 10.8 47.1 10.7 46.9 10.5C46.7 10.4 46.6 10.2 46.6 10C46.6 9.8 46.7 9.6 46.9 9.4C47.1 9.2 47.4 9.2 47.6 9.2C47.9 9.2 48.1 9.3 48.3 9.4C48.5 9.5 48.6 9.7 48.7 9.9L49.4 9.6C49.3 9.3 49.1 9.1 48.8 8.8C48.5 8.6 48.1 8.4 47.6 8.4C47.1 8.4 46.7 8.5 46.3 8.8C46 9.1 45.8 9.4 45.8 9.9C45.8 10.3 45.9 10.6 46.2 10.9C46.5 11.1 46.8 11.4 47.3 11.5C47.8 11.6 48.1 11.8 48.4 12C48.6 12.2 48.7 12.4 48.7 12.7C48.7 13 48.6 13.2 48.4 13.4C48.3 13.6 48 13.7 47.7 13.6ZM51.4 9.3H52.6C52.9 9.3 53.1 9.4 53.3 9.6C53.5 9.8 53.6 10 53.6 10.3C53.6 10.5 53.5 10.8 53.3 11C53.1 11.2 52.9 11.3 52.6 11.3H51.4V9.3ZM51.4 11.9H52.6C53.1 11.9 53.5 11.7 53.8 11.4C54.1 11.1 54.3 10.7 54.3 10.2C54.3 9.7 54.1 9.3 53.8 9C53.5 8.7 53 8.5 52.6 8.5H50.7V14.1H51.4V11.9ZM56.2 9.8C56.6 9.4 57.2 9.2 57.7 9.2C58.3 9.2 58.8 9.4 59.2 9.8C59.6 10.2 59.8 10.8 59.8 11.4C59.8 12 59.6 12.6 59.2 13C58.8 13.4 58.2 13.6 57.7 13.6C57.1 13.6 56.6 13.4 56.2 13C55.8 12.6 55.6 12 55.6 11.4C55.6 10.8 55.8 10.2 56.2 9.8ZM57.8 14.3C58.6 14.3 59.3 14 59.9 13.4C60.5 12.8 60.7 12.1 60.7 11.3C60.7 10.5 60.4 9.8 59.9 9.2C59.3 8.6 58.7 8.3 57.8 8.3C57 8.3 56.3 8.6 55.7 9.1C55.1 9.7 54.9 10.4 54.9 11.2C54.9 12 55.2 12.7 55.7 13.3C56.3 14.1 57 14.3 57.8 14.3ZM62.4 10.7V9.6L65.3 14.2H66.1V8.6H65.4V11.9V13L62.7 8.6H61.8V14.2H62.5L62.4 10.7ZM68.6 7.2H67.8L67.4 8.2H68L68.6 7.2ZM67.3 14.2H68V8.6H67.3V14.2ZM71.5 14.2L73.5 8.6H72.7L71.1 13.2L69.6 8.6H68.8L70.8 14.2H71.5ZM77.7 13.5H75.1V11.7H77.4V11H75.1V9.3H77.7V8.6H74.4V14.2H77.7V13.5ZM82 13.5H79.6V8.6H78.9V14.2H82V13.5ZM88.4 11.9V13L85.7 8.6H84.8V14.2H85.5V10.7V9.6L88.4 14.2H89.2V8.6H88.5L88.4 11.9ZM90.8 11.4C90.8 10.7 91 10.2 91.4 9.8C91.8 9.4 92.3 9.2 92.9 9.2C93.5 9.2 94 9.4 94.4 9.8C94.8 10.2 95 10.8 95 11.4C95 12.1 94.8 12.6 94.4 13C94 13.4 93.5 13.6 92.9 13.6C92.3 13.6 91.8 13.4 91.4 13C91 12.6 90.8 12.1 90.8 11.4ZM95 13.5C95.6 12.9 95.8 12.2 95.8 11.4C95.8 10.6 95.5 9.9 95 9.3C94.4 8.7 93.8 8.4 92.9 8.4C92.1 8.4 91.4 8.7 90.8 9.3C90.2 9.9 90 10.6 90 11.4C90 12.2 90.3 12.9 90.8 13.5C91.4 14.1 92 14.3 92.9 14.3C93.8 14.3 94.5 14.1 95 13.5ZM29.3 19.6L25.2 17.3L21.7 20.8L25.2 24.3L29.3 22C30.4 21.5 30.4 20.8 30.4 20.8C30.3 20 29.3 19.6 29.3 19.6ZM24.5 16.9L11.5 9.6C11.5 9.6 10.6 8.9 9.9 9.2L21.1 20.3L24.5 16.9ZM10 32.4C10.6 32.6 11.2 32.2 11.2 32.2L24.5 24.7L21.1 21.4L10 32.4ZM9.5 9.7C9.4 9.9 9.4 10.5 9.4 10.5V30.7C9.3 31.6 9.5 31.9 9.5 31.9L20.6 20.8L9.5 9.7Z" fill="black"/>
</svg>
