<svg width="130" height="100" viewBox="0 0 130 100" fill="none" xmlns="http://www.w3.org/2000/svg">
<g style="mix-blend-mode:luminosity">
<path d="M104.98 86.4417L99.2565 21.9632C99.1339 20.5317 97.928 19.4479 96.5176 19.4479H84.7445C84.581 8.69121 75.792 0 65 0C54.208 0 45.419 8.69121 45.2555 19.4479H33.4824C32.0516 19.4479 30.8661 20.5317 30.7435 21.9632L25.0204 86.4417C25.0204 86.5235 25 86.6053 25 86.6871C25 94.0286 31.7246 100 40.0026 100H89.9974C98.2754 100 105 94.0286 105 86.6871C105 86.6053 105 86.5235 104.98 86.4417ZM65 5.52147C72.7465 5.52147 79.0623 11.7382 79.2259 19.4479H50.7741C50.9377 11.7382 57.2534 5.52147 65 5.52147ZM89.9974 94.4785H40.0026C34.8109 94.4785 30.6004 91.0429 30.5187 86.8098L35.9964 24.9898H45.2351V33.3742C45.2351 34.908 46.4614 36.135 47.9944 36.135C49.5273 36.135 50.7537 34.908 50.7537 33.3742V24.9898H79.2259V33.3742C79.2259 34.908 80.4522 36.135 81.9852 36.135C83.5181 36.135 84.7445 34.908 84.7445 33.3742V24.9898H93.9831L99.4814 86.8098C99.3996 91.0429 95.1686 94.4785 89.9974 94.4785Z" fill="black"/>
</g>
</svg>
