<svg width="130" height="100" viewBox="0 0 130 100" fill="none" xmlns="http://www.w3.org/2000/svg">
<g style="mix-blend-mode:luminosity" clip-path="url(#clip0)">
<path d="M111.16 55.3028L72.3511 16.4544C70.3017 14.4041 67.562 13.2602 64.6713 13.2602C64.434 13.2602 64.1967 13.2602 63.9594 13.2818L35.8935 15.1379C32.8518 15.3321 30.3925 17.7925 30.1984 20.8356L29.5296 30.8067C28.1058 29.9866 26.7468 28.9506 25.5171 27.7204C22.5185 24.7205 20.6633 20.9867 20.275 17.1882C19.9083 13.5839 20.9437 10.3681 23.1873 8.12356C27.9548 3.35384 36.7348 4.41138 42.7967 10.4545C43.8106 11.4688 45.4501 11.4688 46.4641 10.4545C47.478 9.44009 47.478 7.79983 46.4641 6.78545C38.3528 -1.2648 26.2722 -2.30075 19.4984 4.47613C16.1331 7.84299 14.5798 12.5264 15.0976 17.7277C15.5938 22.7133 17.9883 27.5693 21.8282 31.411C23.9855 33.5693 26.4879 35.2743 29.1413 36.4397L28.3216 48.936C28.1058 52.0654 29.2707 55.1301 31.4927 57.3531L70.3233 96.2015C72.7825 98.6619 76.04 100 79.5132 100C82.9864 100 86.2438 98.6403 88.7031 96.2015L111.203 73.691C113.663 71.2306 115 67.9717 115 64.4969C114.978 61.0005 113.619 57.7416 111.16 55.3028ZM107.514 70.0004L84.9926 92.5325C83.5257 94.0001 81.5626 94.8202 79.47 94.8202C77.3775 94.8202 75.4144 94.0001 73.9475 92.5325L35.1169 53.6841C33.952 52.5186 33.348 50.9215 33.4558 49.2813L34.2109 37.9721C34.6423 38.0368 35.0738 38.1016 35.5052 38.1447C36.1524 38.2095 36.7996 38.2526 37.4252 38.2526C41.8475 38.2526 45.7953 36.6987 48.7292 33.7635C49.7431 32.7491 49.7431 31.1089 48.7292 30.0945C47.7153 29.0801 46.0757 29.0801 45.0618 30.0945C42.8183 32.3391 39.604 33.375 36.0014 33.0081C35.5052 32.965 35.0306 32.8786 34.556 32.7923L35.3326 21.2241C35.3542 20.7493 35.7425 20.3824 36.2171 20.3392L64.283 18.4831C64.4124 18.4831 64.5418 18.4616 64.6713 18.4616C66.1814 18.4616 67.6483 19.0659 68.7053 20.1234L107.514 58.9502C108.981 60.4178 109.801 62.3818 109.801 64.4753C109.801 66.5688 108.981 68.5328 107.514 70.0004Z" fill="black"/>
</g>
<defs>
<clipPath id="clip0">
<rect width="130" height="100" fill="white"/>
</clipPath>
</defs>
</svg>
