<svg width="130" height="100" viewBox="0 0 130 100" fill="none" xmlns="http://www.w3.org/2000/svg">
<g style="mix-blend-mode:luminosity">
<path d="M85.9924 0H44.0076C39.9608 0 36.6657 3.295 36.6657 7.34167V92.6567C36.6657 96.705 39.9608 100 44.0076 100H85.9907C90.0392 100 93.3343 96.705 93.3343 92.6583V7.34167C93.3343 3.295 90.0392 0 85.9924 0ZM39.9992 13.3333H90.0008V76.6667H39.9992V13.3333ZM44.0076 3.33333H85.9907C88.2024 3.33333 90.0008 5.13167 90.0008 7.34167V10H39.9992V7.34167C39.9992 5.13167 41.7976 3.33333 44.0076 3.33333ZM85.9924 96.6667H44.0076C41.7976 96.6667 39.9992 94.8683 39.9992 92.6583V80H90.0008V92.6583C90.0008 94.8683 88.2024 96.6667 85.9924 96.6667Z" fill="black"/>
<path d="M65 81.6667C61.3232 81.6667 58.3331 84.6567 58.3331 88.3334C58.3331 92.01 61.3232 95 65 95C68.6768 95 71.6669 92.01 71.6669 88.3334C71.6669 84.6567 68.6768 81.6667 65 81.6667ZM65 91.6667C63.1616 91.6667 61.6666 90.1717 61.6666 88.3334C61.6666 86.495 63.1616 85 65 85C66.8384 85 68.3334 86.495 68.3334 88.3334C68.3334 90.1717 66.8384 91.6667 65 91.6667Z" fill="black"/>
<path d="M58.3331 8.33333H65C65.9217 8.33333 66.6667 7.58833 66.6667 6.66667C66.6667 5.745 65.9217 5 65 5H58.3331C57.4114 5 56.6664 5.745 56.6664 6.66667C56.6664 7.58833 57.4114 8.33333 58.3331 8.33333Z" fill="black"/>
<path d="M70.0002 8.33333H71.6669C72.5886 8.33333 73.3336 7.58833 73.3336 6.66667C73.3336 5.745 72.5886 5 71.6669 5H70.0002C69.0785 5 68.3334 5.745 68.3334 6.66667C68.3334 7.58833 69.0785 8.33333 70.0002 8.33333Z" fill="black"/>
<path d="M109.355 7.61503C108.703 6.96337 107.65 6.96337 106.998 7.61503C106.346 8.2667 106.346 9.32003 106.998 9.9717C113.225 16.1984 113.225 26.33 106.998 32.5584C106.346 33.21 106.346 34.2634 106.998 34.915C107.323 35.24 107.75 35.4034 108.176 35.4034C108.603 35.4034 109.03 35.24 109.355 34.915C116.882 27.39 116.882 15.1417 109.355 7.61503Z" fill="black"/>
<path d="M102.336 11.4084C101.685 10.7567 100.631 10.7567 99.9795 11.4084C99.3278 12.06 99.3278 13.1134 99.9795 13.765C102.041 15.8267 103.176 18.5734 103.176 21.4967C103.176 24.42 102.041 27.165 99.9795 29.2267C99.3278 29.8784 99.3278 30.9317 99.9795 31.5834C100.305 31.9084 100.731 32.0717 101.158 32.0717C101.585 32.0717 102.011 31.9084 102.336 31.5834C105.028 28.8934 106.51 25.31 106.51 21.4967C106.51 17.6834 105.03 14.0984 102.336 11.4084Z" fill="black"/>
<path d="M23.0019 9.9717C23.6536 9.32003 23.6536 8.2667 23.0019 7.61503C22.3502 6.96337 21.2969 6.96337 20.6452 7.61503C13.1183 15.1417 13.1183 27.3884 20.6452 34.915C20.9702 35.24 21.3969 35.4034 21.8236 35.4034C22.2502 35.4034 22.6769 35.24 23.0019 34.915C23.6536 34.2634 23.6536 33.21 23.0019 32.5584C16.7734 26.3317 16.7734 16.2 23.0019 9.9717Z" fill="black"/>
<path d="M30.0205 10.9483C29.3688 10.2967 28.3154 10.2967 27.6638 10.9483C24.972 13.6383 23.4903 17.2217 23.4903 21.035C23.4903 24.8483 24.972 28.4317 27.6638 31.1233C27.9888 31.4483 28.4155 31.6117 28.8421 31.6117C29.2688 31.6117 29.6955 31.4483 30.0205 31.1233C30.6722 30.4717 30.6722 29.4183 30.0205 28.7667C27.9588 26.705 26.8237 23.9583 26.8237 21.035C26.8237 18.1117 27.9571 15.3667 30.0205 13.305C30.6705 12.655 30.6705 11.6 30.0205 10.9483Z" fill="black"/>
</g>
</svg>
