<svg width="130" height="100" viewBox="0 0 130 100" fill="none" xmlns="http://www.w3.org/2000/svg">
<g style="mix-blend-mode:luminosity">
<path d="M110.083 0H20.8678C16.5298 0 13 3.54035 13 7.89298V64.9123V72.8088C13 77.1596 16.5298 80.7018 20.8678 80.7018H52.1011C52.3494 83.7754 51.0201 86.8105 48.5625 88.5474L45.4122 90.7754C45.2111 90.9158 45.0431 91.086 44.9049 91.2754C42.7097 91.5053 40.9868 93.3526 40.9868 95.614C40.9868 98.0316 42.9476 100 45.3597 100H85.5908C88.0029 100 89.9637 98.0316 89.9637 95.614C89.9637 93.3526 88.2425 91.507 86.0473 91.2737C85.9109 91.0877 85.7447 90.9193 85.5488 90.7807L82.3933 88.5509C79.9339 86.8123 78.6028 83.7772 78.8512 80.7018H110.083C114.421 80.7018 117.95 77.1614 117.95 72.8088V64.9123V7.89298C117.95 3.54035 114.421 0 110.083 0ZM16.4983 7.89298C16.4983 5.47544 18.4592 3.50877 20.8678 3.50877H110.083C112.491 3.50877 114.452 5.47544 114.452 7.89298V61.4035H16.4983V7.89298ZM85.5908 96.4912H45.3597C44.8857 96.4912 44.4851 96.0895 44.4851 95.614C44.4851 95.1386 44.8857 94.7368 45.3597 94.7368H46.6296H84.3209H85.5908C86.0648 94.7368 86.4653 95.1386 86.4653 95.614C86.4653 96.0895 86.0648 96.4912 85.5908 96.4912ZM75.3441 80.7053C75.1114 84.7912 76.8886 88.8053 80.1176 91.2281H50.8364C54.0654 88.8053 55.8425 84.7895 55.6099 80.7018L75.3441 80.7053ZM114.452 72.8088C114.452 75.2263 112.491 77.193 110.083 77.193H79.5701H51.3821H20.8678C18.4592 77.193 16.4983 75.2263 16.4983 72.8088V64.9123H114.452V72.8088Z" fill="black"/>
<path d="M21.7459 17.5439C22.1937 17.5439 22.6415 17.3719 22.9825 17.0298L29.9792 10.0123C30.6632 9.32633 30.6632 8.21756 29.9792 7.53159C29.2953 6.84563 28.1898 6.84563 27.5059 7.53159L20.5092 14.5491C19.8253 15.2351 19.8253 16.3439 20.5092 17.0298C20.8503 17.3719 21.2981 17.5439 21.7459 17.5439Z" fill="black"/>
<path d="M21.7459 26.3158C22.1937 26.3158 22.6415 26.1438 22.9825 25.8017L26.4809 22.293C27.1648 21.607 27.1648 20.4982 26.4809 19.8123C25.797 19.1263 24.6915 19.1263 24.0076 19.8123L20.5092 23.321C19.8253 24.007 19.8253 25.1158 20.5092 25.8017C20.8503 26.1438 21.2981 26.3158 21.7459 26.3158Z" fill="black"/>
<path d="M27.5007 16.2983C27.1841 16.6316 26.9934 17.0877 26.9934 17.5439C26.9934 18 27.1841 18.4562 27.5007 18.7895C27.8313 19.1053 28.2686 19.2983 28.7426 19.2983C29.1974 19.2983 29.6522 19.1053 29.9845 18.7895C30.2993 18.4562 30.4918 18 30.4918 17.5439C30.4918 17.0877 30.2993 16.6316 29.9845 16.2983C29.3198 15.6492 28.1654 15.6492 27.5007 16.2983Z" fill="black"/>
<path d="M31.0043 15.2755C31.3454 15.6176 31.7932 15.7895 32.2409 15.7895C32.6887 15.7895 33.1365 15.6176 33.4776 15.2755L38.7251 10.0123C39.4091 9.32633 39.4091 8.21756 38.7251 7.53159C38.0412 6.84563 36.9357 6.84563 36.2518 7.53159L31.0043 12.7948C30.3204 13.4807 30.3204 14.5895 31.0043 15.2755Z" fill="black"/>
<path d="M36.2518 16.3035L20.5092 32.093C19.8253 32.779 19.8253 33.8877 20.5092 34.5737C20.8503 34.9158 21.2981 35.0877 21.7459 35.0877C22.1937 35.0877 22.6415 34.9158 22.9825 34.5737L38.7251 18.7842C39.409 18.0983 39.409 16.9895 38.7251 16.3035C38.0412 15.6176 36.9357 15.6176 36.2518 16.3035Z" fill="black"/>
<path d="M39.7449 12.7895C39.4283 13.1228 39.2376 13.5614 39.2376 14.0351C39.2376 14.5088 39.4283 14.9474 39.7449 15.2807C40.0755 15.5965 40.5128 15.7895 40.9868 15.7895C41.4591 15.7895 41.8964 15.5965 42.2287 15.2807C42.5435 14.9474 42.736 14.5088 42.736 14.0351C42.736 13.5614 42.5435 13.1228 42.2287 12.7895C41.5815 12.1404 40.3921 12.1404 39.7449 12.7895Z" fill="black"/>
<path d="M44.9977 7.53159L43.2485 9.28598C42.5646 9.97195 42.5646 11.0807 43.2485 11.7667C43.5896 12.1088 44.0374 12.2807 44.4851 12.2807C44.9329 12.2807 45.3807 12.1088 45.7218 11.7667L47.471 10.0123C48.1549 9.32633 48.1549 8.21756 47.471 7.53159C46.7871 6.84563 45.6816 6.84563 44.9977 7.53159Z" fill="black"/>
</g>
</svg>
