<svg width="130" height="100" viewBox="0 0 130 100" fill="none" xmlns="http://www.w3.org/2000/svg">
<g style="mix-blend-mode:luminosity">
<path d="M91.7599 0H39.2401C37.4534 0 36 1.44824 36 3.22852V95.9902C36 98.2012 37.8051 100 40.0242 100H83.7743C89.9642 100 95 94.9822 95 88.8145V3.22852C95 1.44824 93.5466 0 91.7599 0ZM92.0598 88.8145C92.0598 93.3668 88.343 97.0703 83.7743 97.0703H40.0242C39.4265 97.0703 38.9402 96.5859 38.9402 95.9902V3.22852C38.9402 3.06367 39.0747 2.92969 39.2401 2.92969H91.7599C91.9253 2.92969 92.0598 3.06387 92.0598 3.22852V88.8145Z" fill="black"/>
<path d="M88.6296 4.88281H42.3704C41.5585 4.88281 40.9003 5.53848 40.9003 6.34766V47.2656C40.9003 48.0748 41.5585 48.7305 42.3704 48.7305H88.6296C89.4415 48.7305 90.0997 48.0748 90.0997 47.2656V6.34766C90.0997 5.53848 89.4415 4.88281 88.6296 4.88281ZM87.1595 45.8008H43.8405V7.8125H87.1595V45.8008Z" fill="black"/>
<path d="M83.4352 24.9576C84.2471 24.9576 84.9053 24.302 84.9053 23.4928V11.7188C84.9053 10.9096 84.2471 10.2539 83.4352 10.2539H47.5648C46.7529 10.2539 46.0947 10.9096 46.0947 11.7188V41.8945C46.0947 42.7037 46.7529 43.3594 47.5648 43.3594H83.4352C84.2471 43.3594 84.9053 42.7037 84.9053 41.8945V32.176C84.9053 31.3668 84.2471 30.7111 83.4352 30.7111C82.6233 30.7111 81.9651 31.3668 81.9651 32.176V40.4297H49.0349V13.1836H81.9651V23.4928C81.9651 24.302 82.6233 24.9576 83.4352 24.9576Z" fill="black"/>
<path d="M60.8956 58.8867H57.1694V55.1738C57.1694 53.7211 55.9831 52.5391 54.5252 52.5391H50.209C48.751 52.5391 47.5648 53.7211 47.5648 55.1738V58.8867H43.8386C42.3806 58.8867 41.1943 60.0687 41.1943 61.5215V65.8223C41.1943 67.275 42.3806 68.457 43.8386 68.457H47.5648V72.1699C47.5648 73.6227 48.751 74.8047 50.209 74.8047H54.5252C55.9831 74.8047 57.1694 73.6227 57.1694 72.1699V68.457H60.8956C62.3536 68.457 63.5399 67.275 63.5399 65.8223V61.5215C63.5399 60.0687 62.3536 58.8867 60.8956 58.8867ZM60.5997 65.5273H56.8734C55.4155 65.5273 54.2292 66.7094 54.2292 68.1621V71.875H50.505V68.1621C50.505 66.7094 49.3187 65.5273 47.8607 65.5273H44.1345V61.8164H47.8607C49.3187 61.8164 50.505 60.6344 50.505 59.1816V55.4688H54.2292V59.1816C54.2292 60.6344 55.4155 61.8164 56.8734 61.8164H60.5997V65.5273Z" fill="black"/>
<path d="M76.2807 66.0156C73.4166 66.0156 71.0864 68.3375 71.0864 71.1914C71.0864 74.0453 73.4166 76.3672 76.2807 76.3672C79.1449 76.3672 81.4751 74.0453 81.4751 71.1914C81.4751 68.3375 79.1449 66.0156 76.2807 66.0156ZM76.2807 73.4375C75.0378 73.4375 74.0266 72.4299 74.0266 71.1914C74.0266 69.9529 75.0378 68.9453 76.2807 68.9453C77.5236 68.9453 78.5349 69.9529 78.5349 71.1914C78.5349 72.4299 77.5236 73.4375 76.2807 73.4375Z" fill="black"/>
<path d="M83.1412 54.2969C80.277 54.2969 77.9468 56.6187 77.9468 59.4727C77.9468 62.3266 80.277 64.6484 83.1412 64.6484C86.0053 64.6484 88.3355 62.3266 88.3355 59.4727C88.3355 56.6187 86.0053 54.2969 83.1412 54.2969ZM83.1412 61.7188C81.8983 61.7188 80.887 60.7111 80.887 59.4727C80.887 58.2342 81.8983 57.2266 83.1412 57.2266C84.3841 57.2266 85.3953 58.2342 85.3953 59.4727C85.3953 60.7111 84.3841 61.7188 83.1412 61.7188Z" fill="black"/>
<path d="M61.2998 82.4033C60.5855 82.018 59.6937 82.2824 59.3069 82.9936L56.7588 87.6811C56.372 88.3926 56.6372 89.2814 57.3511 89.6668C57.5738 89.7869 57.8135 89.8438 58.0499 89.8438C58.5721 89.8438 59.0778 89.566 59.344 89.0764L61.8922 84.3889C62.2789 83.6777 62.0137 82.7887 61.2998 82.4033Z" fill="black"/>
<path d="M70.7084 82.4033C69.9942 82.018 69.1023 82.2824 68.7156 82.9936L66.1674 87.6811C65.7807 88.3926 66.0459 89.2814 66.7597 89.6668C66.9824 89.7869 67.2221 89.8438 67.4585 89.8438C67.9807 89.8438 68.4864 89.566 68.7526 89.0764L71.3008 84.3889C71.6875 83.6777 71.4223 82.7887 70.7084 82.4033Z" fill="black"/>
</g>
</svg>
