<svg width="130" height="100" viewBox="0 0 130 100" fill="none" xmlns="http://www.w3.org/2000/svg">
<g style="mix-blend-mode:luminosity">
<path d="M116 50.4536C116 36.9762 110.747 24.2981 101.213 14.7732C91.6796 5.24838 78.9897 0 65.5 0C52.0103 0 39.3204 5.24838 29.7868 14.7732C20.2532 24.2981 15 36.9762 15 50.4536V74.3412C15 87.8402 26.0036 98.8337 39.515 98.8337C41.1363 98.8337 42.4334 97.5378 42.4334 95.9179V52.7862C42.4334 51.1663 41.1363 49.8704 39.515 49.8704C32.0351 49.8704 25.3335 53.2181 20.8369 58.5097V50.4536C20.8369 25.8531 40.8769 5.83153 65.5 5.83153C90.1231 5.83153 110.163 25.8531 110.163 50.4536C110.163 50.6479 110.185 50.8423 110.228 51.0367C110.185 51.2311 110.163 51.4255 110.163 51.6199V59.676C105.667 54.3844 98.9649 51.0367 91.485 51.0367C89.8637 51.0367 88.5666 52.3326 88.5666 53.9525V97.0842C88.5666 98.7041 89.8637 100 91.485 100C104.996 100 116 89.0065 116 75.5076V51.6199C116 51.4255 115.978 51.2311 115.935 51.0367C115.978 50.8423 116 50.6479 116 50.4536ZM36.5749 55.9179V92.7646C27.6682 91.3607 20.8153 83.6285 20.8153 74.3412C20.8369 65.054 27.6682 57.3218 36.5749 55.9179ZM94.4251 93.9309V57.0842C103.332 58.4881 110.185 66.2203 110.185 75.5076C110.163 84.8164 103.332 92.527 94.4251 93.9309Z" fill="black"/>
</g>
</svg>
