<svg width="130" height="100" viewBox="0 0 130 100" fill="none" xmlns="http://www.w3.org/2000/svg">
<g style="mix-blend-mode:luminosity" clip-path="url(#clip0)">
<path d="M112.792 9.28382C106.822 3.32771 98.9196 0.0723417 90.485 0.0723417C82.0504 0.0723417 74.1234 3.35182 68.1539 9.30793L65.0363 12.4186L61.8703 9.25971C55.9008 3.30359 47.9496 0 39.515 0C31.1046 0 23.1775 3.27948 17.2322 9.21148C11.2628 15.1676 7.97596 23.0769 8.00013 31.4926C8.00013 39.9084 11.3111 47.7936 17.2806 53.7497L62.6678 99.0355C63.2962 99.6624 64.142 100 64.9637 100C65.7855 100 66.6313 99.6865 67.2597 99.0596L112.744 53.8462C118.713 47.89 122 39.9807 122 31.565C122.024 23.1493 118.761 15.2399 112.792 9.28382ZM108.152 49.2404L64.9637 92.163L21.8725 49.1681C17.1356 44.4418 14.5255 38.1722 14.5255 31.4926C14.5255 24.8131 17.1114 18.5435 21.8483 13.8413C26.561 9.13914 32.8447 6.53485 39.515 6.53485C46.2095 6.53485 52.5173 9.13914 57.2542 13.8654L62.7161 19.3152C63.997 20.5932 66.0513 20.5932 67.3322 19.3152L72.7458 13.9137C77.4827 9.18736 83.7905 6.58307 90.4608 6.58307C97.1312 6.58307 103.415 9.18736 108.152 13.8896C112.889 18.6159 115.475 24.8855 115.475 31.565C115.499 38.2445 112.889 44.5141 108.152 49.2404Z" fill="black"/>
</g>
<defs>
<clipPath id="clip0">
<rect width="130" height="100" fill="white"/>
</clipPath>
</defs>
</svg>
