<svg width="130" height="100" viewBox="0 0 130 100" fill="none" xmlns="http://www.w3.org/2000/svg">
<g style="mix-blend-mode:luminosity">
<path d="M105.742 17.223L75.1251 0.691779C72.2207 -0.87688 68.2273 0.329781 66.6541 3.22577L48.744 36.4089H26.9616C24.1782 36.4089 22 38.5809 22 41.3563V50.0442V95.0527C22 97.828 24.1782 100 26.9616 100H96.5445C99.3278 100 101.506 97.828 101.506 95.0527V82.5034H103.563C104.652 82.5034 105.5 81.6587 105.5 80.5727V66.2135C105.5 65.1275 104.652 64.2828 103.563 64.2828H101.506V50.1649C101.506 47.8722 99.8119 45.8209 97.6336 45.3382L108.283 25.6697C109.856 22.653 108.767 18.9124 105.742 17.223ZM83.9591 9.8624L64.8389 45.2176H59.3933L79.8446 7.69041L83.9591 9.8624ZM70.1635 5.03576C70.7686 3.94976 72.2207 3.4671 73.3099 4.07043L76.3352 5.75976L55.0368 45.2176H48.381L70.1635 5.03576ZM25.7514 41.2356C25.7514 40.8736 26.2355 40.2703 26.8406 40.2703H46.5658L43.9035 45.0969H26.8406C26.4775 45.0969 26.1145 45.0969 25.7514 45.2176V41.2356V41.2356ZM97.5126 95.0527C97.5126 95.656 97.0286 96.1387 96.4235 96.1387H26.8406C26.2355 96.1387 25.7514 95.656 25.7514 95.0527V50.1649C25.7514 49.5616 26.2355 49.0789 26.8406 49.0789H45.1136H52.8585H67.0171H94.2452H96.3025C96.9075 49.0789 97.3916 49.5616 97.3916 50.1649V64.2828H90.0098C86.7424 64.2828 84.2011 66.9375 84.2011 70.0748V76.7114C84.2011 79.9694 86.8634 82.5034 90.0098 82.5034H97.5126V95.0527ZM101.385 68.1441H101.506V78.6421H101.385H90.0098C88.9206 78.6421 88.0735 77.7974 88.0735 76.7114V70.0748C88.0735 68.9888 88.9206 68.1441 90.0098 68.1441H101.385V68.1441ZM104.773 23.739L93.1561 45.2176H69.1954L87.3475 11.7931L103.805 20.7224C105.015 21.205 105.379 22.653 104.773 23.739Z" fill="black"/>
<path d="M97.3916 21.929L96.4235 21.4463C94.0032 20.119 90.7358 21.0843 89.4047 23.4976L88.1945 25.7903C87.5895 26.997 87.3474 28.445 87.8315 29.7723C88.1945 31.0996 89.1626 32.1856 90.3728 32.7889L91.3409 33.2716C92.067 33.6336 92.9141 33.8749 93.7612 33.8749C95.6974 33.8749 97.3916 32.7889 98.3597 31.2203L99.5698 28.9276C100.78 26.3936 99.8118 23.2563 97.3916 21.929ZM96.0604 27.1176L94.8503 29.4103C94.4872 30.0136 93.6401 30.255 93.0351 29.893L92.067 29.2896C91.8249 29.169 91.5829 28.807 91.4619 28.5656C91.3409 28.2036 91.3409 27.8416 91.5829 27.6003L92.793 25.3076C93.0351 24.9456 93.5191 24.5836 94.0032 24.5836C94.2452 24.5836 94.3662 24.5836 94.6082 24.7043L95.5764 25.187C96.0604 25.6696 96.3024 26.3936 96.0604 27.1176Z" fill="black"/>
</g>
</svg>
