<svg width="130" height="100" viewBox="0 0 130 100" fill="none" xmlns="http://www.w3.org/2000/svg">
<g style="mix-blend-mode:luminosity" clip-path="url(#clip0)">
<path d="M74.4835 0H18.5977C17.7151 0 17 0.71782 17 1.60371V97.8262C17 98.7121 17.7151 99.4299 18.5977 99.4299H74.4835C75.3661 99.4299 76.0812 98.7121 76.0812 97.8262V1.60371C76.0812 0.71782 75.3659 0 74.4835 0ZM72.8858 96.2225H20.1954V3.20742H72.8858V96.2225Z" fill="black"/>
<path d="M24.9885 41.6907H29.249C30.1316 41.6907 30.8467 40.9729 30.8467 40.087C30.8467 39.2011 30.1316 38.4833 29.249 38.4833H26.5862V9.62227H66.4951V38.4833H35.6398C34.7573 38.4833 34.0421 39.2011 34.0421 40.087C34.0421 40.9729 34.7573 41.6907 35.6398 41.6907H68.0928C68.9753 41.6907 69.6905 40.9729 69.6905 40.087V8.01856C69.6905 7.13268 68.9753 6.41486 68.0928 6.41486H24.9885C24.1059 6.41486 23.3908 7.13268 23.3908 8.01856V40.087C23.3908 40.9726 24.1062 41.6907 24.9885 41.6907Z" fill="black"/>
<path d="M46.5406 49.2476C35.714 49.2476 26.9057 58.0889 26.9057 68.9565C26.9057 79.8239 35.714 88.6652 46.5406 88.6652C57.3673 88.6652 66.1755 79.8239 66.1755 68.9565C66.1755 58.0889 57.3673 49.2476 46.5406 49.2476ZM46.5406 85.4578C37.4759 85.4578 30.1011 78.0553 30.1011 68.9565C30.1011 59.8575 37.4759 52.455 46.5406 52.455C55.6053 52.455 62.9801 59.8575 62.9801 68.9565C62.9801 78.0553 55.6053 85.4578 46.5406 85.4578Z" fill="black"/>
<path d="M46.5406 60.2964C41.7833 60.2964 37.9131 64.1813 37.9131 68.9565C37.9131 73.7317 41.7833 77.6165 46.5406 77.6165C51.2979 77.6165 55.1682 73.7317 55.1682 68.9565C55.1682 64.1813 51.2979 60.2964 46.5406 60.2964ZM46.5406 74.4091C43.5453 74.4091 41.1085 71.9631 41.1085 68.9565C41.1085 65.9498 43.5453 63.5039 46.5406 63.5039C49.536 63.5039 51.9728 65.9498 51.9728 68.9565C51.9728 71.9631 49.536 74.4091 46.5406 74.4091Z" fill="black"/>
<path d="M88.4368 37.617C83.386 37.617 79.2767 41.7418 79.2767 46.8116C79.2767 50.3548 81.2955 53.5406 84.4034 55.0686V68.803C84.4034 69.6889 85.1185 70.4067 86.0011 70.4067H86.8391V98.3963C86.8391 99.2822 87.5543 100 88.4368 100C89.3194 100 90.0345 99.2822 90.0345 98.3963V70.4067H90.8724C91.7549 70.4067 92.4701 69.6889 92.4701 68.803V55.0686C95.5779 53.5408 97.597 50.3552 97.597 46.8118C97.597 41.7418 93.4877 37.617 88.4368 37.617ZM92.4613 51.2289C92.3787 50.421 91.6989 49.7911 90.8721 49.7911C89.9896 49.7911 89.2744 50.5089 89.2744 51.3948V67.1993H87.5988V51.3948C87.5988 50.5089 86.8836 49.7911 86.0011 49.7911C85.1745 49.7911 84.4948 50.421 84.4119 51.2287C83.2036 50.1181 82.4719 48.5306 82.4719 46.8116C82.4719 43.5103 85.1477 40.8245 88.4366 40.8245C91.7255 40.8245 94.4014 43.5103 94.4014 46.8116C94.4016 48.5306 93.6698 50.1183 92.4613 51.2289Z" fill="black"/>
<path d="M114 28.8501C114 23.7802 109.891 19.6555 104.84 19.6555C99.789 19.6555 95.6797 23.7802 95.6797 28.8501C95.6797 32.3932 97.6986 35.579 100.806 37.107V50.8414C100.806 51.7273 101.522 52.4451 102.404 52.4451H103.242V98.3963C103.242 99.2822 103.957 100 104.84 100C105.722 100 106.438 99.2822 106.438 98.3963V52.4451H107.275C108.158 52.4451 108.873 51.7273 108.873 50.8414V37.107C111.981 35.579 114 32.3934 114 28.8501ZM108.864 33.2673C108.782 32.4595 108.102 31.8296 107.275 31.8296C106.393 31.8296 105.677 32.5474 105.677 33.4333V49.2377H104.002V33.4333C104.002 32.5474 103.287 31.8296 102.404 31.8296C101.578 31.8296 100.898 32.4595 100.815 33.2671C99.6066 32.1565 98.8749 30.569 98.8749 28.8501C98.8749 25.5488 101.551 22.8629 104.84 22.8629C108.129 22.8629 110.804 25.5488 110.804 28.8501C110.805 30.569 110.073 32.1567 108.864 33.2673Z" fill="black"/>
</g>
<defs>
<clipPath id="clip0">
<rect width="130" height="100" fill="white"/>
</clipPath>
</defs>
</svg>
