<svg width="130" height="100" viewBox="0 0 130 100" fill="none" xmlns="http://www.w3.org/2000/svg">
<g style="mix-blend-mode:luminosity" clip-path="url(#clip0)">
<path d="M114.957 8.68184C112.879 8.23744 110.834 9.55683 110.389 11.627L107.593 24.628C98.6901 9.4958 82.3498 0 64.4406 0C36.86 0 14.4217 22.3566 14.4217 49.8375C14.4217 51.9546 16.1442 53.6711 18.2693 53.6711C20.3941 53.6711 22.1169 51.9546 22.1169 49.8375C22.1169 26.5847 41.1032 7.6673 64.4406 7.6673C79.6553 7.6673 93.5331 15.7649 101.047 28.6582L88.2191 25.9192C86.1408 25.4754 84.0957 26.7945 83.6509 28.8646C83.2058 30.9348 84.5294 32.9731 86.6071 33.4166L108.627 38.1181C109.001 38.1982 109.38 38.2212 109.755 38.1899C110.379 38.1375 110.987 37.9335 111.523 37.5882C112.38 37.0358 112.981 36.167 113.195 35.173L117.914 13.2335C118.358 11.1636 117.035 9.12593 114.957 8.68184Z" fill="black"/>
<path d="M111.086 44.8126C108.962 44.8826 107.297 46.6546 107.367 48.7705C107.74 60.0285 103.691 70.7569 95.9652 78.9809C88.2395 87.2039 77.7623 91.938 66.4635 92.3097C65.9926 92.3251 65.5241 92.3327 65.055 92.3327C50.3122 92.3321 36.7311 84.7031 29.0611 72.3425L42.4345 75.9155C44.4869 76.4636 46.597 75.2506 47.1473 73.2053C47.6977 71.1602 46.48 69.0582 44.4275 68.5092L22.6765 62.6986C21.6909 62.4358 20.6404 62.5732 19.757 63.081C18.8729 63.5889 18.2281 64.4265 17.9637 65.4085L12.1322 87.0812C11.5819 89.1263 12.7996 91.2283 14.852 91.777C15.186 91.8662 15.5209 91.9092 15.8509 91.9092C17.5494 91.9092 19.1041 90.7793 19.5649 89.0671L22.8428 76.8862C31.9613 91.1924 47.8334 100.001 65.0532 100C65.6063 100 66.1625 99.9911 66.7178 99.9727C80.0708 99.5329 92.4531 93.9389 101.584 84.2204C110.714 74.502 115.499 61.8224 115.058 48.5175C114.988 46.4019 113.209 44.7375 111.086 44.8126Z" fill="black"/>
</g>
<defs>
<clipPath id="clip0">
<rect width="130" height="100" fill="white"/>
</clipPath>
</defs>
</svg>
