<svg width="130" height="100" viewBox="0 0 130 100" fill="none" xmlns="http://www.w3.org/2000/svg">
<g style="mix-blend-mode:luminosity">
<path d="M106.282 76.3441C103.105 76.3441 100.088 77.5795 97.811 79.8136C95.5345 82.0741 94.2639 85.0179 94.2639 88.172C94.2639 91.3262 95.508 94.27 97.811 96.5305C100.114 98.7646 103.105 100 106.282 100C112.794 100 118.088 94.6906 118.088 88.172C118.088 81.6535 112.794 76.3441 106.282 76.3441ZM106.282 94.7431C102.629 94.7431 99.5581 91.7467 99.5581 88.172C99.5581 84.5974 102.629 81.601 106.282 81.601C109.882 81.601 112.794 84.5448 112.794 88.172C112.794 91.7993 109.882 94.7431 106.282 94.7431ZM109.352 36.9438C108.876 36.497 108.241 36.2605 107.579 36.2605H93.9992C92.5433 36.2605 91.3521 37.4432 91.3521 38.8889V60.4421C91.3521 61.8877 92.5433 63.0705 93.9992 63.0705H115.547C117.003 63.0705 118.194 61.8877 118.194 60.4421V46.0119C118.194 45.276 117.876 44.5663 117.32 44.0669L109.352 36.9438ZM112.9 57.8136H96.6463V41.491H106.547L112.9 47.1685V57.8136ZM41.6392 76.3441C38.4626 76.3441 35.4449 77.5795 33.1684 79.8136C30.8919 82.0741 29.6213 85.0179 29.6213 88.172C29.6213 91.3262 30.8654 94.27 33.1684 96.5305C35.4714 98.7646 38.4626 100 41.6392 100C48.1511 100 53.4453 94.6906 53.4453 88.172C53.4453 81.6535 48.1511 76.3441 41.6392 76.3441ZM41.6392 94.7431C37.9862 94.7431 34.9155 91.7467 34.9155 88.172C34.9155 84.5974 37.9862 81.601 41.6392 81.601C45.2393 81.601 48.1511 84.5448 48.1511 88.172C48.1511 91.7993 45.2393 94.7431 41.6392 94.7431ZM23.9829 79.5771H18.6622V72.5854C18.6622 71.1398 17.471 69.957 16.0151 69.957C14.5592 69.957 13.3679 71.1398 13.3679 72.5854V82.2055C13.3679 83.6511 14.5592 84.8339 16.0151 84.8339H23.9829C25.4388 84.8339 26.63 83.6511 26.63 82.2055C26.63 80.7599 25.4388 79.5771 23.9829 79.5771ZM37.4038 65.2521C37.4038 63.8064 36.2126 62.6236 34.7567 62.6236H2.64712C1.1912 62.6236 0 63.8064 0 65.2521C0 66.6977 1.1912 67.8805 2.64712 67.8805H34.7567C36.2126 67.8805 37.4038 66.724 37.4038 65.2521ZM8.02077 55.7634L40.1303 55.9474C41.5862 55.9474 42.7774 54.7909 42.8039 53.3453C42.8304 51.8734 41.6392 50.6906 40.1833 50.6906L8.07371 50.5066C8.04724 50.5066 8.04724 50.5066 8.04724 50.5066C6.59133 50.5066 5.40012 51.6631 5.40012 53.1087C5.37365 54.5806 6.56485 55.7634 8.02077 55.7634ZM13.4209 43.8303H45.5304C46.9864 43.8303 48.1776 42.6475 48.1776 41.2019C48.1776 39.7563 46.9864 38.5735 45.5304 38.5735H13.4209C11.965 38.5735 10.7738 39.7563 10.7738 41.2019C10.7738 42.6475 11.965 43.8303 13.4209 43.8303ZM129.021 40.282L110.067 24.6953C109.591 24.3011 109.008 24.0908 108.373 24.0908H86.0843V14.6284C86.0843 13.1828 84.8931 12 83.4372 12H16.0151C14.5592 12 13.3679 13.1828 13.3679 14.6284V33.8686C13.3679 35.3142 14.5592 36.497 16.0151 36.497C17.471 36.497 18.6622 35.3142 18.6622 33.8686V17.2569H80.8165V79.5771H59.1102C57.6542 79.5771 56.463 80.7599 56.463 82.2055C56.463 83.6511 57.6542 84.8339 59.1102 84.8339H91.4315C92.8874 84.8339 94.0786 83.6511 94.0786 82.2055C94.0786 80.7599 92.8874 79.5771 91.4315 79.5771H86.1108V29.3477H107.447L124.706 43.5412L124.52 79.5245H121.767C120.312 79.5245 119.12 80.7073 119.12 82.1529C119.12 83.5986 120.312 84.7814 121.767 84.7814H127.141C128.597 84.7814 129.788 83.6249 129.788 82.1792L130 42.3321C129.974 41.5436 129.629 40.7814 129.021 40.282Z" fill="black"/>
</g>
</svg>
